G04 EAGLE Gerber X2 export*
%TF.Part,Single*%
%TF.FileFunction,Other,Solder paste bottom*%
%TF.FilePolarity,Positive*%
%TF.GenerationSoftware,Autodesk,EAGLE,9.4.2*%
%TF.CreationDate,2019-07-05T01:34:15Z*%
G75*
%MOMM*%
%FSLAX34Y34*%
%LPD*%
%INSolder paste bottom*%
%AMOC8*
5,1,8,0,0,1.08239X$1,22.5*%
G01*
%ADD10C,0.000000*%
%ADD11C,0.130000*%
%ADD12C,0.152400*%
%ADD13R,1.778000X0.762000*%


D10*
X0Y0D02*
X300000Y-600D01*
X299900Y499400D01*
X0Y500000D01*
X0Y0D01*
D11*
X0Y500000D02*
X-150000Y500000D01*
X-150000Y0D02*
X0Y0D01*
X-130500Y650D02*
X-130500Y499350D01*
X-133692Y474000D01*
X-127308Y474000D01*
X-130500Y499350D01*
X-131800Y474000D01*
X-129200Y474000D02*
X-130500Y499350D01*
X-133100Y474000D01*
X-127900Y474000D02*
X-130500Y499350D01*
X-133692Y26000D02*
X-130500Y650D01*
X-133692Y26000D02*
X-127308Y26000D01*
X-130500Y650D01*
X-131800Y26000D01*
X-129200Y26000D02*
X-130500Y650D01*
X-133100Y26000D01*
X-127900Y26000D02*
X-130500Y650D01*
D12*
X-137007Y218941D02*
X-137007Y224360D01*
X-137009Y224478D01*
X-137015Y224596D01*
X-137024Y224714D01*
X-137038Y224831D01*
X-137055Y224948D01*
X-137076Y225065D01*
X-137101Y225180D01*
X-137130Y225295D01*
X-137163Y225409D01*
X-137199Y225521D01*
X-137239Y225632D01*
X-137282Y225742D01*
X-137329Y225851D01*
X-137379Y225958D01*
X-137434Y226063D01*
X-137491Y226166D01*
X-137552Y226267D01*
X-137616Y226367D01*
X-137683Y226464D01*
X-137753Y226559D01*
X-137827Y226651D01*
X-137903Y226742D01*
X-137983Y226829D01*
X-138065Y226914D01*
X-138150Y226996D01*
X-138237Y227076D01*
X-138328Y227152D01*
X-138420Y227226D01*
X-138515Y227296D01*
X-138612Y227363D01*
X-138712Y227427D01*
X-138813Y227488D01*
X-138916Y227545D01*
X-139021Y227600D01*
X-139128Y227650D01*
X-139237Y227697D01*
X-139347Y227740D01*
X-139458Y227780D01*
X-139570Y227816D01*
X-139684Y227849D01*
X-139799Y227878D01*
X-139914Y227903D01*
X-140031Y227924D01*
X-140148Y227941D01*
X-140265Y227955D01*
X-140383Y227964D01*
X-140501Y227970D01*
X-140619Y227972D01*
X-142426Y227972D01*
X-142544Y227970D01*
X-142662Y227964D01*
X-142780Y227955D01*
X-142897Y227941D01*
X-143014Y227924D01*
X-143131Y227903D01*
X-143246Y227878D01*
X-143361Y227849D01*
X-143475Y227816D01*
X-143587Y227780D01*
X-143698Y227740D01*
X-143808Y227697D01*
X-143917Y227650D01*
X-144024Y227600D01*
X-144129Y227545D01*
X-144232Y227488D01*
X-144333Y227427D01*
X-144433Y227363D01*
X-144530Y227296D01*
X-144625Y227226D01*
X-144717Y227152D01*
X-144808Y227076D01*
X-144895Y226996D01*
X-144980Y226914D01*
X-145062Y226829D01*
X-145142Y226742D01*
X-145218Y226651D01*
X-145292Y226559D01*
X-145362Y226464D01*
X-145429Y226367D01*
X-145493Y226267D01*
X-145554Y226166D01*
X-145611Y226063D01*
X-145666Y225958D01*
X-145716Y225851D01*
X-145763Y225742D01*
X-145806Y225632D01*
X-145846Y225521D01*
X-145882Y225409D01*
X-145915Y225295D01*
X-145944Y225180D01*
X-145969Y225065D01*
X-145990Y224948D01*
X-146007Y224831D01*
X-146021Y224714D01*
X-146030Y224596D01*
X-146036Y224478D01*
X-146038Y224360D01*
X-146038Y218941D01*
X-153263Y218941D01*
X-153263Y227972D01*
X-151005Y235928D02*
X-150716Y235791D01*
X-150424Y235661D01*
X-150128Y235538D01*
X-149830Y235423D01*
X-149529Y235314D01*
X-149226Y235213D01*
X-148920Y235119D01*
X-148613Y235032D01*
X-148303Y234953D01*
X-147991Y234881D01*
X-147678Y234817D01*
X-147363Y234760D01*
X-147047Y234710D01*
X-146730Y234668D01*
X-146412Y234634D01*
X-146094Y234607D01*
X-145774Y234588D01*
X-145455Y234577D01*
X-145135Y234573D01*
X-151006Y235927D02*
X-151114Y235966D01*
X-151221Y236009D01*
X-151326Y236055D01*
X-151430Y236106D01*
X-151532Y236159D01*
X-151632Y236216D01*
X-151730Y236277D01*
X-151825Y236341D01*
X-151919Y236408D01*
X-152010Y236479D01*
X-152099Y236552D01*
X-152185Y236629D01*
X-152268Y236708D01*
X-152349Y236790D01*
X-152427Y236875D01*
X-152501Y236963D01*
X-152573Y237053D01*
X-152641Y237145D01*
X-152707Y237240D01*
X-152769Y237337D01*
X-152827Y237436D01*
X-152883Y237538D01*
X-152934Y237640D01*
X-152982Y237745D01*
X-153027Y237851D01*
X-153068Y237959D01*
X-153105Y238068D01*
X-153138Y238178D01*
X-153167Y238290D01*
X-153193Y238402D01*
X-153215Y238515D01*
X-153232Y238629D01*
X-153246Y238743D01*
X-153256Y238858D01*
X-153262Y238973D01*
X-153264Y239088D01*
X-153263Y239088D02*
X-153261Y239203D01*
X-153255Y239318D01*
X-153245Y239433D01*
X-153231Y239547D01*
X-153214Y239661D01*
X-153192Y239774D01*
X-153166Y239886D01*
X-153137Y239998D01*
X-153104Y240108D01*
X-153067Y240217D01*
X-153026Y240325D01*
X-152981Y240431D01*
X-152933Y240536D01*
X-152882Y240638D01*
X-152826Y240739D01*
X-152768Y240839D01*
X-152706Y240936D01*
X-152641Y241030D01*
X-152572Y241123D01*
X-152500Y241213D01*
X-152426Y241301D01*
X-152348Y241386D01*
X-152267Y241468D01*
X-152184Y241547D01*
X-152098Y241624D01*
X-152009Y241697D01*
X-151918Y241768D01*
X-151824Y241835D01*
X-151729Y241899D01*
X-151631Y241960D01*
X-151531Y242017D01*
X-151429Y242070D01*
X-151325Y242121D01*
X-151220Y242167D01*
X-151113Y242210D01*
X-151005Y242249D01*
X-151005Y242248D02*
X-150716Y242385D01*
X-150424Y242515D01*
X-150128Y242638D01*
X-149830Y242753D01*
X-149529Y242862D01*
X-149226Y242963D01*
X-148920Y243057D01*
X-148613Y243144D01*
X-148303Y243223D01*
X-147991Y243295D01*
X-147678Y243359D01*
X-147363Y243416D01*
X-147047Y243466D01*
X-146730Y243508D01*
X-146412Y243542D01*
X-146094Y243569D01*
X-145774Y243588D01*
X-145455Y243599D01*
X-145135Y243603D01*
X-145135Y234573D02*
X-144815Y234577D01*
X-144496Y234588D01*
X-144176Y234607D01*
X-143858Y234634D01*
X-143540Y234668D01*
X-143223Y234710D01*
X-142907Y234760D01*
X-142592Y234817D01*
X-142279Y234881D01*
X-141967Y234953D01*
X-141657Y235032D01*
X-141350Y235119D01*
X-141044Y235213D01*
X-140741Y235314D01*
X-140440Y235423D01*
X-140142Y235538D01*
X-139846Y235661D01*
X-139554Y235791D01*
X-139265Y235928D01*
X-139265Y235927D02*
X-139157Y235966D01*
X-139050Y236009D01*
X-138945Y236055D01*
X-138841Y236106D01*
X-138739Y236159D01*
X-138639Y236216D01*
X-138541Y236277D01*
X-138446Y236341D01*
X-138352Y236408D01*
X-138261Y236479D01*
X-138172Y236552D01*
X-138086Y236629D01*
X-138003Y236708D01*
X-137922Y236790D01*
X-137844Y236875D01*
X-137770Y236963D01*
X-137698Y237053D01*
X-137629Y237146D01*
X-137564Y237240D01*
X-137502Y237337D01*
X-137444Y237437D01*
X-137388Y237538D01*
X-137337Y237640D01*
X-137289Y237745D01*
X-137244Y237851D01*
X-137203Y237959D01*
X-137166Y238068D01*
X-137133Y238178D01*
X-137104Y238290D01*
X-137078Y238402D01*
X-137056Y238515D01*
X-137039Y238629D01*
X-137025Y238743D01*
X-137015Y238858D01*
X-137009Y238973D01*
X-137007Y239088D01*
X-139265Y242248D02*
X-139554Y242385D01*
X-139846Y242515D01*
X-140142Y242638D01*
X-140440Y242753D01*
X-140741Y242862D01*
X-141044Y242963D01*
X-141350Y243057D01*
X-141657Y243144D01*
X-141967Y243223D01*
X-142279Y243295D01*
X-142592Y243359D01*
X-142907Y243416D01*
X-143223Y243466D01*
X-143540Y243508D01*
X-143858Y243542D01*
X-144176Y243569D01*
X-144496Y243588D01*
X-144815Y243599D01*
X-145135Y243603D01*
X-139265Y242249D02*
X-139157Y242210D01*
X-139050Y242167D01*
X-138945Y242121D01*
X-138841Y242070D01*
X-138739Y242017D01*
X-138639Y241960D01*
X-138541Y241899D01*
X-138446Y241835D01*
X-138352Y241768D01*
X-138261Y241697D01*
X-138172Y241624D01*
X-138086Y241547D01*
X-138003Y241468D01*
X-137922Y241386D01*
X-137844Y241301D01*
X-137770Y241213D01*
X-137698Y241123D01*
X-137629Y241030D01*
X-137564Y240936D01*
X-137502Y240839D01*
X-137444Y240739D01*
X-137388Y240638D01*
X-137337Y240535D01*
X-137289Y240431D01*
X-137244Y240325D01*
X-137203Y240217D01*
X-137166Y240108D01*
X-137133Y239998D01*
X-137104Y239886D01*
X-137078Y239774D01*
X-137056Y239661D01*
X-137039Y239547D01*
X-137025Y239433D01*
X-137015Y239318D01*
X-137009Y239203D01*
X-137007Y239088D01*
X-140619Y235476D02*
X-149651Y242701D01*
X-137910Y249578D02*
X-137007Y249578D01*
X-137910Y249578D02*
X-137910Y250481D01*
X-137007Y250481D01*
X-137007Y249578D01*
X-145135Y256456D02*
X-145455Y256460D01*
X-145774Y256471D01*
X-146094Y256490D01*
X-146412Y256517D01*
X-146730Y256551D01*
X-147047Y256593D01*
X-147363Y256643D01*
X-147678Y256700D01*
X-147991Y256764D01*
X-148303Y256836D01*
X-148613Y256915D01*
X-148920Y257002D01*
X-149226Y257096D01*
X-149529Y257197D01*
X-149830Y257306D01*
X-150128Y257421D01*
X-150424Y257544D01*
X-150716Y257674D01*
X-151005Y257811D01*
X-151006Y257811D02*
X-151114Y257850D01*
X-151221Y257893D01*
X-151326Y257939D01*
X-151430Y257990D01*
X-151532Y258043D01*
X-151632Y258100D01*
X-151730Y258161D01*
X-151825Y258225D01*
X-151919Y258292D01*
X-152010Y258363D01*
X-152099Y258436D01*
X-152185Y258513D01*
X-152268Y258592D01*
X-152349Y258674D01*
X-152427Y258759D01*
X-152501Y258847D01*
X-152573Y258937D01*
X-152641Y259029D01*
X-152707Y259124D01*
X-152769Y259221D01*
X-152827Y259320D01*
X-152883Y259422D01*
X-152934Y259524D01*
X-152982Y259629D01*
X-153027Y259735D01*
X-153068Y259843D01*
X-153105Y259952D01*
X-153138Y260062D01*
X-153167Y260174D01*
X-153193Y260286D01*
X-153215Y260399D01*
X-153232Y260513D01*
X-153246Y260627D01*
X-153256Y260742D01*
X-153262Y260857D01*
X-153264Y260972D01*
X-153263Y260972D02*
X-153261Y261087D01*
X-153255Y261202D01*
X-153245Y261317D01*
X-153231Y261431D01*
X-153214Y261545D01*
X-153192Y261658D01*
X-153166Y261770D01*
X-153137Y261882D01*
X-153104Y261992D01*
X-153067Y262101D01*
X-153026Y262209D01*
X-152981Y262315D01*
X-152933Y262420D01*
X-152882Y262522D01*
X-152826Y262623D01*
X-152768Y262723D01*
X-152706Y262820D01*
X-152641Y262914D01*
X-152572Y263007D01*
X-152500Y263097D01*
X-152426Y263185D01*
X-152348Y263270D01*
X-152267Y263352D01*
X-152184Y263431D01*
X-152098Y263508D01*
X-152009Y263581D01*
X-151918Y263652D01*
X-151824Y263719D01*
X-151729Y263783D01*
X-151631Y263844D01*
X-151531Y263901D01*
X-151429Y263954D01*
X-151325Y264005D01*
X-151220Y264051D01*
X-151113Y264094D01*
X-151005Y264133D01*
X-151005Y264132D02*
X-150716Y264269D01*
X-150424Y264399D01*
X-150128Y264522D01*
X-149830Y264637D01*
X-149529Y264746D01*
X-149226Y264847D01*
X-148920Y264941D01*
X-148613Y265028D01*
X-148303Y265107D01*
X-147991Y265179D01*
X-147678Y265243D01*
X-147363Y265300D01*
X-147047Y265350D01*
X-146730Y265392D01*
X-146412Y265426D01*
X-146094Y265453D01*
X-145774Y265472D01*
X-145455Y265483D01*
X-145135Y265487D01*
X-145135Y256457D02*
X-144815Y256461D01*
X-144496Y256472D01*
X-144176Y256491D01*
X-143858Y256518D01*
X-143540Y256552D01*
X-143223Y256594D01*
X-142907Y256644D01*
X-142592Y256701D01*
X-142279Y256765D01*
X-141967Y256837D01*
X-141657Y256916D01*
X-141350Y257003D01*
X-141044Y257097D01*
X-140741Y257198D01*
X-140440Y257307D01*
X-140142Y257422D01*
X-139846Y257545D01*
X-139554Y257675D01*
X-139265Y257812D01*
X-139265Y257811D02*
X-139157Y257850D01*
X-139050Y257893D01*
X-138945Y257939D01*
X-138841Y257990D01*
X-138739Y258043D01*
X-138639Y258100D01*
X-138541Y258161D01*
X-138446Y258225D01*
X-138352Y258292D01*
X-138261Y258363D01*
X-138172Y258436D01*
X-138086Y258513D01*
X-138003Y258592D01*
X-137922Y258674D01*
X-137844Y258759D01*
X-137770Y258847D01*
X-137698Y258937D01*
X-137629Y259030D01*
X-137564Y259124D01*
X-137502Y259221D01*
X-137444Y259321D01*
X-137388Y259422D01*
X-137337Y259524D01*
X-137289Y259629D01*
X-137244Y259735D01*
X-137203Y259843D01*
X-137166Y259952D01*
X-137133Y260062D01*
X-137104Y260174D01*
X-137078Y260286D01*
X-137056Y260399D01*
X-137039Y260513D01*
X-137025Y260627D01*
X-137015Y260742D01*
X-137009Y260857D01*
X-137007Y260972D01*
X-139265Y264132D02*
X-139554Y264269D01*
X-139846Y264399D01*
X-140142Y264522D01*
X-140440Y264637D01*
X-140741Y264746D01*
X-141044Y264847D01*
X-141350Y264941D01*
X-141657Y265028D01*
X-141967Y265107D01*
X-142279Y265179D01*
X-142592Y265243D01*
X-142907Y265300D01*
X-143223Y265350D01*
X-143540Y265392D01*
X-143858Y265426D01*
X-144176Y265453D01*
X-144496Y265472D01*
X-144815Y265483D01*
X-145135Y265487D01*
X-139265Y264133D02*
X-139157Y264094D01*
X-139050Y264051D01*
X-138945Y264005D01*
X-138841Y263954D01*
X-138739Y263901D01*
X-138639Y263844D01*
X-138541Y263783D01*
X-138446Y263719D01*
X-138352Y263652D01*
X-138261Y263581D01*
X-138172Y263508D01*
X-138086Y263431D01*
X-138003Y263352D01*
X-137922Y263270D01*
X-137844Y263185D01*
X-137770Y263097D01*
X-137698Y263007D01*
X-137629Y262914D01*
X-137564Y262820D01*
X-137502Y262723D01*
X-137444Y262623D01*
X-137388Y262522D01*
X-137337Y262419D01*
X-137289Y262315D01*
X-137244Y262209D01*
X-137203Y262101D01*
X-137166Y261992D01*
X-137133Y261882D01*
X-137104Y261770D01*
X-137078Y261658D01*
X-137056Y261545D01*
X-137039Y261431D01*
X-137025Y261317D01*
X-137015Y261202D01*
X-137009Y261087D01*
X-137007Y260972D01*
X-140619Y257359D02*
X-149651Y264584D01*
X-145135Y272088D02*
X-145455Y272092D01*
X-145774Y272103D01*
X-146094Y272122D01*
X-146412Y272149D01*
X-146730Y272183D01*
X-147047Y272225D01*
X-147363Y272275D01*
X-147678Y272332D01*
X-147991Y272396D01*
X-148303Y272468D01*
X-148613Y272547D01*
X-148920Y272634D01*
X-149226Y272728D01*
X-149529Y272829D01*
X-149830Y272938D01*
X-150128Y273053D01*
X-150424Y273176D01*
X-150716Y273306D01*
X-151005Y273443D01*
X-151006Y273442D02*
X-151114Y273481D01*
X-151221Y273524D01*
X-151326Y273570D01*
X-151430Y273621D01*
X-151532Y273674D01*
X-151632Y273731D01*
X-151730Y273792D01*
X-151825Y273856D01*
X-151919Y273923D01*
X-152010Y273994D01*
X-152099Y274067D01*
X-152185Y274144D01*
X-152268Y274223D01*
X-152349Y274305D01*
X-152427Y274390D01*
X-152501Y274478D01*
X-152573Y274568D01*
X-152641Y274660D01*
X-152707Y274755D01*
X-152769Y274852D01*
X-152827Y274951D01*
X-152883Y275053D01*
X-152934Y275155D01*
X-152982Y275260D01*
X-153027Y275366D01*
X-153068Y275474D01*
X-153105Y275583D01*
X-153138Y275693D01*
X-153167Y275805D01*
X-153193Y275917D01*
X-153215Y276030D01*
X-153232Y276144D01*
X-153246Y276258D01*
X-153256Y276373D01*
X-153262Y276488D01*
X-153264Y276603D01*
X-153263Y276603D02*
X-153261Y276718D01*
X-153255Y276833D01*
X-153245Y276948D01*
X-153231Y277062D01*
X-153214Y277176D01*
X-153192Y277289D01*
X-153166Y277401D01*
X-153137Y277513D01*
X-153104Y277623D01*
X-153067Y277732D01*
X-153026Y277840D01*
X-152981Y277946D01*
X-152933Y278051D01*
X-152882Y278153D01*
X-152826Y278254D01*
X-152768Y278354D01*
X-152706Y278451D01*
X-152641Y278545D01*
X-152572Y278638D01*
X-152500Y278728D01*
X-152426Y278816D01*
X-152348Y278901D01*
X-152267Y278983D01*
X-152184Y279062D01*
X-152098Y279139D01*
X-152009Y279212D01*
X-151918Y279283D01*
X-151824Y279350D01*
X-151729Y279414D01*
X-151631Y279475D01*
X-151531Y279532D01*
X-151429Y279585D01*
X-151325Y279636D01*
X-151220Y279682D01*
X-151113Y279725D01*
X-151005Y279764D01*
X-151005Y279763D02*
X-150716Y279900D01*
X-150424Y280030D01*
X-150128Y280153D01*
X-149830Y280268D01*
X-149529Y280377D01*
X-149226Y280478D01*
X-148920Y280572D01*
X-148613Y280659D01*
X-148303Y280738D01*
X-147991Y280810D01*
X-147678Y280874D01*
X-147363Y280931D01*
X-147047Y280981D01*
X-146730Y281023D01*
X-146412Y281057D01*
X-146094Y281084D01*
X-145774Y281103D01*
X-145455Y281114D01*
X-145135Y281118D01*
X-145135Y272088D02*
X-144815Y272092D01*
X-144496Y272103D01*
X-144176Y272122D01*
X-143858Y272149D01*
X-143540Y272183D01*
X-143223Y272225D01*
X-142907Y272275D01*
X-142592Y272332D01*
X-142279Y272396D01*
X-141967Y272468D01*
X-141657Y272547D01*
X-141350Y272634D01*
X-141044Y272728D01*
X-140741Y272829D01*
X-140440Y272938D01*
X-140142Y273053D01*
X-139846Y273176D01*
X-139554Y273306D01*
X-139265Y273443D01*
X-139265Y273442D02*
X-139157Y273481D01*
X-139050Y273524D01*
X-138945Y273570D01*
X-138841Y273621D01*
X-138739Y273674D01*
X-138639Y273731D01*
X-138541Y273792D01*
X-138446Y273856D01*
X-138352Y273923D01*
X-138261Y273994D01*
X-138172Y274067D01*
X-138086Y274144D01*
X-138003Y274223D01*
X-137922Y274305D01*
X-137844Y274390D01*
X-137770Y274478D01*
X-137698Y274568D01*
X-137629Y274661D01*
X-137564Y274755D01*
X-137502Y274852D01*
X-137444Y274952D01*
X-137388Y275053D01*
X-137337Y275155D01*
X-137289Y275260D01*
X-137244Y275366D01*
X-137203Y275474D01*
X-137166Y275583D01*
X-137133Y275693D01*
X-137104Y275805D01*
X-137078Y275917D01*
X-137056Y276030D01*
X-137039Y276144D01*
X-137025Y276258D01*
X-137015Y276373D01*
X-137009Y276488D01*
X-137007Y276603D01*
X-139265Y279763D02*
X-139554Y279900D01*
X-139846Y280030D01*
X-140142Y280153D01*
X-140440Y280268D01*
X-140741Y280377D01*
X-141044Y280478D01*
X-141350Y280572D01*
X-141657Y280659D01*
X-141967Y280738D01*
X-142279Y280810D01*
X-142592Y280874D01*
X-142907Y280931D01*
X-143223Y280981D01*
X-143540Y281023D01*
X-143858Y281057D01*
X-144176Y281084D01*
X-144496Y281103D01*
X-144815Y281114D01*
X-145135Y281118D01*
X-139265Y279764D02*
X-139157Y279725D01*
X-139050Y279682D01*
X-138945Y279636D01*
X-138841Y279585D01*
X-138739Y279532D01*
X-138639Y279475D01*
X-138541Y279414D01*
X-138446Y279350D01*
X-138352Y279283D01*
X-138261Y279212D01*
X-138172Y279139D01*
X-138086Y279062D01*
X-138003Y278983D01*
X-137922Y278901D01*
X-137844Y278816D01*
X-137770Y278728D01*
X-137698Y278638D01*
X-137629Y278545D01*
X-137564Y278451D01*
X-137502Y278354D01*
X-137444Y278254D01*
X-137388Y278153D01*
X-137337Y278050D01*
X-137289Y277946D01*
X-137244Y277840D01*
X-137203Y277732D01*
X-137166Y277623D01*
X-137133Y277513D01*
X-137104Y277401D01*
X-137078Y277289D01*
X-137056Y277176D01*
X-137039Y277062D01*
X-137025Y276948D01*
X-137015Y276833D01*
X-137009Y276718D01*
X-137007Y276603D01*
X-140619Y272991D02*
X-149651Y280215D01*
D11*
X0Y0D02*
X-330Y-164942D01*
X299670Y-165542D02*
X300000Y-600D01*
X299059Y-146041D02*
X359Y-145443D01*
X25715Y-142302D01*
X25703Y-148686D01*
X359Y-145443D01*
X25712Y-144194D01*
X25706Y-146794D02*
X359Y-145443D01*
X25714Y-142894D01*
X25704Y-148094D02*
X359Y-145443D01*
X273716Y-142798D02*
X299059Y-146041D01*
X273716Y-142798D02*
X273703Y-149182D01*
X299059Y-146041D01*
X273712Y-144690D01*
X273707Y-147290D02*
X299059Y-146041D01*
X273714Y-143390D01*
X273704Y-148590D02*
X299059Y-146041D01*
D12*
X123179Y-139181D02*
X118663Y-139173D01*
X123179Y-139181D02*
X123313Y-139179D01*
X123447Y-139174D01*
X123580Y-139164D01*
X123713Y-139150D01*
X123846Y-139133D01*
X123978Y-139111D01*
X124109Y-139086D01*
X124240Y-139056D01*
X124370Y-139023D01*
X124498Y-138986D01*
X124626Y-138946D01*
X124752Y-138901D01*
X124877Y-138853D01*
X125000Y-138801D01*
X125122Y-138745D01*
X125242Y-138686D01*
X125360Y-138624D01*
X125477Y-138557D01*
X125591Y-138488D01*
X125703Y-138415D01*
X125813Y-138339D01*
X125921Y-138259D01*
X126026Y-138177D01*
X126129Y-138091D01*
X126229Y-138002D01*
X126327Y-137911D01*
X126422Y-137816D01*
X126514Y-137719D01*
X126603Y-137619D01*
X126689Y-137517D01*
X126772Y-137412D01*
X126852Y-137304D01*
X126928Y-137194D01*
X127001Y-137082D01*
X127071Y-136968D01*
X127138Y-136852D01*
X127201Y-136734D01*
X127261Y-136614D01*
X127317Y-136493D01*
X127369Y-136370D01*
X127418Y-136245D01*
X127463Y-136119D01*
X127504Y-135991D01*
X127541Y-135863D01*
X127575Y-135733D01*
X127605Y-135603D01*
X127630Y-135472D01*
X127652Y-135340D01*
X127670Y-135207D01*
X127684Y-135074D01*
X127695Y-134940D01*
X127701Y-134807D01*
X127703Y-134673D01*
X127701Y-134539D01*
X127696Y-134405D01*
X127686Y-134272D01*
X127672Y-134139D01*
X127655Y-134006D01*
X127633Y-133874D01*
X127608Y-133743D01*
X127579Y-133612D01*
X127545Y-133482D01*
X127508Y-133354D01*
X127468Y-133226D01*
X127423Y-133100D01*
X127375Y-132975D01*
X127323Y-132852D01*
X127267Y-132730D01*
X127208Y-132610D01*
X127146Y-132492D01*
X127079Y-132375D01*
X127010Y-132261D01*
X126937Y-132149D01*
X126861Y-132039D01*
X126781Y-131931D01*
X126699Y-131826D01*
X126613Y-131723D01*
X126524Y-131623D01*
X126433Y-131525D01*
X126338Y-131430D01*
X126241Y-131338D01*
X126141Y-131249D01*
X126039Y-131163D01*
X125934Y-131080D01*
X125826Y-131000D01*
X125716Y-130924D01*
X125604Y-130851D01*
X125490Y-130781D01*
X125374Y-130714D01*
X125256Y-130651D01*
X125136Y-130591D01*
X125015Y-130535D01*
X124892Y-130483D01*
X124767Y-130434D01*
X124641Y-130389D01*
X124513Y-130348D01*
X124385Y-130311D01*
X124255Y-130277D01*
X124125Y-130247D01*
X123994Y-130222D01*
X123862Y-130200D01*
X123729Y-130182D01*
X123596Y-130168D01*
X123462Y-130157D01*
X123329Y-130151D01*
X123195Y-130149D01*
X124110Y-122926D02*
X118692Y-122917D01*
X124110Y-122927D02*
X124230Y-122929D01*
X124349Y-122935D01*
X124468Y-122945D01*
X124587Y-122959D01*
X124705Y-122977D01*
X124822Y-122999D01*
X124939Y-123025D01*
X125055Y-123054D01*
X125169Y-123088D01*
X125283Y-123125D01*
X125395Y-123166D01*
X125506Y-123210D01*
X125615Y-123258D01*
X125723Y-123310D01*
X125829Y-123365D01*
X125933Y-123424D01*
X126035Y-123486D01*
X126135Y-123552D01*
X126232Y-123621D01*
X126328Y-123693D01*
X126420Y-123768D01*
X126511Y-123846D01*
X126599Y-123927D01*
X126684Y-124011D01*
X126766Y-124097D01*
X126845Y-124187D01*
X126921Y-124279D01*
X126994Y-124373D01*
X127064Y-124470D01*
X127131Y-124569D01*
X127195Y-124670D01*
X127255Y-124773D01*
X127312Y-124878D01*
X127365Y-124985D01*
X127414Y-125094D01*
X127460Y-125204D01*
X127503Y-125316D01*
X127541Y-125429D01*
X127576Y-125543D01*
X127607Y-125658D01*
X127634Y-125775D01*
X127658Y-125892D01*
X127677Y-126010D01*
X127693Y-126128D01*
X127704Y-126247D01*
X127712Y-126366D01*
X127716Y-126486D01*
X127715Y-126605D01*
X127711Y-126724D01*
X127703Y-126844D01*
X127691Y-126962D01*
X127675Y-127081D01*
X127655Y-127199D01*
X127632Y-127316D01*
X127604Y-127432D01*
X127572Y-127547D01*
X127537Y-127661D01*
X127498Y-127774D01*
X127456Y-127886D01*
X127409Y-127996D01*
X127359Y-128104D01*
X127306Y-128211D01*
X127249Y-128316D01*
X127188Y-128419D01*
X127124Y-128520D01*
X127057Y-128619D01*
X126987Y-128715D01*
X126913Y-128809D01*
X126837Y-128901D01*
X126757Y-128990D01*
X126675Y-129076D01*
X126589Y-129160D01*
X126501Y-129241D01*
X126411Y-129318D01*
X126318Y-129393D01*
X126222Y-129465D01*
X126124Y-129533D01*
X126024Y-129598D01*
X125922Y-129660D01*
X125818Y-129719D01*
X125712Y-129774D01*
X125604Y-129825D01*
X125494Y-129873D01*
X125383Y-129917D01*
X125271Y-129957D01*
X125157Y-129994D01*
X125042Y-130027D01*
X124927Y-130056D01*
X124810Y-130081D01*
X124692Y-130103D01*
X124574Y-130120D01*
X124456Y-130134D01*
X124336Y-130144D01*
X124217Y-130149D01*
X124098Y-130151D01*
X120485Y-130145D01*
X134309Y-131072D02*
X134313Y-130752D01*
X134325Y-130432D01*
X134345Y-130113D01*
X134372Y-129795D01*
X134407Y-129477D01*
X134450Y-129160D01*
X134500Y-128844D01*
X134557Y-128529D01*
X134622Y-128216D01*
X134694Y-127905D01*
X134774Y-127595D01*
X134862Y-127287D01*
X134956Y-126982D01*
X135058Y-126679D01*
X135167Y-126378D01*
X135283Y-126080D01*
X135406Y-125785D01*
X135537Y-125493D01*
X135674Y-125204D01*
X135673Y-125204D02*
X135713Y-125096D01*
X135756Y-124989D01*
X135803Y-124884D01*
X135853Y-124780D01*
X135907Y-124679D01*
X135964Y-124579D01*
X136025Y-124481D01*
X136089Y-124385D01*
X136156Y-124292D01*
X136227Y-124201D01*
X136301Y-124113D01*
X136377Y-124027D01*
X136457Y-123943D01*
X136539Y-123863D01*
X136624Y-123785D01*
X136712Y-123711D01*
X136802Y-123639D01*
X136895Y-123571D01*
X136990Y-123506D01*
X137087Y-123444D01*
X137186Y-123386D01*
X137287Y-123331D01*
X137390Y-123279D01*
X137495Y-123231D01*
X137601Y-123187D01*
X137709Y-123146D01*
X137818Y-123110D01*
X137928Y-123077D01*
X138040Y-123047D01*
X138152Y-123022D01*
X138265Y-123000D01*
X138379Y-122983D01*
X138493Y-122969D01*
X138608Y-122960D01*
X138723Y-122954D01*
X138838Y-122952D01*
X138953Y-122954D01*
X139068Y-122960D01*
X139183Y-122970D01*
X139297Y-122984D01*
X139410Y-123002D01*
X139524Y-123024D01*
X139636Y-123050D01*
X139747Y-123080D01*
X139857Y-123113D01*
X139966Y-123150D01*
X140074Y-123191D01*
X140180Y-123236D01*
X140284Y-123284D01*
X140387Y-123336D01*
X140488Y-123391D01*
X140587Y-123450D01*
X140684Y-123512D01*
X140779Y-123578D01*
X140871Y-123646D01*
X140961Y-123718D01*
X141048Y-123793D01*
X141133Y-123871D01*
X141215Y-123952D01*
X141295Y-124035D01*
X141371Y-124121D01*
X141444Y-124210D01*
X141514Y-124301D01*
X141581Y-124395D01*
X141645Y-124491D01*
X141706Y-124589D01*
X141763Y-124689D01*
X141816Y-124791D01*
X141866Y-124894D01*
X141913Y-125000D01*
X141955Y-125107D01*
X141994Y-125215D01*
X141996Y-125216D02*
X142132Y-125505D01*
X142261Y-125798D01*
X142383Y-126093D01*
X142498Y-126391D01*
X142606Y-126692D01*
X142707Y-126996D01*
X142801Y-127302D01*
X142887Y-127610D01*
X142966Y-127920D01*
X143037Y-128231D01*
X143101Y-128545D01*
X143157Y-128860D01*
X143206Y-129176D01*
X143247Y-129493D01*
X143281Y-129811D01*
X143307Y-130130D01*
X143326Y-130449D01*
X143337Y-130768D01*
X143340Y-131088D01*
X134308Y-131072D02*
X134311Y-131392D01*
X134322Y-131712D01*
X134341Y-132031D01*
X134367Y-132350D01*
X134401Y-132668D01*
X134442Y-132985D01*
X134491Y-133301D01*
X134547Y-133616D01*
X134611Y-133929D01*
X134682Y-134241D01*
X134761Y-134551D01*
X134847Y-134859D01*
X134941Y-135165D01*
X135042Y-135468D01*
X135150Y-135769D01*
X135265Y-136068D01*
X135387Y-136363D01*
X135516Y-136656D01*
X135652Y-136945D01*
X135654Y-136944D02*
X135693Y-137052D01*
X135735Y-137159D01*
X135782Y-137265D01*
X135832Y-137368D01*
X135885Y-137470D01*
X135942Y-137570D01*
X136003Y-137668D01*
X136067Y-137764D01*
X136134Y-137858D01*
X136204Y-137949D01*
X136277Y-138038D01*
X136353Y-138124D01*
X136433Y-138207D01*
X136515Y-138288D01*
X136600Y-138366D01*
X136687Y-138441D01*
X136777Y-138513D01*
X136869Y-138581D01*
X136964Y-138647D01*
X137061Y-138709D01*
X137160Y-138768D01*
X137261Y-138823D01*
X137364Y-138875D01*
X137468Y-138923D01*
X137574Y-138968D01*
X137682Y-139009D01*
X137791Y-139046D01*
X137901Y-139079D01*
X138012Y-139109D01*
X138124Y-139135D01*
X138238Y-139157D01*
X138351Y-139175D01*
X138465Y-139189D01*
X138580Y-139199D01*
X138695Y-139205D01*
X138810Y-139207D01*
X141974Y-136956D02*
X142111Y-136667D01*
X142242Y-136375D01*
X142365Y-136080D01*
X142481Y-135782D01*
X142590Y-135481D01*
X142692Y-135178D01*
X142786Y-134873D01*
X142874Y-134565D01*
X142954Y-134255D01*
X143026Y-133944D01*
X143091Y-133631D01*
X143148Y-133316D01*
X143198Y-133000D01*
X143241Y-132683D01*
X143276Y-132365D01*
X143303Y-132047D01*
X143323Y-131728D01*
X143335Y-131408D01*
X143339Y-131088D01*
X141975Y-136955D02*
X141935Y-137063D01*
X141892Y-137170D01*
X141845Y-137275D01*
X141795Y-137379D01*
X141741Y-137480D01*
X141684Y-137580D01*
X141623Y-137678D01*
X141559Y-137774D01*
X141491Y-137867D01*
X141421Y-137958D01*
X141347Y-138047D01*
X141271Y-138132D01*
X141191Y-138216D01*
X141109Y-138296D01*
X141024Y-138374D01*
X140936Y-138448D01*
X140846Y-138520D01*
X140753Y-138588D01*
X140658Y-138653D01*
X140561Y-138715D01*
X140462Y-138773D01*
X140361Y-138828D01*
X140258Y-138880D01*
X140153Y-138928D01*
X140047Y-138972D01*
X139939Y-139013D01*
X139830Y-139049D01*
X139720Y-139082D01*
X139608Y-139112D01*
X139496Y-139137D01*
X139383Y-139159D01*
X139269Y-139176D01*
X139155Y-139190D01*
X139040Y-139199D01*
X138925Y-139205D01*
X138810Y-139207D01*
X135204Y-135589D02*
X142444Y-126571D01*
X149302Y-138323D02*
X149300Y-139226D01*
X149302Y-138323D02*
X150205Y-138325D01*
X150203Y-139228D01*
X149300Y-139226D01*
X156192Y-131110D02*
X156196Y-130790D01*
X156208Y-130470D01*
X156228Y-130151D01*
X156255Y-129833D01*
X156290Y-129515D01*
X156333Y-129198D01*
X156383Y-128882D01*
X156440Y-128567D01*
X156505Y-128254D01*
X156577Y-127943D01*
X156657Y-127633D01*
X156745Y-127325D01*
X156839Y-127020D01*
X156941Y-126717D01*
X157050Y-126416D01*
X157166Y-126118D01*
X157289Y-125823D01*
X157420Y-125531D01*
X157557Y-125242D01*
X157597Y-125134D01*
X157640Y-125027D01*
X157687Y-124922D01*
X157737Y-124818D01*
X157791Y-124717D01*
X157848Y-124617D01*
X157909Y-124519D01*
X157973Y-124423D01*
X158040Y-124330D01*
X158111Y-124239D01*
X158185Y-124151D01*
X158261Y-124065D01*
X158341Y-123981D01*
X158423Y-123901D01*
X158508Y-123823D01*
X158596Y-123749D01*
X158686Y-123677D01*
X158779Y-123609D01*
X158874Y-123544D01*
X158971Y-123482D01*
X159070Y-123424D01*
X159171Y-123369D01*
X159274Y-123317D01*
X159379Y-123269D01*
X159485Y-123225D01*
X159593Y-123184D01*
X159702Y-123148D01*
X159812Y-123115D01*
X159924Y-123085D01*
X160036Y-123060D01*
X160149Y-123038D01*
X160263Y-123021D01*
X160377Y-123007D01*
X160492Y-122998D01*
X160607Y-122992D01*
X160722Y-122990D01*
X160837Y-122992D01*
X160952Y-122998D01*
X161067Y-123008D01*
X161181Y-123022D01*
X161294Y-123040D01*
X161408Y-123062D01*
X161520Y-123088D01*
X161631Y-123118D01*
X161741Y-123151D01*
X161850Y-123188D01*
X161958Y-123229D01*
X162064Y-123274D01*
X162168Y-123322D01*
X162271Y-123374D01*
X162372Y-123429D01*
X162471Y-123488D01*
X162568Y-123550D01*
X162663Y-123616D01*
X162755Y-123684D01*
X162845Y-123756D01*
X162932Y-123831D01*
X163017Y-123909D01*
X163099Y-123990D01*
X163179Y-124073D01*
X163255Y-124159D01*
X163328Y-124248D01*
X163398Y-124339D01*
X163465Y-124433D01*
X163529Y-124529D01*
X163590Y-124627D01*
X163647Y-124727D01*
X163700Y-124829D01*
X163750Y-124932D01*
X163797Y-125038D01*
X163839Y-125145D01*
X163878Y-125253D01*
X163879Y-125254D02*
X164015Y-125543D01*
X164144Y-125836D01*
X164266Y-126131D01*
X164381Y-126429D01*
X164489Y-126730D01*
X164590Y-127034D01*
X164684Y-127340D01*
X164770Y-127648D01*
X164849Y-127958D01*
X164920Y-128269D01*
X164984Y-128583D01*
X165040Y-128898D01*
X165089Y-129214D01*
X165130Y-129531D01*
X165164Y-129849D01*
X165190Y-130168D01*
X165209Y-130487D01*
X165220Y-130806D01*
X165223Y-131126D01*
X156192Y-131110D02*
X156195Y-131430D01*
X156206Y-131750D01*
X156225Y-132069D01*
X156251Y-132388D01*
X156285Y-132706D01*
X156326Y-133023D01*
X156375Y-133339D01*
X156431Y-133654D01*
X156495Y-133967D01*
X156566Y-134279D01*
X156645Y-134589D01*
X156731Y-134897D01*
X156825Y-135203D01*
X156926Y-135506D01*
X157034Y-135807D01*
X157149Y-136106D01*
X157271Y-136401D01*
X157400Y-136694D01*
X157536Y-136983D01*
X157537Y-136983D02*
X157576Y-137091D01*
X157618Y-137198D01*
X157665Y-137304D01*
X157715Y-137407D01*
X157768Y-137509D01*
X157825Y-137609D01*
X157886Y-137707D01*
X157950Y-137803D01*
X158017Y-137897D01*
X158087Y-137988D01*
X158160Y-138077D01*
X158236Y-138163D01*
X158316Y-138246D01*
X158398Y-138327D01*
X158483Y-138405D01*
X158570Y-138480D01*
X158660Y-138552D01*
X158752Y-138620D01*
X158847Y-138686D01*
X158944Y-138748D01*
X159043Y-138807D01*
X159144Y-138862D01*
X159247Y-138914D01*
X159351Y-138962D01*
X159457Y-139007D01*
X159565Y-139048D01*
X159674Y-139085D01*
X159784Y-139118D01*
X159895Y-139148D01*
X160007Y-139174D01*
X160121Y-139196D01*
X160234Y-139214D01*
X160348Y-139228D01*
X160463Y-139238D01*
X160578Y-139244D01*
X160693Y-139246D01*
X163858Y-136994D02*
X163995Y-136705D01*
X164126Y-136413D01*
X164249Y-136118D01*
X164365Y-135820D01*
X164474Y-135519D01*
X164576Y-135216D01*
X164670Y-134911D01*
X164758Y-134603D01*
X164838Y-134293D01*
X164910Y-133982D01*
X164975Y-133669D01*
X165032Y-133354D01*
X165082Y-133038D01*
X165125Y-132721D01*
X165160Y-132403D01*
X165187Y-132085D01*
X165207Y-131766D01*
X165219Y-131446D01*
X165223Y-131126D01*
X163858Y-136994D02*
X163818Y-137102D01*
X163775Y-137209D01*
X163728Y-137314D01*
X163678Y-137418D01*
X163624Y-137519D01*
X163567Y-137619D01*
X163506Y-137717D01*
X163442Y-137813D01*
X163374Y-137906D01*
X163304Y-137997D01*
X163230Y-138086D01*
X163154Y-138171D01*
X163074Y-138255D01*
X162992Y-138335D01*
X162907Y-138413D01*
X162819Y-138487D01*
X162729Y-138559D01*
X162636Y-138627D01*
X162541Y-138692D01*
X162444Y-138754D01*
X162345Y-138812D01*
X162244Y-138867D01*
X162141Y-138919D01*
X162036Y-138967D01*
X161930Y-139011D01*
X161822Y-139052D01*
X161713Y-139088D01*
X161603Y-139121D01*
X161491Y-139151D01*
X161379Y-139176D01*
X161266Y-139198D01*
X161152Y-139215D01*
X161038Y-139229D01*
X160923Y-139238D01*
X160808Y-139244D01*
X160693Y-139246D01*
X157087Y-135627D02*
X164328Y-126609D01*
X171824Y-131138D02*
X171828Y-130818D01*
X171840Y-130498D01*
X171860Y-130179D01*
X171887Y-129861D01*
X171922Y-129543D01*
X171965Y-129226D01*
X172015Y-128910D01*
X172072Y-128595D01*
X172137Y-128282D01*
X172209Y-127971D01*
X172289Y-127661D01*
X172377Y-127353D01*
X172471Y-127048D01*
X172573Y-126745D01*
X172682Y-126444D01*
X172798Y-126146D01*
X172921Y-125851D01*
X173052Y-125559D01*
X173189Y-125270D01*
X173188Y-125270D02*
X173228Y-125162D01*
X173271Y-125055D01*
X173318Y-124950D01*
X173368Y-124846D01*
X173422Y-124745D01*
X173479Y-124645D01*
X173540Y-124547D01*
X173604Y-124451D01*
X173671Y-124358D01*
X173742Y-124267D01*
X173816Y-124179D01*
X173892Y-124093D01*
X173972Y-124009D01*
X174054Y-123929D01*
X174139Y-123851D01*
X174227Y-123777D01*
X174317Y-123705D01*
X174410Y-123637D01*
X174505Y-123572D01*
X174602Y-123510D01*
X174701Y-123452D01*
X174802Y-123397D01*
X174905Y-123345D01*
X175010Y-123297D01*
X175116Y-123253D01*
X175224Y-123212D01*
X175333Y-123176D01*
X175443Y-123143D01*
X175555Y-123113D01*
X175667Y-123088D01*
X175780Y-123066D01*
X175894Y-123049D01*
X176008Y-123035D01*
X176123Y-123026D01*
X176238Y-123020D01*
X176353Y-123018D01*
X176468Y-123020D01*
X176583Y-123026D01*
X176698Y-123036D01*
X176812Y-123050D01*
X176925Y-123068D01*
X177039Y-123090D01*
X177151Y-123116D01*
X177262Y-123146D01*
X177372Y-123179D01*
X177481Y-123216D01*
X177589Y-123257D01*
X177695Y-123302D01*
X177799Y-123350D01*
X177902Y-123402D01*
X178003Y-123457D01*
X178102Y-123516D01*
X178199Y-123578D01*
X178294Y-123644D01*
X178386Y-123712D01*
X178476Y-123784D01*
X178563Y-123859D01*
X178648Y-123937D01*
X178730Y-124018D01*
X178810Y-124101D01*
X178886Y-124187D01*
X178959Y-124276D01*
X179029Y-124367D01*
X179096Y-124461D01*
X179160Y-124557D01*
X179221Y-124655D01*
X179278Y-124755D01*
X179331Y-124857D01*
X179381Y-124960D01*
X179428Y-125066D01*
X179470Y-125173D01*
X179509Y-125281D01*
X179510Y-125281D02*
X179646Y-125570D01*
X179775Y-125863D01*
X179897Y-126158D01*
X180012Y-126456D01*
X180120Y-126757D01*
X180221Y-127061D01*
X180315Y-127367D01*
X180401Y-127675D01*
X180480Y-127985D01*
X180551Y-128296D01*
X180615Y-128610D01*
X180671Y-128925D01*
X180720Y-129241D01*
X180761Y-129558D01*
X180795Y-129876D01*
X180821Y-130195D01*
X180840Y-130514D01*
X180851Y-130833D01*
X180854Y-131153D01*
X171823Y-131137D02*
X171826Y-131457D01*
X171837Y-131777D01*
X171856Y-132096D01*
X171882Y-132415D01*
X171916Y-132733D01*
X171957Y-133050D01*
X172006Y-133366D01*
X172062Y-133681D01*
X172126Y-133994D01*
X172197Y-134306D01*
X172276Y-134616D01*
X172362Y-134924D01*
X172456Y-135230D01*
X172557Y-135533D01*
X172665Y-135834D01*
X172780Y-136133D01*
X172902Y-136428D01*
X173031Y-136721D01*
X173167Y-137010D01*
X173168Y-137010D02*
X173207Y-137118D01*
X173249Y-137225D01*
X173296Y-137331D01*
X173346Y-137434D01*
X173399Y-137536D01*
X173456Y-137636D01*
X173517Y-137734D01*
X173581Y-137830D01*
X173648Y-137924D01*
X173718Y-138015D01*
X173791Y-138104D01*
X173867Y-138190D01*
X173947Y-138273D01*
X174029Y-138354D01*
X174114Y-138432D01*
X174201Y-138507D01*
X174291Y-138579D01*
X174383Y-138647D01*
X174478Y-138713D01*
X174575Y-138775D01*
X174674Y-138834D01*
X174775Y-138889D01*
X174878Y-138941D01*
X174982Y-138989D01*
X175088Y-139034D01*
X175196Y-139075D01*
X175305Y-139112D01*
X175415Y-139145D01*
X175526Y-139175D01*
X175638Y-139201D01*
X175752Y-139223D01*
X175865Y-139241D01*
X175979Y-139255D01*
X176094Y-139265D01*
X176209Y-139271D01*
X176324Y-139273D01*
X179489Y-137021D02*
X179626Y-136732D01*
X179757Y-136440D01*
X179880Y-136145D01*
X179996Y-135847D01*
X180105Y-135546D01*
X180207Y-135243D01*
X180301Y-134938D01*
X180389Y-134630D01*
X180469Y-134320D01*
X180541Y-134009D01*
X180606Y-133696D01*
X180663Y-133381D01*
X180713Y-133065D01*
X180756Y-132748D01*
X180791Y-132430D01*
X180818Y-132112D01*
X180838Y-131793D01*
X180850Y-131473D01*
X180854Y-131153D01*
X179490Y-137021D02*
X179450Y-137129D01*
X179407Y-137236D01*
X179360Y-137341D01*
X179310Y-137445D01*
X179256Y-137546D01*
X179199Y-137646D01*
X179138Y-137744D01*
X179074Y-137840D01*
X179006Y-137933D01*
X178936Y-138024D01*
X178862Y-138113D01*
X178786Y-138198D01*
X178706Y-138282D01*
X178624Y-138362D01*
X178539Y-138440D01*
X178451Y-138514D01*
X178361Y-138586D01*
X178268Y-138654D01*
X178173Y-138719D01*
X178076Y-138781D01*
X177977Y-138839D01*
X177876Y-138894D01*
X177773Y-138946D01*
X177668Y-138994D01*
X177562Y-139038D01*
X177454Y-139079D01*
X177345Y-139115D01*
X177235Y-139148D01*
X177123Y-139178D01*
X177011Y-139203D01*
X176898Y-139225D01*
X176784Y-139242D01*
X176670Y-139256D01*
X176555Y-139265D01*
X176440Y-139271D01*
X176325Y-139273D01*
X172718Y-135654D02*
X179959Y-126636D01*
D10*
X31000Y471000D02*
X31005Y471393D01*
X31019Y471785D01*
X31043Y472177D01*
X31077Y472568D01*
X31120Y472959D01*
X31173Y473348D01*
X31236Y473735D01*
X31307Y474121D01*
X31389Y474506D01*
X31479Y474888D01*
X31580Y475267D01*
X31689Y475645D01*
X31808Y476019D01*
X31935Y476390D01*
X32072Y476758D01*
X32218Y477123D01*
X32373Y477484D01*
X32536Y477841D01*
X32708Y478194D01*
X32889Y478542D01*
X33079Y478886D01*
X33276Y479226D01*
X33482Y479560D01*
X33696Y479889D01*
X33919Y480213D01*
X34149Y480531D01*
X34386Y480844D01*
X34632Y481150D01*
X34885Y481451D01*
X35145Y481745D01*
X35412Y482033D01*
X35686Y482314D01*
X35967Y482588D01*
X36255Y482855D01*
X36549Y483115D01*
X36850Y483368D01*
X37156Y483614D01*
X37469Y483851D01*
X37787Y484081D01*
X38111Y484304D01*
X38440Y484518D01*
X38774Y484724D01*
X39114Y484921D01*
X39458Y485111D01*
X39806Y485292D01*
X40159Y485464D01*
X40516Y485627D01*
X40877Y485782D01*
X41242Y485928D01*
X41610Y486065D01*
X41981Y486192D01*
X42355Y486311D01*
X42733Y486420D01*
X43112Y486521D01*
X43494Y486611D01*
X43879Y486693D01*
X44265Y486764D01*
X44652Y486827D01*
X45041Y486880D01*
X45432Y486923D01*
X45823Y486957D01*
X46215Y486981D01*
X46607Y486995D01*
X47000Y487000D01*
X47393Y486995D01*
X47785Y486981D01*
X48177Y486957D01*
X48568Y486923D01*
X48959Y486880D01*
X49348Y486827D01*
X49735Y486764D01*
X50121Y486693D01*
X50506Y486611D01*
X50888Y486521D01*
X51267Y486420D01*
X51645Y486311D01*
X52019Y486192D01*
X52390Y486065D01*
X52758Y485928D01*
X53123Y485782D01*
X53484Y485627D01*
X53841Y485464D01*
X54194Y485292D01*
X54542Y485111D01*
X54886Y484921D01*
X55226Y484724D01*
X55560Y484518D01*
X55889Y484304D01*
X56213Y484081D01*
X56531Y483851D01*
X56844Y483614D01*
X57150Y483368D01*
X57451Y483115D01*
X57745Y482855D01*
X58033Y482588D01*
X58314Y482314D01*
X58588Y482033D01*
X58855Y481745D01*
X59115Y481451D01*
X59368Y481150D01*
X59614Y480844D01*
X59851Y480531D01*
X60081Y480213D01*
X60304Y479889D01*
X60518Y479560D01*
X60724Y479226D01*
X60921Y478886D01*
X61111Y478542D01*
X61292Y478194D01*
X61464Y477841D01*
X61627Y477484D01*
X61782Y477123D01*
X61928Y476758D01*
X62065Y476390D01*
X62192Y476019D01*
X62311Y475645D01*
X62420Y475267D01*
X62521Y474888D01*
X62611Y474506D01*
X62693Y474121D01*
X62764Y473735D01*
X62827Y473348D01*
X62880Y472959D01*
X62923Y472568D01*
X62957Y472177D01*
X62981Y471785D01*
X62995Y471393D01*
X63000Y471000D01*
X62995Y470607D01*
X62981Y470215D01*
X62957Y469823D01*
X62923Y469432D01*
X62880Y469041D01*
X62827Y468652D01*
X62764Y468265D01*
X62693Y467879D01*
X62611Y467494D01*
X62521Y467112D01*
X62420Y466733D01*
X62311Y466355D01*
X62192Y465981D01*
X62065Y465610D01*
X61928Y465242D01*
X61782Y464877D01*
X61627Y464516D01*
X61464Y464159D01*
X61292Y463806D01*
X61111Y463458D01*
X60921Y463114D01*
X60724Y462774D01*
X60518Y462440D01*
X60304Y462111D01*
X60081Y461787D01*
X59851Y461469D01*
X59614Y461156D01*
X59368Y460850D01*
X59115Y460549D01*
X58855Y460255D01*
X58588Y459967D01*
X58314Y459686D01*
X58033Y459412D01*
X57745Y459145D01*
X57451Y458885D01*
X57150Y458632D01*
X56844Y458386D01*
X56531Y458149D01*
X56213Y457919D01*
X55889Y457696D01*
X55560Y457482D01*
X55226Y457276D01*
X54886Y457079D01*
X54542Y456889D01*
X54194Y456708D01*
X53841Y456536D01*
X53484Y456373D01*
X53123Y456218D01*
X52758Y456072D01*
X52390Y455935D01*
X52019Y455808D01*
X51645Y455689D01*
X51267Y455580D01*
X50888Y455479D01*
X50506Y455389D01*
X50121Y455307D01*
X49735Y455236D01*
X49348Y455173D01*
X48959Y455120D01*
X48568Y455077D01*
X48177Y455043D01*
X47785Y455019D01*
X47393Y455005D01*
X47000Y455000D01*
X46607Y455005D01*
X46215Y455019D01*
X45823Y455043D01*
X45432Y455077D01*
X45041Y455120D01*
X44652Y455173D01*
X44265Y455236D01*
X43879Y455307D01*
X43494Y455389D01*
X43112Y455479D01*
X42733Y455580D01*
X42355Y455689D01*
X41981Y455808D01*
X41610Y455935D01*
X41242Y456072D01*
X40877Y456218D01*
X40516Y456373D01*
X40159Y456536D01*
X39806Y456708D01*
X39458Y456889D01*
X39114Y457079D01*
X38774Y457276D01*
X38440Y457482D01*
X38111Y457696D01*
X37787Y457919D01*
X37469Y458149D01*
X37156Y458386D01*
X36850Y458632D01*
X36549Y458885D01*
X36255Y459145D01*
X35967Y459412D01*
X35686Y459686D01*
X35412Y459967D01*
X35145Y460255D01*
X34885Y460549D01*
X34632Y460850D01*
X34386Y461156D01*
X34149Y461469D01*
X33919Y461787D01*
X33696Y462111D01*
X33482Y462440D01*
X33276Y462774D01*
X33079Y463114D01*
X32889Y463458D01*
X32708Y463806D01*
X32536Y464159D01*
X32373Y464516D01*
X32218Y464877D01*
X32072Y465242D01*
X31935Y465610D01*
X31808Y465981D01*
X31689Y466355D01*
X31580Y466733D01*
X31479Y467112D01*
X31389Y467494D01*
X31307Y467879D01*
X31236Y468265D01*
X31173Y468652D01*
X31120Y469041D01*
X31077Y469432D01*
X31043Y469823D01*
X31019Y470215D01*
X31005Y470607D01*
X31000Y471000D01*
X153000Y88000D02*
X153005Y88393D01*
X153019Y88785D01*
X153043Y89177D01*
X153077Y89568D01*
X153120Y89959D01*
X153173Y90348D01*
X153236Y90735D01*
X153307Y91121D01*
X153389Y91506D01*
X153479Y91888D01*
X153580Y92267D01*
X153689Y92645D01*
X153808Y93019D01*
X153935Y93390D01*
X154072Y93758D01*
X154218Y94123D01*
X154373Y94484D01*
X154536Y94841D01*
X154708Y95194D01*
X154889Y95542D01*
X155079Y95886D01*
X155276Y96226D01*
X155482Y96560D01*
X155696Y96889D01*
X155919Y97213D01*
X156149Y97531D01*
X156386Y97844D01*
X156632Y98150D01*
X156885Y98451D01*
X157145Y98745D01*
X157412Y99033D01*
X157686Y99314D01*
X157967Y99588D01*
X158255Y99855D01*
X158549Y100115D01*
X158850Y100368D01*
X159156Y100614D01*
X159469Y100851D01*
X159787Y101081D01*
X160111Y101304D01*
X160440Y101518D01*
X160774Y101724D01*
X161114Y101921D01*
X161458Y102111D01*
X161806Y102292D01*
X162159Y102464D01*
X162516Y102627D01*
X162877Y102782D01*
X163242Y102928D01*
X163610Y103065D01*
X163981Y103192D01*
X164355Y103311D01*
X164733Y103420D01*
X165112Y103521D01*
X165494Y103611D01*
X165879Y103693D01*
X166265Y103764D01*
X166652Y103827D01*
X167041Y103880D01*
X167432Y103923D01*
X167823Y103957D01*
X168215Y103981D01*
X168607Y103995D01*
X169000Y104000D01*
X169393Y103995D01*
X169785Y103981D01*
X170177Y103957D01*
X170568Y103923D01*
X170959Y103880D01*
X171348Y103827D01*
X171735Y103764D01*
X172121Y103693D01*
X172506Y103611D01*
X172888Y103521D01*
X173267Y103420D01*
X173645Y103311D01*
X174019Y103192D01*
X174390Y103065D01*
X174758Y102928D01*
X175123Y102782D01*
X175484Y102627D01*
X175841Y102464D01*
X176194Y102292D01*
X176542Y102111D01*
X176886Y101921D01*
X177226Y101724D01*
X177560Y101518D01*
X177889Y101304D01*
X178213Y101081D01*
X178531Y100851D01*
X178844Y100614D01*
X179150Y100368D01*
X179451Y100115D01*
X179745Y99855D01*
X180033Y99588D01*
X180314Y99314D01*
X180588Y99033D01*
X180855Y98745D01*
X181115Y98451D01*
X181368Y98150D01*
X181614Y97844D01*
X181851Y97531D01*
X182081Y97213D01*
X182304Y96889D01*
X182518Y96560D01*
X182724Y96226D01*
X182921Y95886D01*
X183111Y95542D01*
X183292Y95194D01*
X183464Y94841D01*
X183627Y94484D01*
X183782Y94123D01*
X183928Y93758D01*
X184065Y93390D01*
X184192Y93019D01*
X184311Y92645D01*
X184420Y92267D01*
X184521Y91888D01*
X184611Y91506D01*
X184693Y91121D01*
X184764Y90735D01*
X184827Y90348D01*
X184880Y89959D01*
X184923Y89568D01*
X184957Y89177D01*
X184981Y88785D01*
X184995Y88393D01*
X185000Y88000D01*
X184995Y87607D01*
X184981Y87215D01*
X184957Y86823D01*
X184923Y86432D01*
X184880Y86041D01*
X184827Y85652D01*
X184764Y85265D01*
X184693Y84879D01*
X184611Y84494D01*
X184521Y84112D01*
X184420Y83733D01*
X184311Y83355D01*
X184192Y82981D01*
X184065Y82610D01*
X183928Y82242D01*
X183782Y81877D01*
X183627Y81516D01*
X183464Y81159D01*
X183292Y80806D01*
X183111Y80458D01*
X182921Y80114D01*
X182724Y79774D01*
X182518Y79440D01*
X182304Y79111D01*
X182081Y78787D01*
X181851Y78469D01*
X181614Y78156D01*
X181368Y77850D01*
X181115Y77549D01*
X180855Y77255D01*
X180588Y76967D01*
X180314Y76686D01*
X180033Y76412D01*
X179745Y76145D01*
X179451Y75885D01*
X179150Y75632D01*
X178844Y75386D01*
X178531Y75149D01*
X178213Y74919D01*
X177889Y74696D01*
X177560Y74482D01*
X177226Y74276D01*
X176886Y74079D01*
X176542Y73889D01*
X176194Y73708D01*
X175841Y73536D01*
X175484Y73373D01*
X175123Y73218D01*
X174758Y73072D01*
X174390Y72935D01*
X174019Y72808D01*
X173645Y72689D01*
X173267Y72580D01*
X172888Y72479D01*
X172506Y72389D01*
X172121Y72307D01*
X171735Y72236D01*
X171348Y72173D01*
X170959Y72120D01*
X170568Y72077D01*
X170177Y72043D01*
X169785Y72019D01*
X169393Y72005D01*
X169000Y72000D01*
X168607Y72005D01*
X168215Y72019D01*
X167823Y72043D01*
X167432Y72077D01*
X167041Y72120D01*
X166652Y72173D01*
X166265Y72236D01*
X165879Y72307D01*
X165494Y72389D01*
X165112Y72479D01*
X164733Y72580D01*
X164355Y72689D01*
X163981Y72808D01*
X163610Y72935D01*
X163242Y73072D01*
X162877Y73218D01*
X162516Y73373D01*
X162159Y73536D01*
X161806Y73708D01*
X161458Y73889D01*
X161114Y74079D01*
X160774Y74276D01*
X160440Y74482D01*
X160111Y74696D01*
X159787Y74919D01*
X159469Y75149D01*
X159156Y75386D01*
X158850Y75632D01*
X158549Y75885D01*
X158255Y76145D01*
X157967Y76412D01*
X157686Y76686D01*
X157412Y76967D01*
X157145Y77255D01*
X156885Y77549D01*
X156632Y77850D01*
X156386Y78156D01*
X156149Y78469D01*
X155919Y78787D01*
X155696Y79111D01*
X155482Y79440D01*
X155276Y79774D01*
X155079Y80114D01*
X154889Y80458D01*
X154708Y80806D01*
X154536Y81159D01*
X154373Y81516D01*
X154218Y81877D01*
X154072Y82242D01*
X153935Y82610D01*
X153808Y82981D01*
X153689Y83355D01*
X153580Y83733D01*
X153479Y84112D01*
X153389Y84494D01*
X153307Y84879D01*
X153236Y85265D01*
X153173Y85652D01*
X153120Y86041D01*
X153077Y86432D01*
X153043Y86823D01*
X153019Y87215D01*
X153005Y87607D01*
X153000Y88000D01*
X232000Y263000D02*
X232005Y263393D01*
X232019Y263785D01*
X232043Y264177D01*
X232077Y264568D01*
X232120Y264959D01*
X232173Y265348D01*
X232236Y265735D01*
X232307Y266121D01*
X232389Y266506D01*
X232479Y266888D01*
X232580Y267267D01*
X232689Y267645D01*
X232808Y268019D01*
X232935Y268390D01*
X233072Y268758D01*
X233218Y269123D01*
X233373Y269484D01*
X233536Y269841D01*
X233708Y270194D01*
X233889Y270542D01*
X234079Y270886D01*
X234276Y271226D01*
X234482Y271560D01*
X234696Y271889D01*
X234919Y272213D01*
X235149Y272531D01*
X235386Y272844D01*
X235632Y273150D01*
X235885Y273451D01*
X236145Y273745D01*
X236412Y274033D01*
X236686Y274314D01*
X236967Y274588D01*
X237255Y274855D01*
X237549Y275115D01*
X237850Y275368D01*
X238156Y275614D01*
X238469Y275851D01*
X238787Y276081D01*
X239111Y276304D01*
X239440Y276518D01*
X239774Y276724D01*
X240114Y276921D01*
X240458Y277111D01*
X240806Y277292D01*
X241159Y277464D01*
X241516Y277627D01*
X241877Y277782D01*
X242242Y277928D01*
X242610Y278065D01*
X242981Y278192D01*
X243355Y278311D01*
X243733Y278420D01*
X244112Y278521D01*
X244494Y278611D01*
X244879Y278693D01*
X245265Y278764D01*
X245652Y278827D01*
X246041Y278880D01*
X246432Y278923D01*
X246823Y278957D01*
X247215Y278981D01*
X247607Y278995D01*
X248000Y279000D01*
X248393Y278995D01*
X248785Y278981D01*
X249177Y278957D01*
X249568Y278923D01*
X249959Y278880D01*
X250348Y278827D01*
X250735Y278764D01*
X251121Y278693D01*
X251506Y278611D01*
X251888Y278521D01*
X252267Y278420D01*
X252645Y278311D01*
X253019Y278192D01*
X253390Y278065D01*
X253758Y277928D01*
X254123Y277782D01*
X254484Y277627D01*
X254841Y277464D01*
X255194Y277292D01*
X255542Y277111D01*
X255886Y276921D01*
X256226Y276724D01*
X256560Y276518D01*
X256889Y276304D01*
X257213Y276081D01*
X257531Y275851D01*
X257844Y275614D01*
X258150Y275368D01*
X258451Y275115D01*
X258745Y274855D01*
X259033Y274588D01*
X259314Y274314D01*
X259588Y274033D01*
X259855Y273745D01*
X260115Y273451D01*
X260368Y273150D01*
X260614Y272844D01*
X260851Y272531D01*
X261081Y272213D01*
X261304Y271889D01*
X261518Y271560D01*
X261724Y271226D01*
X261921Y270886D01*
X262111Y270542D01*
X262292Y270194D01*
X262464Y269841D01*
X262627Y269484D01*
X262782Y269123D01*
X262928Y268758D01*
X263065Y268390D01*
X263192Y268019D01*
X263311Y267645D01*
X263420Y267267D01*
X263521Y266888D01*
X263611Y266506D01*
X263693Y266121D01*
X263764Y265735D01*
X263827Y265348D01*
X263880Y264959D01*
X263923Y264568D01*
X263957Y264177D01*
X263981Y263785D01*
X263995Y263393D01*
X264000Y263000D01*
X263995Y262607D01*
X263981Y262215D01*
X263957Y261823D01*
X263923Y261432D01*
X263880Y261041D01*
X263827Y260652D01*
X263764Y260265D01*
X263693Y259879D01*
X263611Y259494D01*
X263521Y259112D01*
X263420Y258733D01*
X263311Y258355D01*
X263192Y257981D01*
X263065Y257610D01*
X262928Y257242D01*
X262782Y256877D01*
X262627Y256516D01*
X262464Y256159D01*
X262292Y255806D01*
X262111Y255458D01*
X261921Y255114D01*
X261724Y254774D01*
X261518Y254440D01*
X261304Y254111D01*
X261081Y253787D01*
X260851Y253469D01*
X260614Y253156D01*
X260368Y252850D01*
X260115Y252549D01*
X259855Y252255D01*
X259588Y251967D01*
X259314Y251686D01*
X259033Y251412D01*
X258745Y251145D01*
X258451Y250885D01*
X258150Y250632D01*
X257844Y250386D01*
X257531Y250149D01*
X257213Y249919D01*
X256889Y249696D01*
X256560Y249482D01*
X256226Y249276D01*
X255886Y249079D01*
X255542Y248889D01*
X255194Y248708D01*
X254841Y248536D01*
X254484Y248373D01*
X254123Y248218D01*
X253758Y248072D01*
X253390Y247935D01*
X253019Y247808D01*
X252645Y247689D01*
X252267Y247580D01*
X251888Y247479D01*
X251506Y247389D01*
X251121Y247307D01*
X250735Y247236D01*
X250348Y247173D01*
X249959Y247120D01*
X249568Y247077D01*
X249177Y247043D01*
X248785Y247019D01*
X248393Y247005D01*
X248000Y247000D01*
X247607Y247005D01*
X247215Y247019D01*
X246823Y247043D01*
X246432Y247077D01*
X246041Y247120D01*
X245652Y247173D01*
X245265Y247236D01*
X244879Y247307D01*
X244494Y247389D01*
X244112Y247479D01*
X243733Y247580D01*
X243355Y247689D01*
X242981Y247808D01*
X242610Y247935D01*
X242242Y248072D01*
X241877Y248218D01*
X241516Y248373D01*
X241159Y248536D01*
X240806Y248708D01*
X240458Y248889D01*
X240114Y249079D01*
X239774Y249276D01*
X239440Y249482D01*
X239111Y249696D01*
X238787Y249919D01*
X238469Y250149D01*
X238156Y250386D01*
X237850Y250632D01*
X237549Y250885D01*
X237255Y251145D01*
X236967Y251412D01*
X236686Y251686D01*
X236412Y251967D01*
X236145Y252255D01*
X235885Y252549D01*
X235632Y252850D01*
X235386Y253156D01*
X235149Y253469D01*
X234919Y253787D01*
X234696Y254111D01*
X234482Y254440D01*
X234276Y254774D01*
X234079Y255114D01*
X233889Y255458D01*
X233708Y255806D01*
X233536Y256159D01*
X233373Y256516D01*
X233218Y256877D01*
X233072Y257242D01*
X232935Y257610D01*
X232808Y257981D01*
X232689Y258355D01*
X232580Y258733D01*
X232479Y259112D01*
X232389Y259494D01*
X232307Y259879D01*
X232236Y260265D01*
X232173Y260652D01*
X232120Y261041D01*
X232077Y261432D01*
X232043Y261823D01*
X232019Y262215D01*
X232005Y262607D01*
X232000Y263000D01*
D13*
X81530Y33900D03*
X120070Y33900D03*
X120070Y15900D03*
X81530Y15900D03*
D10*
X262500Y83000D02*
X262502Y82883D01*
X262508Y82766D01*
X262518Y82650D01*
X262531Y82533D01*
X262549Y82418D01*
X262570Y82303D01*
X262595Y82189D01*
X262624Y82075D01*
X262657Y81963D01*
X262694Y81852D01*
X262734Y81742D01*
X262778Y81634D01*
X262825Y81527D01*
X262876Y81421D01*
X262931Y81318D01*
X262989Y81216D01*
X263050Y81117D01*
X263114Y81019D01*
X263182Y80924D01*
X263253Y80831D01*
X263327Y80740D01*
X263404Y80652D01*
X263484Y80567D01*
X263567Y80484D01*
X263652Y80404D01*
X263740Y80327D01*
X263831Y80253D01*
X263924Y80182D01*
X264019Y80114D01*
X264117Y80050D01*
X264216Y79989D01*
X264318Y79931D01*
X264421Y79876D01*
X264527Y79825D01*
X264634Y79778D01*
X264742Y79734D01*
X264852Y79694D01*
X264963Y79657D01*
X265075Y79624D01*
X265189Y79595D01*
X265303Y79570D01*
X265418Y79549D01*
X265533Y79531D01*
X265650Y79518D01*
X265766Y79508D01*
X265883Y79502D01*
X266000Y79500D01*
X262500Y83000D02*
X262500Y85000D01*
X262502Y85117D01*
X262508Y85234D01*
X262518Y85350D01*
X262531Y85467D01*
X262549Y85582D01*
X262570Y85697D01*
X262595Y85811D01*
X262624Y85925D01*
X262657Y86037D01*
X262694Y86148D01*
X262734Y86258D01*
X262778Y86366D01*
X262825Y86473D01*
X262876Y86579D01*
X262931Y86682D01*
X262989Y86784D01*
X263050Y86883D01*
X263114Y86981D01*
X263182Y87076D01*
X263253Y87169D01*
X263327Y87260D01*
X263404Y87348D01*
X263484Y87433D01*
X263567Y87516D01*
X263652Y87596D01*
X263740Y87673D01*
X263831Y87747D01*
X263924Y87818D01*
X264019Y87886D01*
X264117Y87950D01*
X264216Y88011D01*
X264318Y88069D01*
X264421Y88124D01*
X264527Y88175D01*
X264634Y88222D01*
X264742Y88266D01*
X264852Y88306D01*
X264963Y88343D01*
X265075Y88376D01*
X265189Y88405D01*
X265303Y88430D01*
X265418Y88451D01*
X265533Y88469D01*
X265650Y88482D01*
X265766Y88492D01*
X265883Y88498D01*
X266000Y88500D01*
X271500Y88500D01*
X271620Y88506D01*
X271741Y88508D01*
X271861Y88506D01*
X271982Y88501D01*
X272102Y88492D01*
X272221Y88478D01*
X272341Y88461D01*
X272459Y88440D01*
X272577Y88416D01*
X272694Y88387D01*
X272810Y88355D01*
X272925Y88319D01*
X273039Y88280D01*
X273152Y88237D01*
X273263Y88190D01*
X273372Y88140D01*
X273480Y88086D01*
X273586Y88029D01*
X273690Y87968D01*
X273792Y87905D01*
X273892Y87837D01*
X273990Y87767D01*
X274086Y87694D01*
X274179Y87617D01*
X274270Y87538D01*
X274358Y87456D01*
X274443Y87371D01*
X274526Y87283D01*
X274606Y87193D01*
X274682Y87100D01*
X274756Y87005D01*
X274827Y86908D01*
X274894Y86808D01*
X274959Y86706D01*
X275020Y86602D01*
X275078Y86496D01*
X275132Y86389D01*
X275183Y86280D01*
X275230Y86169D01*
X275274Y86057D01*
X275314Y85943D01*
X275350Y85828D01*
X275383Y85712D01*
X275412Y85595D01*
X275437Y85477D01*
X275458Y85359D01*
X275476Y85240D01*
X275490Y85120D01*
X275500Y85000D01*
X275500Y83000D01*
X275490Y82880D01*
X275476Y82760D01*
X275458Y82641D01*
X275437Y82523D01*
X275412Y82405D01*
X275383Y82288D01*
X275350Y82172D01*
X275314Y82057D01*
X275274Y81943D01*
X275230Y81831D01*
X275183Y81720D01*
X275132Y81611D01*
X275078Y81504D01*
X275020Y81398D01*
X274959Y81294D01*
X274894Y81192D01*
X274827Y81092D01*
X274756Y80995D01*
X274682Y80900D01*
X274606Y80807D01*
X274526Y80717D01*
X274443Y80629D01*
X274358Y80544D01*
X274270Y80462D01*
X274179Y80383D01*
X274086Y80306D01*
X273990Y80233D01*
X273892Y80163D01*
X273792Y80095D01*
X273690Y80032D01*
X273586Y79971D01*
X273480Y79914D01*
X273372Y79860D01*
X273263Y79810D01*
X273152Y79763D01*
X273039Y79720D01*
X272925Y79681D01*
X272810Y79645D01*
X272694Y79613D01*
X272577Y79584D01*
X272459Y79560D01*
X272341Y79539D01*
X272221Y79522D01*
X272102Y79508D01*
X271982Y79499D01*
X271861Y79494D01*
X271741Y79492D01*
X271620Y79494D01*
X271500Y79500D01*
X266000Y79500D01*
X275500Y156000D02*
X275513Y156123D01*
X275523Y156247D01*
X275529Y156371D01*
X275531Y156495D01*
X275529Y156619D01*
X275524Y156744D01*
X275514Y156867D01*
X275501Y156991D01*
X275484Y157114D01*
X275463Y157236D01*
X275439Y157358D01*
X275410Y157479D01*
X275378Y157599D01*
X275343Y157718D01*
X275303Y157835D01*
X275260Y157952D01*
X275214Y158067D01*
X275164Y158181D01*
X275110Y158293D01*
X275054Y158403D01*
X274993Y158511D01*
X274930Y158618D01*
X274863Y158723D01*
X274793Y158825D01*
X274720Y158926D01*
X274643Y159024D01*
X274564Y159119D01*
X274482Y159212D01*
X274397Y159303D01*
X274309Y159391D01*
X274219Y159476D01*
X274126Y159558D01*
X274031Y159638D01*
X273933Y159714D01*
X273833Y159787D01*
X273730Y159858D01*
X273626Y159925D01*
X273520Y159989D01*
X273411Y160049D01*
X273301Y160106D01*
X273189Y160160D01*
X273076Y160210D01*
X272961Y160257D01*
X272844Y160300D01*
X272726Y160340D01*
X272608Y160376D01*
X272488Y160408D01*
X272367Y160437D01*
X272245Y160462D01*
X272123Y160483D01*
X272000Y160500D01*
X275500Y156000D02*
X275513Y155877D01*
X275523Y155753D01*
X275529Y155629D01*
X275531Y155505D01*
X275529Y155381D01*
X275524Y155256D01*
X275514Y155133D01*
X275501Y155009D01*
X275484Y154886D01*
X275463Y154764D01*
X275439Y154642D01*
X275410Y154521D01*
X275378Y154401D01*
X275343Y154282D01*
X275303Y154165D01*
X275260Y154048D01*
X275214Y153933D01*
X275164Y153819D01*
X275110Y153707D01*
X275054Y153597D01*
X274993Y153489D01*
X274930Y153382D01*
X274863Y153277D01*
X274793Y153175D01*
X274720Y153074D01*
X274643Y152976D01*
X274564Y152881D01*
X274482Y152788D01*
X274397Y152697D01*
X274309Y152609D01*
X274219Y152524D01*
X274126Y152442D01*
X274031Y152362D01*
X273933Y152286D01*
X273833Y152213D01*
X273730Y152142D01*
X273626Y152075D01*
X273520Y152011D01*
X273411Y151951D01*
X273301Y151894D01*
X273189Y151840D01*
X273076Y151790D01*
X272961Y151743D01*
X272844Y151700D01*
X272726Y151660D01*
X272608Y151624D01*
X272488Y151592D01*
X272367Y151563D01*
X272245Y151538D01*
X272123Y151517D01*
X272000Y151500D01*
X272000Y160500D02*
X266000Y160500D01*
X265875Y160482D01*
X265750Y160461D01*
X265626Y160435D01*
X265503Y160406D01*
X265380Y160372D01*
X265259Y160335D01*
X265140Y160294D01*
X265021Y160250D01*
X264904Y160202D01*
X264788Y160150D01*
X264675Y160094D01*
X264563Y160035D01*
X264453Y159972D01*
X264345Y159906D01*
X264239Y159837D01*
X264135Y159764D01*
X264034Y159688D01*
X263935Y159609D01*
X263838Y159527D01*
X263744Y159442D01*
X263653Y159354D01*
X263565Y159263D01*
X263480Y159170D01*
X263397Y159074D01*
X263318Y158975D01*
X263242Y158874D01*
X263169Y158770D01*
X263099Y158664D01*
X263033Y158556D01*
X262970Y158447D01*
X262911Y158335D01*
X262855Y158221D01*
X262803Y158106D01*
X262754Y157989D01*
X262709Y157870D01*
X262668Y157751D01*
X262631Y157630D01*
X262597Y157508D01*
X262567Y157384D01*
X262541Y157261D01*
X262519Y157136D01*
X262501Y157010D01*
X262487Y156885D01*
X262477Y156758D01*
X262471Y156632D01*
X262469Y156505D01*
X262471Y156379D01*
X262477Y156252D01*
X262486Y156126D01*
X262500Y156000D01*
X262486Y155874D01*
X262477Y155748D01*
X262471Y155621D01*
X262469Y155495D01*
X262471Y155368D01*
X262477Y155242D01*
X262487Y155115D01*
X262501Y154990D01*
X262519Y154864D01*
X262541Y154739D01*
X262567Y154616D01*
X262597Y154492D01*
X262631Y154370D01*
X262668Y154249D01*
X262709Y154130D01*
X262754Y154011D01*
X262803Y153894D01*
X262855Y153779D01*
X262911Y153665D01*
X262970Y153553D01*
X263033Y153444D01*
X263099Y153336D01*
X263169Y153230D01*
X263242Y153126D01*
X263318Y153025D01*
X263397Y152926D01*
X263480Y152830D01*
X263565Y152737D01*
X263653Y152646D01*
X263744Y152558D01*
X263838Y152473D01*
X263935Y152391D01*
X264034Y152312D01*
X264135Y152236D01*
X264239Y152163D01*
X264345Y152094D01*
X264453Y152028D01*
X264563Y151965D01*
X264675Y151906D01*
X264788Y151850D01*
X264904Y151798D01*
X265021Y151750D01*
X265140Y151706D01*
X265259Y151665D01*
X265380Y151628D01*
X265503Y151594D01*
X265626Y151565D01*
X265750Y151539D01*
X265875Y151518D01*
X266000Y151500D01*
X272000Y151500D01*
X246500Y100500D02*
X246502Y100618D01*
X246508Y100736D01*
X246518Y100854D01*
X246532Y100971D01*
X246550Y101088D01*
X246572Y101205D01*
X246597Y101320D01*
X246627Y101434D01*
X246661Y101548D01*
X246698Y101660D01*
X246739Y101771D01*
X246784Y101880D01*
X246832Y101988D01*
X246884Y102094D01*
X246940Y102199D01*
X246999Y102301D01*
X247061Y102401D01*
X247127Y102499D01*
X247196Y102595D01*
X247269Y102689D01*
X247344Y102780D01*
X247423Y102868D01*
X247504Y102954D01*
X247589Y103037D01*
X247676Y103117D01*
X247765Y103194D01*
X247858Y103268D01*
X247952Y103338D01*
X248049Y103406D01*
X248149Y103470D01*
X248250Y103531D01*
X248353Y103588D01*
X248459Y103642D01*
X248566Y103693D01*
X248674Y103739D01*
X248784Y103782D01*
X248896Y103821D01*
X249009Y103857D01*
X249123Y103888D01*
X249238Y103916D01*
X249353Y103940D01*
X249470Y103960D01*
X249587Y103976D01*
X249705Y103988D01*
X249823Y103996D01*
X249941Y104000D01*
X250059Y104000D01*
X250177Y103996D01*
X250295Y103988D01*
X250413Y103976D01*
X250530Y103960D01*
X250647Y103940D01*
X250762Y103916D01*
X250877Y103888D01*
X250991Y103857D01*
X251104Y103821D01*
X251216Y103782D01*
X251326Y103739D01*
X251434Y103693D01*
X251541Y103642D01*
X251647Y103588D01*
X251750Y103531D01*
X251851Y103470D01*
X251951Y103406D01*
X252048Y103338D01*
X252142Y103268D01*
X252235Y103194D01*
X252324Y103117D01*
X252411Y103037D01*
X252496Y102954D01*
X252577Y102868D01*
X252656Y102780D01*
X252731Y102689D01*
X252804Y102595D01*
X252873Y102499D01*
X252939Y102401D01*
X253001Y102301D01*
X253060Y102199D01*
X253116Y102094D01*
X253168Y101988D01*
X253216Y101880D01*
X253261Y101771D01*
X253302Y101660D01*
X253339Y101548D01*
X253373Y101434D01*
X253403Y101320D01*
X253428Y101205D01*
X253450Y101088D01*
X253468Y100971D01*
X253482Y100854D01*
X253492Y100736D01*
X253498Y100618D01*
X253500Y100500D01*
X253498Y100382D01*
X253492Y100264D01*
X253482Y100146D01*
X253468Y100029D01*
X253450Y99912D01*
X253428Y99795D01*
X253403Y99680D01*
X253373Y99566D01*
X253339Y99452D01*
X253302Y99340D01*
X253261Y99229D01*
X253216Y99120D01*
X253168Y99012D01*
X253116Y98906D01*
X253060Y98801D01*
X253001Y98699D01*
X252939Y98599D01*
X252873Y98501D01*
X252804Y98405D01*
X252731Y98311D01*
X252656Y98220D01*
X252577Y98132D01*
X252496Y98046D01*
X252411Y97963D01*
X252324Y97883D01*
X252235Y97806D01*
X252142Y97732D01*
X252048Y97662D01*
X251951Y97594D01*
X251851Y97530D01*
X251750Y97469D01*
X251647Y97412D01*
X251541Y97358D01*
X251434Y97307D01*
X251326Y97261D01*
X251216Y97218D01*
X251104Y97179D01*
X250991Y97143D01*
X250877Y97112D01*
X250762Y97084D01*
X250647Y97060D01*
X250530Y97040D01*
X250413Y97024D01*
X250295Y97012D01*
X250177Y97004D01*
X250059Y97000D01*
X249941Y97000D01*
X249823Y97004D01*
X249705Y97012D01*
X249587Y97024D01*
X249470Y97040D01*
X249353Y97060D01*
X249238Y97084D01*
X249123Y97112D01*
X249009Y97143D01*
X248896Y97179D01*
X248784Y97218D01*
X248674Y97261D01*
X248566Y97307D01*
X248459Y97358D01*
X248353Y97412D01*
X248250Y97469D01*
X248149Y97530D01*
X248049Y97594D01*
X247952Y97662D01*
X247858Y97732D01*
X247765Y97806D01*
X247676Y97883D01*
X247589Y97963D01*
X247504Y98046D01*
X247423Y98132D01*
X247344Y98220D01*
X247269Y98311D01*
X247196Y98405D01*
X247127Y98501D01*
X247061Y98599D01*
X246999Y98699D01*
X246940Y98801D01*
X246884Y98906D01*
X246832Y99012D01*
X246784Y99120D01*
X246739Y99229D01*
X246698Y99340D01*
X246661Y99452D01*
X246627Y99566D01*
X246597Y99680D01*
X246572Y99795D01*
X246550Y99912D01*
X246532Y100029D01*
X246518Y100146D01*
X246508Y100264D01*
X246502Y100382D01*
X246500Y100500D01*
X246500Y139500D02*
X246502Y139618D01*
X246508Y139736D01*
X246518Y139854D01*
X246532Y139971D01*
X246550Y140088D01*
X246572Y140205D01*
X246597Y140320D01*
X246627Y140434D01*
X246661Y140548D01*
X246698Y140660D01*
X246739Y140771D01*
X246784Y140880D01*
X246832Y140988D01*
X246884Y141094D01*
X246940Y141199D01*
X246999Y141301D01*
X247061Y141401D01*
X247127Y141499D01*
X247196Y141595D01*
X247269Y141689D01*
X247344Y141780D01*
X247423Y141868D01*
X247504Y141954D01*
X247589Y142037D01*
X247676Y142117D01*
X247765Y142194D01*
X247858Y142268D01*
X247952Y142338D01*
X248049Y142406D01*
X248149Y142470D01*
X248250Y142531D01*
X248353Y142588D01*
X248459Y142642D01*
X248566Y142693D01*
X248674Y142739D01*
X248784Y142782D01*
X248896Y142821D01*
X249009Y142857D01*
X249123Y142888D01*
X249238Y142916D01*
X249353Y142940D01*
X249470Y142960D01*
X249587Y142976D01*
X249705Y142988D01*
X249823Y142996D01*
X249941Y143000D01*
X250059Y143000D01*
X250177Y142996D01*
X250295Y142988D01*
X250413Y142976D01*
X250530Y142960D01*
X250647Y142940D01*
X250762Y142916D01*
X250877Y142888D01*
X250991Y142857D01*
X251104Y142821D01*
X251216Y142782D01*
X251326Y142739D01*
X251434Y142693D01*
X251541Y142642D01*
X251647Y142588D01*
X251750Y142531D01*
X251851Y142470D01*
X251951Y142406D01*
X252048Y142338D01*
X252142Y142268D01*
X252235Y142194D01*
X252324Y142117D01*
X252411Y142037D01*
X252496Y141954D01*
X252577Y141868D01*
X252656Y141780D01*
X252731Y141689D01*
X252804Y141595D01*
X252873Y141499D01*
X252939Y141401D01*
X253001Y141301D01*
X253060Y141199D01*
X253116Y141094D01*
X253168Y140988D01*
X253216Y140880D01*
X253261Y140771D01*
X253302Y140660D01*
X253339Y140548D01*
X253373Y140434D01*
X253403Y140320D01*
X253428Y140205D01*
X253450Y140088D01*
X253468Y139971D01*
X253482Y139854D01*
X253492Y139736D01*
X253498Y139618D01*
X253500Y139500D01*
X253498Y139382D01*
X253492Y139264D01*
X253482Y139146D01*
X253468Y139029D01*
X253450Y138912D01*
X253428Y138795D01*
X253403Y138680D01*
X253373Y138566D01*
X253339Y138452D01*
X253302Y138340D01*
X253261Y138229D01*
X253216Y138120D01*
X253168Y138012D01*
X253116Y137906D01*
X253060Y137801D01*
X253001Y137699D01*
X252939Y137599D01*
X252873Y137501D01*
X252804Y137405D01*
X252731Y137311D01*
X252656Y137220D01*
X252577Y137132D01*
X252496Y137046D01*
X252411Y136963D01*
X252324Y136883D01*
X252235Y136806D01*
X252142Y136732D01*
X252048Y136662D01*
X251951Y136594D01*
X251851Y136530D01*
X251750Y136469D01*
X251647Y136412D01*
X251541Y136358D01*
X251434Y136307D01*
X251326Y136261D01*
X251216Y136218D01*
X251104Y136179D01*
X250991Y136143D01*
X250877Y136112D01*
X250762Y136084D01*
X250647Y136060D01*
X250530Y136040D01*
X250413Y136024D01*
X250295Y136012D01*
X250177Y136004D01*
X250059Y136000D01*
X249941Y136000D01*
X249823Y136004D01*
X249705Y136012D01*
X249587Y136024D01*
X249470Y136040D01*
X249353Y136060D01*
X249238Y136084D01*
X249123Y136112D01*
X249009Y136143D01*
X248896Y136179D01*
X248784Y136218D01*
X248674Y136261D01*
X248566Y136307D01*
X248459Y136358D01*
X248353Y136412D01*
X248250Y136469D01*
X248149Y136530D01*
X248049Y136594D01*
X247952Y136662D01*
X247858Y136732D01*
X247765Y136806D01*
X247676Y136883D01*
X247589Y136963D01*
X247504Y137046D01*
X247423Y137132D01*
X247344Y137220D01*
X247269Y137311D01*
X247196Y137405D01*
X247127Y137501D01*
X247061Y137599D01*
X246999Y137699D01*
X246940Y137801D01*
X246884Y137906D01*
X246832Y138012D01*
X246784Y138120D01*
X246739Y138229D01*
X246698Y138340D01*
X246661Y138452D01*
X246627Y138566D01*
X246597Y138680D01*
X246572Y138795D01*
X246550Y138912D01*
X246532Y139029D01*
X246518Y139146D01*
X246508Y139264D01*
X246502Y139382D01*
X246500Y139500D01*
X20047Y412100D02*
X20049Y412240D01*
X20055Y412380D01*
X20065Y412520D01*
X20079Y412660D01*
X20097Y412799D01*
X20118Y412937D01*
X20144Y413075D01*
X20173Y413212D01*
X20207Y413348D01*
X20244Y413483D01*
X20285Y413617D01*
X20330Y413750D01*
X20378Y413882D01*
X20431Y414012D01*
X20487Y414140D01*
X20546Y414267D01*
X20609Y414392D01*
X20676Y414516D01*
X20746Y414637D01*
X20820Y414756D01*
X20896Y414874D01*
X20977Y414989D01*
X21060Y415101D01*
X21146Y415212D01*
X21236Y415319D01*
X21329Y415425D01*
X21424Y415527D01*
X21523Y415627D01*
X21624Y415724D01*
X21728Y415818D01*
X21834Y415909D01*
X21943Y415997D01*
X22055Y416082D01*
X22169Y416164D01*
X22285Y416242D01*
X22403Y416318D01*
X22524Y416389D01*
X22646Y416458D01*
X22770Y416523D01*
X22896Y416584D01*
X23024Y416642D01*
X23153Y416696D01*
X23284Y416746D01*
X23416Y416793D01*
X23550Y416836D01*
X23684Y416875D01*
X23820Y416910D01*
X23957Y416942D01*
X24094Y416969D01*
X24232Y416993D01*
X24371Y417013D01*
X24510Y417029D01*
X24650Y417041D01*
X24790Y417049D01*
X24930Y417053D01*
X25070Y417053D01*
X25210Y417049D01*
X25350Y417041D01*
X25490Y417029D01*
X25629Y417013D01*
X25768Y416993D01*
X25906Y416969D01*
X26043Y416942D01*
X26180Y416910D01*
X26316Y416875D01*
X26450Y416836D01*
X26584Y416793D01*
X26716Y416746D01*
X26847Y416696D01*
X26976Y416642D01*
X27104Y416584D01*
X27230Y416523D01*
X27354Y416458D01*
X27477Y416389D01*
X27597Y416318D01*
X27715Y416242D01*
X27831Y416164D01*
X27945Y416082D01*
X28057Y415997D01*
X28166Y415909D01*
X28272Y415818D01*
X28376Y415724D01*
X28477Y415627D01*
X28576Y415527D01*
X28671Y415425D01*
X28764Y415319D01*
X28854Y415212D01*
X28940Y415101D01*
X29023Y414989D01*
X29104Y414874D01*
X29180Y414756D01*
X29254Y414637D01*
X29324Y414516D01*
X29391Y414392D01*
X29454Y414267D01*
X29513Y414140D01*
X29569Y414012D01*
X29622Y413882D01*
X29670Y413750D01*
X29715Y413617D01*
X29756Y413483D01*
X29793Y413348D01*
X29827Y413212D01*
X29856Y413075D01*
X29882Y412937D01*
X29903Y412799D01*
X29921Y412660D01*
X29935Y412520D01*
X29945Y412380D01*
X29951Y412240D01*
X29953Y412100D01*
X29951Y411960D01*
X29945Y411820D01*
X29935Y411680D01*
X29921Y411540D01*
X29903Y411401D01*
X29882Y411263D01*
X29856Y411125D01*
X29827Y410988D01*
X29793Y410852D01*
X29756Y410717D01*
X29715Y410583D01*
X29670Y410450D01*
X29622Y410318D01*
X29569Y410188D01*
X29513Y410060D01*
X29454Y409933D01*
X29391Y409808D01*
X29324Y409684D01*
X29254Y409563D01*
X29180Y409444D01*
X29104Y409326D01*
X29023Y409211D01*
X28940Y409099D01*
X28854Y408988D01*
X28764Y408881D01*
X28671Y408775D01*
X28576Y408673D01*
X28477Y408573D01*
X28376Y408476D01*
X28272Y408382D01*
X28166Y408291D01*
X28057Y408203D01*
X27945Y408118D01*
X27831Y408036D01*
X27715Y407958D01*
X27597Y407882D01*
X27476Y407811D01*
X27354Y407742D01*
X27230Y407677D01*
X27104Y407616D01*
X26976Y407558D01*
X26847Y407504D01*
X26716Y407454D01*
X26584Y407407D01*
X26450Y407364D01*
X26316Y407325D01*
X26180Y407290D01*
X26043Y407258D01*
X25906Y407231D01*
X25768Y407207D01*
X25629Y407187D01*
X25490Y407171D01*
X25350Y407159D01*
X25210Y407151D01*
X25070Y407147D01*
X24930Y407147D01*
X24790Y407151D01*
X24650Y407159D01*
X24510Y407171D01*
X24371Y407187D01*
X24232Y407207D01*
X24094Y407231D01*
X23957Y407258D01*
X23820Y407290D01*
X23684Y407325D01*
X23550Y407364D01*
X23416Y407407D01*
X23284Y407454D01*
X23153Y407504D01*
X23024Y407558D01*
X22896Y407616D01*
X22770Y407677D01*
X22646Y407742D01*
X22523Y407811D01*
X22403Y407882D01*
X22285Y407958D01*
X22169Y408036D01*
X22055Y408118D01*
X21943Y408203D01*
X21834Y408291D01*
X21728Y408382D01*
X21624Y408476D01*
X21523Y408573D01*
X21424Y408673D01*
X21329Y408775D01*
X21236Y408881D01*
X21146Y408988D01*
X21060Y409099D01*
X20977Y409211D01*
X20896Y409326D01*
X20820Y409444D01*
X20746Y409563D01*
X20676Y409684D01*
X20609Y409808D01*
X20546Y409933D01*
X20487Y410060D01*
X20431Y410188D01*
X20378Y410318D01*
X20330Y410450D01*
X20285Y410583D01*
X20244Y410717D01*
X20207Y410852D01*
X20173Y410988D01*
X20144Y411125D01*
X20118Y411263D01*
X20097Y411401D01*
X20079Y411540D01*
X20065Y411680D01*
X20055Y411820D01*
X20049Y411960D01*
X20047Y412100D01*
X30207Y335900D02*
X30209Y336040D01*
X30215Y336180D01*
X30225Y336320D01*
X30239Y336460D01*
X30257Y336599D01*
X30278Y336737D01*
X30304Y336875D01*
X30333Y337012D01*
X30367Y337148D01*
X30404Y337283D01*
X30445Y337417D01*
X30490Y337550D01*
X30538Y337682D01*
X30591Y337812D01*
X30647Y337940D01*
X30706Y338067D01*
X30769Y338192D01*
X30836Y338316D01*
X30906Y338437D01*
X30980Y338556D01*
X31056Y338674D01*
X31137Y338789D01*
X31220Y338901D01*
X31306Y339012D01*
X31396Y339119D01*
X31489Y339225D01*
X31584Y339327D01*
X31683Y339427D01*
X31784Y339524D01*
X31888Y339618D01*
X31994Y339709D01*
X32103Y339797D01*
X32215Y339882D01*
X32329Y339964D01*
X32445Y340042D01*
X32563Y340118D01*
X32684Y340189D01*
X32806Y340258D01*
X32930Y340323D01*
X33056Y340384D01*
X33184Y340442D01*
X33313Y340496D01*
X33444Y340546D01*
X33576Y340593D01*
X33710Y340636D01*
X33844Y340675D01*
X33980Y340710D01*
X34117Y340742D01*
X34254Y340769D01*
X34392Y340793D01*
X34531Y340813D01*
X34670Y340829D01*
X34810Y340841D01*
X34950Y340849D01*
X35090Y340853D01*
X35230Y340853D01*
X35370Y340849D01*
X35510Y340841D01*
X35650Y340829D01*
X35789Y340813D01*
X35928Y340793D01*
X36066Y340769D01*
X36203Y340742D01*
X36340Y340710D01*
X36476Y340675D01*
X36610Y340636D01*
X36744Y340593D01*
X36876Y340546D01*
X37007Y340496D01*
X37136Y340442D01*
X37264Y340384D01*
X37390Y340323D01*
X37514Y340258D01*
X37637Y340189D01*
X37757Y340118D01*
X37875Y340042D01*
X37991Y339964D01*
X38105Y339882D01*
X38217Y339797D01*
X38326Y339709D01*
X38432Y339618D01*
X38536Y339524D01*
X38637Y339427D01*
X38736Y339327D01*
X38831Y339225D01*
X38924Y339119D01*
X39014Y339012D01*
X39100Y338901D01*
X39183Y338789D01*
X39264Y338674D01*
X39340Y338556D01*
X39414Y338437D01*
X39484Y338316D01*
X39551Y338192D01*
X39614Y338067D01*
X39673Y337940D01*
X39729Y337812D01*
X39782Y337682D01*
X39830Y337550D01*
X39875Y337417D01*
X39916Y337283D01*
X39953Y337148D01*
X39987Y337012D01*
X40016Y336875D01*
X40042Y336737D01*
X40063Y336599D01*
X40081Y336460D01*
X40095Y336320D01*
X40105Y336180D01*
X40111Y336040D01*
X40113Y335900D01*
X40111Y335760D01*
X40105Y335620D01*
X40095Y335480D01*
X40081Y335340D01*
X40063Y335201D01*
X40042Y335063D01*
X40016Y334925D01*
X39987Y334788D01*
X39953Y334652D01*
X39916Y334517D01*
X39875Y334383D01*
X39830Y334250D01*
X39782Y334118D01*
X39729Y333988D01*
X39673Y333860D01*
X39614Y333733D01*
X39551Y333608D01*
X39484Y333484D01*
X39414Y333363D01*
X39340Y333244D01*
X39264Y333126D01*
X39183Y333011D01*
X39100Y332899D01*
X39014Y332788D01*
X38924Y332681D01*
X38831Y332575D01*
X38736Y332473D01*
X38637Y332373D01*
X38536Y332276D01*
X38432Y332182D01*
X38326Y332091D01*
X38217Y332003D01*
X38105Y331918D01*
X37991Y331836D01*
X37875Y331758D01*
X37757Y331682D01*
X37636Y331611D01*
X37514Y331542D01*
X37390Y331477D01*
X37264Y331416D01*
X37136Y331358D01*
X37007Y331304D01*
X36876Y331254D01*
X36744Y331207D01*
X36610Y331164D01*
X36476Y331125D01*
X36340Y331090D01*
X36203Y331058D01*
X36066Y331031D01*
X35928Y331007D01*
X35789Y330987D01*
X35650Y330971D01*
X35510Y330959D01*
X35370Y330951D01*
X35230Y330947D01*
X35090Y330947D01*
X34950Y330951D01*
X34810Y330959D01*
X34670Y330971D01*
X34531Y330987D01*
X34392Y331007D01*
X34254Y331031D01*
X34117Y331058D01*
X33980Y331090D01*
X33844Y331125D01*
X33710Y331164D01*
X33576Y331207D01*
X33444Y331254D01*
X33313Y331304D01*
X33184Y331358D01*
X33056Y331416D01*
X32930Y331477D01*
X32806Y331542D01*
X32683Y331611D01*
X32563Y331682D01*
X32445Y331758D01*
X32329Y331836D01*
X32215Y331918D01*
X32103Y332003D01*
X31994Y332091D01*
X31888Y332182D01*
X31784Y332276D01*
X31683Y332373D01*
X31584Y332473D01*
X31489Y332575D01*
X31396Y332681D01*
X31306Y332788D01*
X31220Y332899D01*
X31137Y333011D01*
X31056Y333126D01*
X30980Y333244D01*
X30906Y333363D01*
X30836Y333484D01*
X30769Y333608D01*
X30706Y333733D01*
X30647Y333860D01*
X30591Y333988D01*
X30538Y334118D01*
X30490Y334250D01*
X30445Y334383D01*
X30404Y334517D01*
X30367Y334652D01*
X30333Y334788D01*
X30304Y334925D01*
X30278Y335063D01*
X30257Y335201D01*
X30239Y335340D01*
X30225Y335480D01*
X30215Y335620D01*
X30209Y335760D01*
X30207Y335900D01*
X9887Y335900D02*
X9889Y336040D01*
X9895Y336180D01*
X9905Y336320D01*
X9919Y336460D01*
X9937Y336599D01*
X9958Y336737D01*
X9984Y336875D01*
X10013Y337012D01*
X10047Y337148D01*
X10084Y337283D01*
X10125Y337417D01*
X10170Y337550D01*
X10218Y337682D01*
X10271Y337812D01*
X10327Y337940D01*
X10386Y338067D01*
X10449Y338192D01*
X10516Y338316D01*
X10586Y338437D01*
X10660Y338556D01*
X10736Y338674D01*
X10817Y338789D01*
X10900Y338901D01*
X10986Y339012D01*
X11076Y339119D01*
X11169Y339225D01*
X11264Y339327D01*
X11363Y339427D01*
X11464Y339524D01*
X11568Y339618D01*
X11674Y339709D01*
X11783Y339797D01*
X11895Y339882D01*
X12009Y339964D01*
X12125Y340042D01*
X12243Y340118D01*
X12364Y340189D01*
X12486Y340258D01*
X12610Y340323D01*
X12736Y340384D01*
X12864Y340442D01*
X12993Y340496D01*
X13124Y340546D01*
X13256Y340593D01*
X13390Y340636D01*
X13524Y340675D01*
X13660Y340710D01*
X13797Y340742D01*
X13934Y340769D01*
X14072Y340793D01*
X14211Y340813D01*
X14350Y340829D01*
X14490Y340841D01*
X14630Y340849D01*
X14770Y340853D01*
X14910Y340853D01*
X15050Y340849D01*
X15190Y340841D01*
X15330Y340829D01*
X15469Y340813D01*
X15608Y340793D01*
X15746Y340769D01*
X15883Y340742D01*
X16020Y340710D01*
X16156Y340675D01*
X16290Y340636D01*
X16424Y340593D01*
X16556Y340546D01*
X16687Y340496D01*
X16816Y340442D01*
X16944Y340384D01*
X17070Y340323D01*
X17194Y340258D01*
X17317Y340189D01*
X17437Y340118D01*
X17555Y340042D01*
X17671Y339964D01*
X17785Y339882D01*
X17897Y339797D01*
X18006Y339709D01*
X18112Y339618D01*
X18216Y339524D01*
X18317Y339427D01*
X18416Y339327D01*
X18511Y339225D01*
X18604Y339119D01*
X18694Y339012D01*
X18780Y338901D01*
X18863Y338789D01*
X18944Y338674D01*
X19020Y338556D01*
X19094Y338437D01*
X19164Y338316D01*
X19231Y338192D01*
X19294Y338067D01*
X19353Y337940D01*
X19409Y337812D01*
X19462Y337682D01*
X19510Y337550D01*
X19555Y337417D01*
X19596Y337283D01*
X19633Y337148D01*
X19667Y337012D01*
X19696Y336875D01*
X19722Y336737D01*
X19743Y336599D01*
X19761Y336460D01*
X19775Y336320D01*
X19785Y336180D01*
X19791Y336040D01*
X19793Y335900D01*
X19791Y335760D01*
X19785Y335620D01*
X19775Y335480D01*
X19761Y335340D01*
X19743Y335201D01*
X19722Y335063D01*
X19696Y334925D01*
X19667Y334788D01*
X19633Y334652D01*
X19596Y334517D01*
X19555Y334383D01*
X19510Y334250D01*
X19462Y334118D01*
X19409Y333988D01*
X19353Y333860D01*
X19294Y333733D01*
X19231Y333608D01*
X19164Y333484D01*
X19094Y333363D01*
X19020Y333244D01*
X18944Y333126D01*
X18863Y333011D01*
X18780Y332899D01*
X18694Y332788D01*
X18604Y332681D01*
X18511Y332575D01*
X18416Y332473D01*
X18317Y332373D01*
X18216Y332276D01*
X18112Y332182D01*
X18006Y332091D01*
X17897Y332003D01*
X17785Y331918D01*
X17671Y331836D01*
X17555Y331758D01*
X17437Y331682D01*
X17316Y331611D01*
X17194Y331542D01*
X17070Y331477D01*
X16944Y331416D01*
X16816Y331358D01*
X16687Y331304D01*
X16556Y331254D01*
X16424Y331207D01*
X16290Y331164D01*
X16156Y331125D01*
X16020Y331090D01*
X15883Y331058D01*
X15746Y331031D01*
X15608Y331007D01*
X15469Y330987D01*
X15330Y330971D01*
X15190Y330959D01*
X15050Y330951D01*
X14910Y330947D01*
X14770Y330947D01*
X14630Y330951D01*
X14490Y330959D01*
X14350Y330971D01*
X14211Y330987D01*
X14072Y331007D01*
X13934Y331031D01*
X13797Y331058D01*
X13660Y331090D01*
X13524Y331125D01*
X13390Y331164D01*
X13256Y331207D01*
X13124Y331254D01*
X12993Y331304D01*
X12864Y331358D01*
X12736Y331416D01*
X12610Y331477D01*
X12486Y331542D01*
X12363Y331611D01*
X12243Y331682D01*
X12125Y331758D01*
X12009Y331836D01*
X11895Y331918D01*
X11783Y332003D01*
X11674Y332091D01*
X11568Y332182D01*
X11464Y332276D01*
X11363Y332373D01*
X11264Y332473D01*
X11169Y332575D01*
X11076Y332681D01*
X10986Y332788D01*
X10900Y332899D01*
X10817Y333011D01*
X10736Y333126D01*
X10660Y333244D01*
X10586Y333363D01*
X10516Y333484D01*
X10449Y333608D01*
X10386Y333733D01*
X10327Y333860D01*
X10271Y333988D01*
X10218Y334118D01*
X10170Y334250D01*
X10125Y334383D01*
X10084Y334517D01*
X10047Y334652D01*
X10013Y334788D01*
X9984Y334925D01*
X9958Y335063D01*
X9937Y335201D01*
X9919Y335340D01*
X9905Y335480D01*
X9895Y335620D01*
X9889Y335760D01*
X9887Y335900D01*
X279250Y200500D02*
X279252Y200638D01*
X279258Y200775D01*
X279268Y200912D01*
X279282Y201049D01*
X279300Y201185D01*
X279322Y201321D01*
X279347Y201456D01*
X279377Y201590D01*
X279410Y201724D01*
X279448Y201856D01*
X279489Y201987D01*
X279534Y202117D01*
X279583Y202246D01*
X279635Y202373D01*
X279691Y202499D01*
X279751Y202623D01*
X279814Y202745D01*
X279881Y202865D01*
X279951Y202983D01*
X280024Y203100D01*
X280101Y203214D01*
X280182Y203325D01*
X280265Y203435D01*
X280351Y203542D01*
X280441Y203646D01*
X280534Y203748D01*
X280629Y203847D01*
X280727Y203943D01*
X280828Y204036D01*
X280932Y204126D01*
X281038Y204214D01*
X281147Y204298D01*
X281258Y204379D01*
X281372Y204457D01*
X281487Y204531D01*
X281605Y204602D01*
X281725Y204670D01*
X281847Y204734D01*
X281970Y204794D01*
X282095Y204851D01*
X282222Y204905D01*
X282350Y204954D01*
X282480Y205000D01*
X282611Y205042D01*
X282743Y205081D01*
X282876Y205115D01*
X283010Y205146D01*
X283145Y205172D01*
X283281Y205195D01*
X283417Y205214D01*
X283554Y205229D01*
X283691Y205240D01*
X283828Y205247D01*
X283966Y205250D01*
X284103Y205249D01*
X284241Y205244D01*
X284378Y205235D01*
X284515Y205222D01*
X284651Y205205D01*
X284787Y205184D01*
X284922Y205160D01*
X285057Y205131D01*
X285191Y205098D01*
X285323Y205062D01*
X285455Y205022D01*
X285585Y204978D01*
X285714Y204930D01*
X285842Y204878D01*
X285968Y204823D01*
X286092Y204765D01*
X286214Y204702D01*
X286335Y204636D01*
X286454Y204567D01*
X286571Y204494D01*
X286685Y204418D01*
X286798Y204339D01*
X286908Y204256D01*
X287015Y204170D01*
X287120Y204082D01*
X287222Y203990D01*
X287322Y203895D01*
X287419Y203797D01*
X287513Y203697D01*
X287604Y203594D01*
X287692Y203488D01*
X287777Y203380D01*
X287859Y203270D01*
X287938Y203157D01*
X288013Y203042D01*
X288085Y202924D01*
X288153Y202805D01*
X288218Y202684D01*
X288280Y202561D01*
X288337Y202436D01*
X288392Y202310D01*
X288442Y202182D01*
X288489Y202053D01*
X288532Y201922D01*
X288571Y201790D01*
X288607Y201657D01*
X288638Y201523D01*
X288666Y201389D01*
X288690Y201253D01*
X288710Y201117D01*
X288726Y200981D01*
X288738Y200844D01*
X288746Y200706D01*
X288750Y200569D01*
X288750Y200431D01*
X288746Y200294D01*
X288738Y200156D01*
X288726Y200019D01*
X288710Y199883D01*
X288690Y199747D01*
X288666Y199611D01*
X288638Y199477D01*
X288607Y199343D01*
X288571Y199210D01*
X288532Y199078D01*
X288489Y198947D01*
X288442Y198818D01*
X288392Y198690D01*
X288337Y198564D01*
X288280Y198439D01*
X288218Y198316D01*
X288153Y198195D01*
X288085Y198076D01*
X288013Y197958D01*
X287938Y197843D01*
X287859Y197730D01*
X287777Y197620D01*
X287692Y197512D01*
X287604Y197406D01*
X287513Y197303D01*
X287419Y197203D01*
X287322Y197105D01*
X287222Y197010D01*
X287120Y196918D01*
X287015Y196830D01*
X286908Y196744D01*
X286798Y196661D01*
X286685Y196582D01*
X286571Y196506D01*
X286454Y196433D01*
X286335Y196364D01*
X286214Y196298D01*
X286092Y196235D01*
X285968Y196177D01*
X285842Y196122D01*
X285714Y196070D01*
X285585Y196022D01*
X285455Y195978D01*
X285323Y195938D01*
X285191Y195902D01*
X285057Y195869D01*
X284922Y195840D01*
X284787Y195816D01*
X284651Y195795D01*
X284515Y195778D01*
X284378Y195765D01*
X284241Y195756D01*
X284103Y195751D01*
X283966Y195750D01*
X283828Y195753D01*
X283691Y195760D01*
X283554Y195771D01*
X283417Y195786D01*
X283281Y195805D01*
X283145Y195828D01*
X283010Y195854D01*
X282876Y195885D01*
X282743Y195919D01*
X282611Y195958D01*
X282480Y196000D01*
X282350Y196046D01*
X282222Y196095D01*
X282095Y196149D01*
X281970Y196206D01*
X281847Y196266D01*
X281725Y196330D01*
X281605Y196398D01*
X281487Y196469D01*
X281372Y196543D01*
X281258Y196621D01*
X281147Y196702D01*
X281038Y196786D01*
X280932Y196874D01*
X280828Y196964D01*
X280727Y197057D01*
X280629Y197153D01*
X280534Y197252D01*
X280441Y197354D01*
X280351Y197458D01*
X280265Y197565D01*
X280182Y197675D01*
X280101Y197786D01*
X280024Y197900D01*
X279951Y198017D01*
X279881Y198135D01*
X279814Y198255D01*
X279751Y198377D01*
X279691Y198501D01*
X279635Y198627D01*
X279583Y198754D01*
X279534Y198883D01*
X279489Y199013D01*
X279448Y199144D01*
X279410Y199276D01*
X279377Y199410D01*
X279347Y199544D01*
X279322Y199679D01*
X279300Y199815D01*
X279282Y199951D01*
X279268Y200088D01*
X279258Y200225D01*
X279252Y200362D01*
X279250Y200500D01*
X279250Y223500D02*
X279252Y223638D01*
X279258Y223775D01*
X279268Y223912D01*
X279282Y224049D01*
X279300Y224185D01*
X279322Y224321D01*
X279347Y224456D01*
X279377Y224590D01*
X279410Y224724D01*
X279448Y224856D01*
X279489Y224987D01*
X279534Y225117D01*
X279583Y225246D01*
X279635Y225373D01*
X279691Y225499D01*
X279751Y225623D01*
X279814Y225745D01*
X279881Y225865D01*
X279951Y225983D01*
X280024Y226100D01*
X280101Y226214D01*
X280182Y226325D01*
X280265Y226435D01*
X280351Y226542D01*
X280441Y226646D01*
X280534Y226748D01*
X280629Y226847D01*
X280727Y226943D01*
X280828Y227036D01*
X280932Y227126D01*
X281038Y227214D01*
X281147Y227298D01*
X281258Y227379D01*
X281372Y227457D01*
X281487Y227531D01*
X281605Y227602D01*
X281725Y227670D01*
X281847Y227734D01*
X281970Y227794D01*
X282095Y227851D01*
X282222Y227905D01*
X282350Y227954D01*
X282480Y228000D01*
X282611Y228042D01*
X282743Y228081D01*
X282876Y228115D01*
X283010Y228146D01*
X283145Y228172D01*
X283281Y228195D01*
X283417Y228214D01*
X283554Y228229D01*
X283691Y228240D01*
X283828Y228247D01*
X283966Y228250D01*
X284103Y228249D01*
X284241Y228244D01*
X284378Y228235D01*
X284515Y228222D01*
X284651Y228205D01*
X284787Y228184D01*
X284922Y228160D01*
X285057Y228131D01*
X285191Y228098D01*
X285323Y228062D01*
X285455Y228022D01*
X285585Y227978D01*
X285714Y227930D01*
X285842Y227878D01*
X285968Y227823D01*
X286092Y227765D01*
X286214Y227702D01*
X286335Y227636D01*
X286454Y227567D01*
X286571Y227494D01*
X286685Y227418D01*
X286798Y227339D01*
X286908Y227256D01*
X287015Y227170D01*
X287120Y227082D01*
X287222Y226990D01*
X287322Y226895D01*
X287419Y226797D01*
X287513Y226697D01*
X287604Y226594D01*
X287692Y226488D01*
X287777Y226380D01*
X287859Y226270D01*
X287938Y226157D01*
X288013Y226042D01*
X288085Y225924D01*
X288153Y225805D01*
X288218Y225684D01*
X288280Y225561D01*
X288337Y225436D01*
X288392Y225310D01*
X288442Y225182D01*
X288489Y225053D01*
X288532Y224922D01*
X288571Y224790D01*
X288607Y224657D01*
X288638Y224523D01*
X288666Y224389D01*
X288690Y224253D01*
X288710Y224117D01*
X288726Y223981D01*
X288738Y223844D01*
X288746Y223706D01*
X288750Y223569D01*
X288750Y223431D01*
X288746Y223294D01*
X288738Y223156D01*
X288726Y223019D01*
X288710Y222883D01*
X288690Y222747D01*
X288666Y222611D01*
X288638Y222477D01*
X288607Y222343D01*
X288571Y222210D01*
X288532Y222078D01*
X288489Y221947D01*
X288442Y221818D01*
X288392Y221690D01*
X288337Y221564D01*
X288280Y221439D01*
X288218Y221316D01*
X288153Y221195D01*
X288085Y221076D01*
X288013Y220958D01*
X287938Y220843D01*
X287859Y220730D01*
X287777Y220620D01*
X287692Y220512D01*
X287604Y220406D01*
X287513Y220303D01*
X287419Y220203D01*
X287322Y220105D01*
X287222Y220010D01*
X287120Y219918D01*
X287015Y219830D01*
X286908Y219744D01*
X286798Y219661D01*
X286685Y219582D01*
X286571Y219506D01*
X286454Y219433D01*
X286335Y219364D01*
X286214Y219298D01*
X286092Y219235D01*
X285968Y219177D01*
X285842Y219122D01*
X285714Y219070D01*
X285585Y219022D01*
X285455Y218978D01*
X285323Y218938D01*
X285191Y218902D01*
X285057Y218869D01*
X284922Y218840D01*
X284787Y218816D01*
X284651Y218795D01*
X284515Y218778D01*
X284378Y218765D01*
X284241Y218756D01*
X284103Y218751D01*
X283966Y218750D01*
X283828Y218753D01*
X283691Y218760D01*
X283554Y218771D01*
X283417Y218786D01*
X283281Y218805D01*
X283145Y218828D01*
X283010Y218854D01*
X282876Y218885D01*
X282743Y218919D01*
X282611Y218958D01*
X282480Y219000D01*
X282350Y219046D01*
X282222Y219095D01*
X282095Y219149D01*
X281970Y219206D01*
X281847Y219266D01*
X281725Y219330D01*
X281605Y219398D01*
X281487Y219469D01*
X281372Y219543D01*
X281258Y219621D01*
X281147Y219702D01*
X281038Y219786D01*
X280932Y219874D01*
X280828Y219964D01*
X280727Y220057D01*
X280629Y220153D01*
X280534Y220252D01*
X280441Y220354D01*
X280351Y220458D01*
X280265Y220565D01*
X280182Y220675D01*
X280101Y220786D01*
X280024Y220900D01*
X279951Y221017D01*
X279881Y221135D01*
X279814Y221255D01*
X279751Y221377D01*
X279691Y221501D01*
X279635Y221627D01*
X279583Y221754D01*
X279534Y221883D01*
X279489Y222013D01*
X279448Y222144D01*
X279410Y222276D01*
X279377Y222410D01*
X279347Y222544D01*
X279322Y222679D01*
X279300Y222815D01*
X279282Y222951D01*
X279268Y223088D01*
X279258Y223225D01*
X279252Y223362D01*
X279250Y223500D01*
M02*
