M48
;GenerationSoftware,Autodesk,EAGLE,9.4.2*%
;CreationDate,2019-07-05T01:34:15Z*%
FMAT,2
ICI,OFF
METRIC,TZ,000.000
T10C0.350
T9C0.400
T8C0.500
T7C0.700
T6C0.800
T5C0.900
T4C0.950
T3C0.991
T2C1.016
T1C3.200
%
G90
M71
T1
X4700Y47100
X16900Y8800
X24800Y26300
T2
X16740Y2200
X14200Y2200
X1800Y29950
X1800Y27410
X1800Y24870
X1800Y22330
X1800Y19790
X1800Y17250
X28200Y39550
X28200Y37010
X28200Y34470
X28200Y31930
X28200Y29390
X28200Y26850
X5940Y2200
X3400Y2200
X12100Y10200
X12100Y12740
X12100Y15280
T3
X1484Y33590
X3516Y33590
X2500Y41210
T4
X28400Y22350
X28400Y20050
T5
X26900Y15600
X26900Y8400
T6
X24100Y15300
X24100Y8700
T7
X25000Y13950
X25000Y10050
T8
X24900Y700
X27700Y41900
X18200Y32000
X18700Y30700
X1800Y48700
X8900Y29700
X19300Y13300
X22600Y27500
X9000Y33400
X6900Y48900
X25100Y45700
X25100Y47400
X28800Y3700
X21900Y6600
X4400Y42000
X21500Y8700
X16700Y16200
X22800Y1900
X1100Y42200
X24400Y37200
X22100Y13100
X24700Y18300
X26100Y20500
X15600Y11600
X17900Y6100
X1400Y13800
X1400Y8800
X15600Y4700
T9
X15300Y14300
X800Y39500
X4500Y39300
X20700Y600
X20100Y2600
X15200Y19100
X14200Y15200
X18500Y29400
X4600Y37100
X16300Y27300
X15300Y17100
T10
X12600Y28000
X7200Y20700
X9500Y6600
X13400Y29800
X15700Y30700
X7700Y12100
X20900Y22600
X16500Y18400
X14300Y27200
X14900Y20600
X15600Y28900
X2200Y4900
X17700Y24300
X8200Y5100
X10000Y1800
X23500Y19000
X12500Y26000
X5900Y10293
X25800Y30500
X9100Y10500
X7400Y9700
X9100Y16100
X5600Y11100
M30