G04 EAGLE Gerber X2 export*
%TF.Part,Single*%
%TF.FileFunction,Other,Bottom layer*%
%TF.FilePolarity,Positive*%
%TF.GenerationSoftware,Autodesk,EAGLE,9.4.2*%
%TF.CreationDate,2019-07-05T01:34:15Z*%
G75*
%MOMM*%
%FSLAX34Y34*%
%LPD*%
%INBottom layer*%
%AMOC8*
5,1,8,0,0,1.08239X$1,22.5*%
G01*
%ADD10C,0.000000*%
%ADD11C,0.130000*%
%ADD12C,0.152400*%
%ADD13R,1.778000X0.762000*%
%ADD14C,1.879600*%
%ADD15C,1.308000*%
%ADD16R,2.500000X2.500000*%
%ADD17P,1.649562X8X202.500000*%
%ADD18C,0.804800*%
%ADD19C,0.704800*%
%ADD20C,0.300000*%
%ADD21C,0.654800*%
%ADD22C,0.200000*%
%ADD23C,0.400000*%

G36*
X296522Y1957D02*
X296522Y1957D01*
X296587Y1956D01*
X296661Y1976D01*
X296737Y1987D01*
X296796Y2014D01*
X296859Y2031D01*
X296924Y2071D01*
X296994Y2103D01*
X297043Y2145D01*
X297099Y2179D01*
X297150Y2236D01*
X297208Y2286D01*
X297244Y2340D01*
X297288Y2389D01*
X297321Y2458D01*
X297363Y2521D01*
X297383Y2584D01*
X297411Y2643D01*
X297422Y2711D01*
X297446Y2791D01*
X297448Y2877D01*
X297459Y2947D01*
X297360Y495867D01*
X297351Y495930D01*
X297352Y495993D01*
X297331Y496069D01*
X297320Y496146D01*
X297294Y496204D01*
X297277Y496265D01*
X297236Y496332D01*
X297204Y496403D01*
X297163Y496451D01*
X297130Y496505D01*
X297071Y496558D01*
X297020Y496618D01*
X296968Y496652D01*
X296921Y496695D01*
X296850Y496729D01*
X296784Y496772D01*
X296724Y496790D01*
X296667Y496818D01*
X296597Y496829D01*
X296515Y496854D01*
X296431Y496855D01*
X296363Y496866D01*
X3542Y497452D01*
X3477Y497443D01*
X3412Y497444D01*
X3338Y497424D01*
X3263Y497413D01*
X3203Y497386D01*
X3140Y497369D01*
X3075Y497329D01*
X3006Y497297D01*
X2956Y497255D01*
X2900Y497221D01*
X2849Y497164D01*
X2791Y497114D01*
X2755Y497060D01*
X2711Y497011D01*
X2678Y496943D01*
X2636Y496879D01*
X2617Y496816D01*
X2588Y496758D01*
X2578Y496689D01*
X2553Y496609D01*
X2552Y496523D01*
X2541Y496453D01*
X2541Y399093D01*
X2545Y399061D01*
X2543Y399029D01*
X2565Y398922D01*
X2581Y398814D01*
X2594Y398785D01*
X2600Y398753D01*
X2652Y398657D01*
X2697Y398557D01*
X2718Y398532D01*
X2733Y398504D01*
X2809Y398426D01*
X2880Y398343D01*
X2907Y398325D01*
X2930Y398302D01*
X3025Y398248D01*
X3116Y398188D01*
X3147Y398179D01*
X3175Y398163D01*
X3281Y398138D01*
X3386Y398106D01*
X3418Y398105D01*
X3449Y398098D01*
X3559Y398104D01*
X3668Y398102D01*
X3699Y398111D01*
X3731Y398112D01*
X3834Y398148D01*
X3940Y398177D01*
X3967Y398194D01*
X3998Y398205D01*
X4071Y398258D01*
X4180Y398325D01*
X4212Y398361D01*
X4247Y398387D01*
X5909Y400049D01*
X10091Y400049D01*
X13049Y397091D01*
X13049Y396524D01*
X13058Y396460D01*
X13057Y396396D01*
X13078Y396321D01*
X13089Y396245D01*
X13115Y396186D01*
X13132Y396124D01*
X13173Y396058D01*
X13205Y395988D01*
X13247Y395939D01*
X13280Y395884D01*
X13338Y395832D01*
X13388Y395774D01*
X13442Y395738D01*
X13490Y395695D01*
X13559Y395662D01*
X13624Y395619D01*
X13686Y395600D01*
X13743Y395572D01*
X13813Y395561D01*
X13894Y395537D01*
X13979Y395536D01*
X14048Y395525D01*
X39971Y395525D01*
X40066Y395538D01*
X40162Y395543D01*
X40205Y395558D01*
X40250Y395565D01*
X40338Y395604D01*
X40428Y395636D01*
X40463Y395661D01*
X40507Y395681D01*
X40604Y395764D01*
X40677Y395817D01*
X42909Y398049D01*
X47091Y398049D01*
X50049Y395091D01*
X50049Y390909D01*
X47091Y387951D01*
X42909Y387951D01*
X40677Y390183D01*
X40601Y390240D01*
X40529Y390305D01*
X40488Y390325D01*
X40452Y390352D01*
X40362Y390386D01*
X40275Y390428D01*
X40233Y390434D01*
X40188Y390451D01*
X40060Y390461D01*
X39971Y390475D01*
X11029Y390475D01*
X10934Y390462D01*
X10838Y390457D01*
X10795Y390442D01*
X10750Y390435D01*
X10662Y390396D01*
X10572Y390364D01*
X10537Y390339D01*
X10493Y390319D01*
X10396Y390236D01*
X10323Y390183D01*
X10091Y389951D01*
X5909Y389951D01*
X4247Y391613D01*
X4221Y391633D01*
X4200Y391657D01*
X4108Y391717D01*
X4021Y391783D01*
X3991Y391794D01*
X3964Y391812D01*
X3859Y391844D01*
X3757Y391882D01*
X3725Y391885D01*
X3694Y391894D01*
X3585Y391896D01*
X3476Y391904D01*
X3444Y391897D01*
X3412Y391898D01*
X3307Y391869D01*
X3200Y391846D01*
X3171Y391831D01*
X3140Y391823D01*
X3047Y391765D01*
X2951Y391714D01*
X2928Y391692D01*
X2900Y391675D01*
X2827Y391593D01*
X2749Y391517D01*
X2733Y391489D01*
X2711Y391465D01*
X2664Y391367D01*
X2610Y391272D01*
X2602Y391240D01*
X2588Y391211D01*
X2574Y391122D01*
X2545Y390997D01*
X2547Y390949D01*
X2541Y390907D01*
X2541Y3533D01*
X2550Y3470D01*
X2549Y3407D01*
X2569Y3331D01*
X2581Y3254D01*
X2607Y3196D01*
X2623Y3135D01*
X2664Y3068D01*
X2697Y2997D01*
X2738Y2949D01*
X2771Y2895D01*
X2829Y2842D01*
X2880Y2782D01*
X2933Y2748D01*
X2980Y2705D01*
X3050Y2671D01*
X3116Y2628D01*
X3177Y2610D01*
X3233Y2582D01*
X3304Y2571D01*
X3386Y2546D01*
X3469Y2545D01*
X3538Y2534D01*
X201308Y2138D01*
X201340Y2143D01*
X201374Y2140D01*
X201480Y2162D01*
X201587Y2177D01*
X201617Y2191D01*
X201650Y2198D01*
X201745Y2249D01*
X201844Y2293D01*
X201869Y2315D01*
X201899Y2330D01*
X201976Y2406D01*
X202059Y2476D01*
X202077Y2504D01*
X202101Y2527D01*
X202154Y2621D01*
X202214Y2712D01*
X202223Y2744D01*
X202240Y2772D01*
X202265Y2878D01*
X202296Y2981D01*
X202297Y3014D01*
X202305Y3047D01*
X202299Y3155D01*
X202301Y3263D01*
X202292Y3295D01*
X202290Y3329D01*
X202255Y3431D01*
X202226Y3535D01*
X202209Y3563D01*
X202198Y3595D01*
X202145Y3668D01*
X202078Y3775D01*
X202042Y3809D01*
X202016Y3844D01*
X201951Y3909D01*
X201951Y7064D01*
X201938Y7159D01*
X201933Y7255D01*
X201918Y7299D01*
X201911Y7344D01*
X201872Y7431D01*
X201840Y7522D01*
X201815Y7556D01*
X201795Y7600D01*
X201712Y7698D01*
X201659Y7771D01*
X198475Y10954D01*
X198475Y20971D01*
X198467Y21031D01*
X198467Y21061D01*
X198461Y21084D01*
X198457Y21162D01*
X198442Y21205D01*
X198435Y21250D01*
X198396Y21338D01*
X198364Y21428D01*
X198339Y21463D01*
X198319Y21507D01*
X198236Y21604D01*
X198183Y21677D01*
X195951Y23909D01*
X195951Y28091D01*
X198909Y31049D01*
X203091Y31049D01*
X206049Y28091D01*
X206049Y23909D01*
X203817Y21677D01*
X203760Y21601D01*
X203695Y21529D01*
X203675Y21488D01*
X203648Y21452D01*
X203614Y21362D01*
X203572Y21275D01*
X203566Y21233D01*
X203549Y21188D01*
X203542Y21106D01*
X203537Y21088D01*
X203536Y21044D01*
X203525Y20971D01*
X203525Y13460D01*
X203538Y13365D01*
X203543Y13269D01*
X203558Y13225D01*
X203565Y13180D01*
X203604Y13093D01*
X203636Y13002D01*
X203661Y12968D01*
X203681Y12924D01*
X203764Y12826D01*
X203817Y12753D01*
X205229Y11341D01*
X205306Y11284D01*
X205377Y11219D01*
X205418Y11199D01*
X205455Y11172D01*
X205545Y11138D01*
X205631Y11096D01*
X205673Y11090D01*
X205719Y11073D01*
X205846Y11063D01*
X205936Y11049D01*
X209091Y11049D01*
X212049Y8091D01*
X212049Y3909D01*
X211961Y3821D01*
X211942Y3796D01*
X211919Y3776D01*
X211858Y3684D01*
X211792Y3596D01*
X211781Y3566D01*
X211764Y3540D01*
X211731Y3435D01*
X211692Y3332D01*
X211690Y3301D01*
X211681Y3271D01*
X211679Y3161D01*
X211671Y3051D01*
X211677Y3020D01*
X211677Y2989D01*
X211706Y2882D01*
X211728Y2774D01*
X211743Y2747D01*
X211751Y2717D01*
X211809Y2623D01*
X211861Y2526D01*
X211882Y2503D01*
X211899Y2477D01*
X211981Y2402D01*
X212057Y2323D01*
X212085Y2308D01*
X212108Y2287D01*
X212207Y2239D01*
X212303Y2184D01*
X212333Y2177D01*
X212361Y2164D01*
X212451Y2149D01*
X212577Y2119D01*
X212625Y2122D01*
X212666Y2115D01*
X296457Y1948D01*
X296522Y1957D01*
G37*
%LPC*%
G36*
X20012Y44201D02*
X20012Y44201D01*
X17201Y47012D01*
X17201Y50988D01*
X18183Y51969D01*
X18240Y52046D01*
X18305Y52117D01*
X18325Y52158D01*
X18352Y52195D01*
X18386Y52285D01*
X18428Y52371D01*
X18434Y52413D01*
X18451Y52458D01*
X18461Y52586D01*
X18475Y52676D01*
X18475Y57460D01*
X20833Y59817D01*
X57439Y96423D01*
X57458Y96449D01*
X57483Y96470D01*
X57543Y96562D01*
X57608Y96649D01*
X57619Y96679D01*
X57637Y96706D01*
X57669Y96811D01*
X57708Y96913D01*
X57710Y96945D01*
X57719Y96976D01*
X57721Y97085D01*
X57729Y97194D01*
X57723Y97226D01*
X57723Y97258D01*
X57694Y97363D01*
X57672Y97470D01*
X57657Y97499D01*
X57648Y97530D01*
X57591Y97623D01*
X57539Y97719D01*
X57517Y97742D01*
X57500Y97770D01*
X57419Y97843D01*
X57343Y97921D01*
X57314Y97937D01*
X57291Y97959D01*
X57192Y98006D01*
X57097Y98060D01*
X57076Y98065D01*
X54201Y100940D01*
X54201Y104968D01*
X54212Y104983D01*
X54235Y105043D01*
X54267Y105099D01*
X54284Y105174D01*
X54312Y105247D01*
X54317Y105311D01*
X54332Y105373D01*
X54328Y105451D01*
X54334Y105528D01*
X54321Y105591D01*
X54317Y105655D01*
X54292Y105728D01*
X54276Y105804D01*
X54246Y105861D01*
X54225Y105922D01*
X54183Y105978D01*
X54144Y106053D01*
X54084Y106114D01*
X54043Y106171D01*
X51201Y109012D01*
X51201Y112988D01*
X54012Y115799D01*
X56814Y115799D01*
X56909Y115812D01*
X57005Y115817D01*
X57049Y115832D01*
X57094Y115839D01*
X57181Y115878D01*
X57272Y115910D01*
X57306Y115935D01*
X57350Y115955D01*
X57448Y116038D01*
X57521Y116091D01*
X95183Y153753D01*
X95240Y153830D01*
X95305Y153901D01*
X95325Y153942D01*
X95352Y153979D01*
X95386Y154069D01*
X95428Y154155D01*
X95434Y154197D01*
X95451Y154243D01*
X95461Y154370D01*
X95475Y154460D01*
X95475Y156276D01*
X95471Y156308D01*
X95473Y156341D01*
X95451Y156448D01*
X95435Y156556D01*
X95422Y156585D01*
X95416Y156617D01*
X95364Y156713D01*
X95319Y156813D01*
X95298Y156837D01*
X95283Y156866D01*
X95207Y156944D01*
X95136Y157027D01*
X95109Y157045D01*
X95086Y157068D01*
X94991Y157121D01*
X94900Y157181D01*
X94869Y157191D01*
X94841Y157207D01*
X94735Y157232D01*
X94630Y157264D01*
X94598Y157264D01*
X94567Y157272D01*
X94457Y157266D01*
X94348Y157267D01*
X94317Y157259D01*
X94285Y157257D01*
X94182Y157221D01*
X94076Y157192D01*
X94049Y157175D01*
X94018Y157165D01*
X93945Y157111D01*
X93836Y157044D01*
X93804Y157008D01*
X93769Y156983D01*
X92988Y156201D01*
X89012Y156201D01*
X86201Y159012D01*
X86201Y162988D01*
X88183Y164969D01*
X88240Y165046D01*
X88305Y165117D01*
X88325Y165158D01*
X88352Y165195D01*
X88386Y165285D01*
X88428Y165371D01*
X88434Y165413D01*
X88451Y165458D01*
X88461Y165586D01*
X88475Y165676D01*
X88475Y178341D01*
X88462Y178436D01*
X88457Y178532D01*
X88442Y178575D01*
X88435Y178620D01*
X88396Y178707D01*
X88364Y178798D01*
X88339Y178833D01*
X88319Y178877D01*
X88236Y178974D01*
X88183Y179047D01*
X63677Y203553D01*
X63677Y231248D01*
X128909Y296479D01*
X128966Y296556D01*
X129031Y296627D01*
X129051Y296668D01*
X129078Y296705D01*
X129112Y296795D01*
X129154Y296881D01*
X129160Y296923D01*
X129177Y296969D01*
X129187Y297096D01*
X129201Y297186D01*
X129201Y299988D01*
X132012Y302799D01*
X135988Y302799D01*
X138799Y299988D01*
X138799Y296012D01*
X135988Y293201D01*
X133186Y293201D01*
X133091Y293188D01*
X132995Y293183D01*
X132951Y293168D01*
X132906Y293161D01*
X132819Y293122D01*
X132728Y293090D01*
X132694Y293065D01*
X132650Y293045D01*
X132552Y292962D01*
X132479Y292909D01*
X126075Y286505D01*
X126056Y286479D01*
X126031Y286458D01*
X125971Y286366D01*
X125906Y286279D01*
X125894Y286249D01*
X125877Y286222D01*
X125845Y286117D01*
X125806Y286015D01*
X125804Y285983D01*
X125794Y285952D01*
X125793Y285843D01*
X125784Y285734D01*
X125791Y285702D01*
X125791Y285670D01*
X125820Y285565D01*
X125842Y285458D01*
X125857Y285429D01*
X125866Y285398D01*
X125923Y285305D01*
X125975Y285209D01*
X125997Y285186D01*
X126014Y285158D01*
X126095Y285085D01*
X126171Y285007D01*
X126199Y284991D01*
X126223Y284969D01*
X126322Y284922D01*
X126417Y284868D01*
X126448Y284860D01*
X126477Y284846D01*
X126566Y284832D01*
X126691Y284803D01*
X126740Y284805D01*
X126782Y284799D01*
X127988Y284799D01*
X130799Y281988D01*
X130799Y280782D01*
X130803Y280750D01*
X130801Y280718D01*
X130823Y280611D01*
X130839Y280502D01*
X130852Y280473D01*
X130858Y280441D01*
X130910Y280345D01*
X130955Y280245D01*
X130976Y280221D01*
X130991Y280193D01*
X131067Y280114D01*
X131138Y280031D01*
X131165Y280014D01*
X131188Y279990D01*
X131283Y279937D01*
X131374Y279877D01*
X131405Y279867D01*
X131433Y279851D01*
X131540Y279826D01*
X131644Y279794D01*
X131676Y279794D01*
X131707Y279786D01*
X131817Y279792D01*
X131926Y279791D01*
X131957Y279799D01*
X131989Y279801D01*
X132092Y279837D01*
X132198Y279866D01*
X132225Y279883D01*
X132256Y279893D01*
X132329Y279947D01*
X132438Y280014D01*
X132470Y280050D01*
X132505Y280075D01*
X154115Y301685D01*
X154153Y301737D01*
X154200Y301782D01*
X154238Y301849D01*
X154284Y301911D01*
X154307Y301971D01*
X154339Y302027D01*
X154356Y302102D01*
X154384Y302175D01*
X154389Y302239D01*
X154404Y302302D01*
X154400Y302379D01*
X154406Y302456D01*
X154392Y302519D01*
X154389Y302583D01*
X154364Y302657D01*
X154348Y302732D01*
X154318Y302789D01*
X154297Y302850D01*
X154255Y302906D01*
X154215Y302981D01*
X154156Y303042D01*
X154115Y303099D01*
X152201Y305012D01*
X152201Y308988D01*
X155012Y311799D01*
X158988Y311799D01*
X161799Y308988D01*
X161799Y305012D01*
X159817Y303031D01*
X159760Y302954D01*
X159695Y302883D01*
X159675Y302842D01*
X159648Y302805D01*
X159614Y302715D01*
X159572Y302629D01*
X159566Y302587D01*
X159549Y302542D01*
X159539Y302414D01*
X159525Y302324D01*
X159525Y299954D01*
X155075Y295505D01*
X155056Y295479D01*
X155031Y295458D01*
X154971Y295366D01*
X154906Y295279D01*
X154894Y295249D01*
X154877Y295222D01*
X154845Y295117D01*
X154806Y295015D01*
X154804Y294983D01*
X154794Y294952D01*
X154793Y294843D01*
X154784Y294734D01*
X154791Y294702D01*
X154791Y294670D01*
X154820Y294565D01*
X154842Y294458D01*
X154857Y294429D01*
X154866Y294398D01*
X154923Y294305D01*
X154975Y294209D01*
X154997Y294186D01*
X155014Y294158D01*
X155095Y294085D01*
X155171Y294007D01*
X155199Y293991D01*
X155223Y293969D01*
X155322Y293922D01*
X155417Y293868D01*
X155448Y293860D01*
X155477Y293846D01*
X155566Y293832D01*
X155691Y293803D01*
X155740Y293805D01*
X155782Y293799D01*
X157988Y293799D01*
X160799Y290988D01*
X160799Y287012D01*
X159317Y285531D01*
X159260Y285454D01*
X159195Y285383D01*
X159175Y285342D01*
X159148Y285305D01*
X159114Y285215D01*
X159072Y285129D01*
X159066Y285087D01*
X159049Y285042D01*
X159039Y284914D01*
X159025Y284824D01*
X159025Y283747D01*
X156960Y281683D01*
X148091Y272814D01*
X148034Y272737D01*
X147969Y272666D01*
X147949Y272625D01*
X147922Y272588D01*
X147888Y272498D01*
X147846Y272412D01*
X147840Y272370D01*
X147823Y272324D01*
X147813Y272197D01*
X147799Y272107D01*
X147799Y270012D01*
X144988Y267201D01*
X141012Y267201D01*
X138201Y270012D01*
X138201Y273988D01*
X141012Y276799D01*
X143107Y276799D01*
X143202Y276812D01*
X143298Y276817D01*
X143341Y276832D01*
X143386Y276839D01*
X143474Y276878D01*
X143565Y276910D01*
X143599Y276935D01*
X143643Y276955D01*
X143741Y277038D01*
X143814Y277091D01*
X151761Y285039D01*
X151777Y285060D01*
X151794Y285075D01*
X151813Y285103D01*
X151846Y285135D01*
X151884Y285203D01*
X151931Y285265D01*
X151947Y285308D01*
X151949Y285311D01*
X151952Y285322D01*
X151953Y285325D01*
X151985Y285381D01*
X152003Y285456D01*
X152030Y285528D01*
X152035Y285592D01*
X152050Y285655D01*
X152046Y285733D01*
X152052Y285810D01*
X152039Y285872D01*
X152036Y285937D01*
X152010Y286010D01*
X151994Y286086D01*
X151964Y286142D01*
X151943Y286203D01*
X151902Y286260D01*
X151862Y286335D01*
X151803Y286396D01*
X151761Y286452D01*
X151201Y287012D01*
X151201Y289218D01*
X151197Y289250D01*
X151199Y289282D01*
X151177Y289389D01*
X151161Y289498D01*
X151148Y289527D01*
X151142Y289559D01*
X151090Y289655D01*
X151045Y289755D01*
X151024Y289779D01*
X151009Y289807D01*
X150933Y289886D01*
X150862Y289969D01*
X150835Y289986D01*
X150812Y290010D01*
X150717Y290063D01*
X150626Y290123D01*
X150595Y290133D01*
X150567Y290149D01*
X150460Y290174D01*
X150356Y290206D01*
X150324Y290206D01*
X150293Y290214D01*
X150183Y290208D01*
X150074Y290209D01*
X150043Y290201D01*
X150011Y290199D01*
X149908Y290163D01*
X149802Y290134D01*
X149775Y290117D01*
X149744Y290107D01*
X149671Y290053D01*
X149562Y289986D01*
X149530Y289950D01*
X149495Y289925D01*
X126075Y266505D01*
X126056Y266479D01*
X126031Y266458D01*
X125971Y266366D01*
X125906Y266279D01*
X125894Y266249D01*
X125877Y266222D01*
X125845Y266117D01*
X125806Y266015D01*
X125804Y265983D01*
X125794Y265952D01*
X125793Y265843D01*
X125784Y265734D01*
X125791Y265702D01*
X125791Y265670D01*
X125820Y265565D01*
X125842Y265458D01*
X125857Y265429D01*
X125866Y265398D01*
X125923Y265305D01*
X125975Y265209D01*
X125997Y265186D01*
X126014Y265158D01*
X126095Y265085D01*
X126171Y265007D01*
X126199Y264991D01*
X126223Y264969D01*
X126322Y264922D01*
X126417Y264868D01*
X126448Y264860D01*
X126477Y264846D01*
X126566Y264832D01*
X126691Y264803D01*
X126740Y264805D01*
X126782Y264799D01*
X126988Y264799D01*
X127969Y263817D01*
X128046Y263760D01*
X128117Y263695D01*
X128158Y263675D01*
X128195Y263648D01*
X128285Y263614D01*
X128371Y263572D01*
X128413Y263566D01*
X128458Y263549D01*
X128586Y263539D01*
X128676Y263525D01*
X215460Y263525D01*
X228167Y250817D01*
X230525Y248460D01*
X230525Y215874D01*
X230538Y215779D01*
X230543Y215683D01*
X230558Y215640D01*
X230565Y215595D01*
X230604Y215507D01*
X230636Y215416D01*
X230661Y215382D01*
X230681Y215338D01*
X230764Y215240D01*
X230817Y215167D01*
X243525Y202460D01*
X243525Y193540D01*
X240091Y190107D01*
X240034Y190030D01*
X239969Y189958D01*
X239949Y189918D01*
X239922Y189881D01*
X239888Y189791D01*
X239846Y189705D01*
X239840Y189663D01*
X239823Y189617D01*
X239813Y189490D01*
X239799Y189400D01*
X239799Y188012D01*
X236988Y185201D01*
X233012Y185201D01*
X230201Y188012D01*
X230201Y191988D01*
X233012Y194799D01*
X234400Y194799D01*
X234495Y194812D01*
X234591Y194817D01*
X234634Y194832D01*
X234679Y194839D01*
X234767Y194878D01*
X234858Y194910D01*
X234892Y194935D01*
X234936Y194955D01*
X235034Y195038D01*
X235107Y195091D01*
X236183Y196167D01*
X236240Y196244D01*
X236305Y196316D01*
X236325Y196356D01*
X236352Y196393D01*
X236386Y196483D01*
X236428Y196569D01*
X236434Y196611D01*
X236451Y196657D01*
X236461Y196784D01*
X236475Y196874D01*
X236475Y199126D01*
X236462Y199221D01*
X236457Y199317D01*
X236442Y199360D01*
X236435Y199405D01*
X236396Y199493D01*
X236364Y199584D01*
X236339Y199618D01*
X236319Y199662D01*
X236236Y199759D01*
X236183Y199833D01*
X223475Y212540D01*
X223475Y245126D01*
X223462Y245221D01*
X223457Y245317D01*
X223442Y245360D01*
X223435Y245405D01*
X223396Y245493D01*
X223364Y245584D01*
X223339Y245618D01*
X223319Y245662D01*
X223236Y245760D01*
X223183Y245833D01*
X212833Y256183D01*
X212756Y256240D01*
X212684Y256305D01*
X212644Y256325D01*
X212607Y256352D01*
X212517Y256386D01*
X212431Y256428D01*
X212389Y256434D01*
X212343Y256451D01*
X212216Y256461D01*
X212126Y256475D01*
X128676Y256475D01*
X128581Y256462D01*
X128484Y256457D01*
X128441Y256442D01*
X128396Y256435D01*
X128309Y256396D01*
X128218Y256364D01*
X128184Y256339D01*
X128139Y256319D01*
X128042Y256236D01*
X127969Y256183D01*
X126988Y255201D01*
X123012Y255201D01*
X120201Y258012D01*
X120201Y258218D01*
X120197Y258250D01*
X120199Y258282D01*
X120177Y258389D01*
X120161Y258498D01*
X120148Y258527D01*
X120142Y258559D01*
X120090Y258655D01*
X120045Y258755D01*
X120024Y258779D01*
X120009Y258807D01*
X119933Y258886D01*
X119862Y258969D01*
X119835Y258986D01*
X119812Y259010D01*
X119717Y259063D01*
X119626Y259123D01*
X119595Y259133D01*
X119567Y259149D01*
X119460Y259174D01*
X119356Y259206D01*
X119324Y259206D01*
X119293Y259214D01*
X119183Y259208D01*
X119074Y259209D01*
X119043Y259201D01*
X119011Y259199D01*
X118908Y259163D01*
X118802Y259134D01*
X118775Y259117D01*
X118744Y259107D01*
X118671Y259053D01*
X118562Y258986D01*
X118530Y258950D01*
X118495Y258925D01*
X100817Y241247D01*
X100760Y241170D01*
X100695Y241099D01*
X100675Y241058D01*
X100648Y241021D01*
X100614Y240931D01*
X100572Y240845D01*
X100566Y240803D01*
X100549Y240757D01*
X100539Y240630D01*
X100525Y240540D01*
X100525Y180922D01*
X100529Y180890D01*
X100527Y180858D01*
X100549Y180751D01*
X100565Y180643D01*
X100578Y180613D01*
X100584Y180582D01*
X100636Y180485D01*
X100681Y180386D01*
X100702Y180361D01*
X100717Y180333D01*
X100793Y180254D01*
X100864Y180171D01*
X100891Y180154D01*
X100914Y180131D01*
X101008Y180077D01*
X101100Y180017D01*
X101131Y180007D01*
X101159Y179992D01*
X101265Y179966D01*
X101370Y179935D01*
X101402Y179934D01*
X101433Y179927D01*
X101543Y179932D01*
X101652Y179931D01*
X101683Y179939D01*
X101715Y179941D01*
X101818Y179977D01*
X101924Y180006D01*
X101951Y180023D01*
X101982Y180034D01*
X102055Y180087D01*
X102164Y180154D01*
X102196Y180190D01*
X102231Y180215D01*
X102833Y180817D01*
X102833Y180818D01*
X168540Y246525D01*
X173324Y246525D01*
X173419Y246538D01*
X173516Y246543D01*
X173559Y246558D01*
X173604Y246565D01*
X173691Y246604D01*
X173782Y246636D01*
X173816Y246661D01*
X173861Y246681D01*
X173958Y246764D01*
X174031Y246817D01*
X175012Y247799D01*
X178988Y247799D01*
X181799Y244988D01*
X181799Y241012D01*
X178988Y238201D01*
X175012Y238201D01*
X174031Y239183D01*
X173954Y239240D01*
X173883Y239305D01*
X173842Y239325D01*
X173805Y239352D01*
X173715Y239386D01*
X173629Y239428D01*
X173587Y239434D01*
X173542Y239451D01*
X173414Y239461D01*
X173324Y239475D01*
X171874Y239475D01*
X171779Y239462D01*
X171683Y239457D01*
X171640Y239442D01*
X171595Y239435D01*
X171507Y239396D01*
X171416Y239364D01*
X171382Y239339D01*
X171338Y239319D01*
X171240Y239236D01*
X171167Y239183D01*
X107817Y175833D01*
X107760Y175756D01*
X107695Y175684D01*
X107675Y175644D01*
X107648Y175607D01*
X107614Y175517D01*
X107572Y175431D01*
X107566Y175389D01*
X107549Y175343D01*
X107539Y175216D01*
X107525Y175126D01*
X107525Y139874D01*
X107538Y139779D01*
X107543Y139683D01*
X107558Y139640D01*
X107565Y139595D01*
X107604Y139507D01*
X107636Y139416D01*
X107661Y139382D01*
X107681Y139338D01*
X107763Y139242D01*
X107786Y139205D01*
X107798Y139193D01*
X107817Y139167D01*
X111862Y135122D01*
X111914Y135084D01*
X111958Y135038D01*
X111992Y135019D01*
X111994Y135018D01*
X112026Y135000D01*
X112088Y134953D01*
X112148Y134930D01*
X112204Y134899D01*
X112279Y134881D01*
X112352Y134854D01*
X112416Y134849D01*
X112478Y134834D01*
X112556Y134838D01*
X112633Y134832D01*
X112696Y134845D01*
X112760Y134848D01*
X112833Y134874D01*
X112909Y134889D01*
X112966Y134920D01*
X113026Y134941D01*
X113083Y134982D01*
X113158Y135022D01*
X113219Y135081D01*
X113275Y135122D01*
X114813Y136660D01*
X118827Y138323D01*
X123173Y138323D01*
X127187Y136660D01*
X130260Y133587D01*
X131923Y129573D01*
X131923Y125227D01*
X130260Y121213D01*
X127187Y118140D01*
X123173Y116477D01*
X118827Y116477D01*
X114813Y118140D01*
X111740Y121213D01*
X110077Y125227D01*
X110077Y126524D01*
X110064Y126619D01*
X110059Y126715D01*
X110044Y126758D01*
X110037Y126803D01*
X109998Y126891D01*
X109966Y126982D01*
X109941Y127016D01*
X109921Y127060D01*
X109838Y127158D01*
X109785Y127231D01*
X104707Y132309D01*
X104655Y132347D01*
X104610Y132393D01*
X104543Y132432D01*
X104481Y132478D01*
X104421Y132501D01*
X104365Y132532D01*
X104290Y132550D01*
X104217Y132578D01*
X104153Y132582D01*
X104091Y132597D01*
X104013Y132593D01*
X103936Y132599D01*
X103873Y132586D01*
X103809Y132583D01*
X103736Y132557D01*
X103660Y132542D01*
X103603Y132512D01*
X103542Y132490D01*
X103486Y132449D01*
X103411Y132409D01*
X103350Y132350D01*
X103293Y132309D01*
X74489Y103505D01*
X74470Y103479D01*
X74445Y103458D01*
X74385Y103366D01*
X74320Y103279D01*
X74309Y103249D01*
X74291Y103222D01*
X74259Y103117D01*
X74220Y103015D01*
X74218Y102983D01*
X74209Y102952D01*
X74207Y102843D01*
X74199Y102734D01*
X74205Y102702D01*
X74205Y102670D01*
X74234Y102565D01*
X74256Y102458D01*
X74271Y102429D01*
X74280Y102398D01*
X74337Y102305D01*
X74389Y102209D01*
X74411Y102186D01*
X74428Y102158D01*
X74509Y102085D01*
X74585Y102007D01*
X74614Y101991D01*
X74637Y101969D01*
X74736Y101922D01*
X74831Y101868D01*
X74862Y101860D01*
X74891Y101846D01*
X74980Y101832D01*
X75105Y101803D01*
X75154Y101805D01*
X75196Y101799D01*
X75988Y101799D01*
X77969Y99817D01*
X78046Y99760D01*
X78117Y99695D01*
X78158Y99675D01*
X78195Y99648D01*
X78285Y99614D01*
X78371Y99572D01*
X78413Y99566D01*
X78458Y99549D01*
X78586Y99539D01*
X78676Y99525D01*
X81540Y99525D01*
X81635Y99538D01*
X81731Y99543D01*
X81775Y99558D01*
X81820Y99565D01*
X81907Y99604D01*
X81998Y99636D01*
X82032Y99661D01*
X82076Y99681D01*
X82174Y99764D01*
X82247Y99817D01*
X85909Y103479D01*
X85966Y103556D01*
X86031Y103627D01*
X86051Y103668D01*
X86078Y103705D01*
X86112Y103795D01*
X86154Y103881D01*
X86160Y103923D01*
X86177Y103969D01*
X86187Y104096D01*
X86201Y104186D01*
X86201Y106988D01*
X89012Y109799D01*
X92988Y109799D01*
X95799Y106988D01*
X95799Y103012D01*
X92988Y100201D01*
X90186Y100201D01*
X90091Y100188D01*
X89995Y100183D01*
X89951Y100168D01*
X89906Y100161D01*
X89819Y100122D01*
X89728Y100090D01*
X89694Y100065D01*
X89650Y100045D01*
X89552Y99962D01*
X89479Y99909D01*
X84046Y94475D01*
X78676Y94475D01*
X78581Y94462D01*
X78484Y94457D01*
X78441Y94442D01*
X78396Y94435D01*
X78309Y94396D01*
X78218Y94364D01*
X78184Y94339D01*
X78139Y94319D01*
X78042Y94236D01*
X77969Y94183D01*
X75988Y92201D01*
X72012Y92201D01*
X69201Y95012D01*
X69201Y95804D01*
X69197Y95836D01*
X69199Y95868D01*
X69177Y95975D01*
X69161Y96083D01*
X69148Y96113D01*
X69142Y96144D01*
X69090Y96241D01*
X69045Y96340D01*
X69024Y96365D01*
X69009Y96393D01*
X68933Y96471D01*
X68862Y96555D01*
X68835Y96572D01*
X68812Y96595D01*
X68717Y96649D01*
X68626Y96709D01*
X68595Y96719D01*
X68567Y96734D01*
X68460Y96760D01*
X68356Y96791D01*
X68324Y96792D01*
X68293Y96799D01*
X68183Y96794D01*
X68074Y96795D01*
X68043Y96787D01*
X68011Y96785D01*
X67908Y96749D01*
X67802Y96720D01*
X67775Y96703D01*
X67744Y96692D01*
X67671Y96639D01*
X67562Y96572D01*
X67530Y96536D01*
X67495Y96511D01*
X25817Y54833D01*
X25760Y54756D01*
X25695Y54684D01*
X25675Y54644D01*
X25648Y54607D01*
X25614Y54517D01*
X25572Y54431D01*
X25566Y54389D01*
X25549Y54343D01*
X25539Y54216D01*
X25525Y54126D01*
X25525Y52676D01*
X25538Y52581D01*
X25543Y52484D01*
X25558Y52441D01*
X25565Y52396D01*
X25604Y52309D01*
X25636Y52218D01*
X25661Y52184D01*
X25681Y52139D01*
X25764Y52042D01*
X25817Y51969D01*
X26799Y50988D01*
X26799Y47012D01*
X23988Y44201D01*
X20012Y44201D01*
G37*
%LPD*%
%LPC*%
G36*
X244312Y244459D02*
X244312Y244459D01*
X237497Y247282D01*
X232282Y252497D01*
X229459Y259312D01*
X229459Y266688D01*
X232282Y273502D01*
X237549Y278769D01*
X237568Y278795D01*
X237593Y278816D01*
X237653Y278908D01*
X237718Y278995D01*
X237730Y279025D01*
X237747Y279052D01*
X237779Y279157D01*
X237818Y279259D01*
X237820Y279291D01*
X237830Y279322D01*
X237831Y279431D01*
X237840Y279540D01*
X237833Y279572D01*
X237833Y279604D01*
X237804Y279709D01*
X237782Y279816D01*
X237767Y279845D01*
X237758Y279876D01*
X237701Y279969D01*
X237649Y280065D01*
X237627Y280088D01*
X237610Y280116D01*
X237529Y280189D01*
X237453Y280267D01*
X237425Y280283D01*
X237401Y280305D01*
X237302Y280352D01*
X237207Y280406D01*
X237176Y280414D01*
X237147Y280428D01*
X237058Y280442D01*
X236933Y280471D01*
X236884Y280469D01*
X236842Y280475D01*
X175874Y280475D01*
X175779Y280462D01*
X175683Y280457D01*
X175640Y280442D01*
X175595Y280435D01*
X175507Y280396D01*
X175416Y280364D01*
X175382Y280339D01*
X175338Y280319D01*
X175240Y280236D01*
X175167Y280183D01*
X168341Y273357D01*
X168284Y273280D01*
X168219Y273208D01*
X168199Y273168D01*
X168172Y273131D01*
X168138Y273041D01*
X168096Y272955D01*
X168090Y272913D01*
X168073Y272867D01*
X168063Y272740D01*
X168049Y272650D01*
X168049Y270909D01*
X165091Y267951D01*
X160909Y267951D01*
X157951Y270909D01*
X157951Y275091D01*
X160909Y278049D01*
X162650Y278049D01*
X162745Y278062D01*
X162841Y278067D01*
X162884Y278082D01*
X162929Y278089D01*
X163017Y278128D01*
X163108Y278160D01*
X163142Y278185D01*
X163186Y278205D01*
X163284Y278288D01*
X163357Y278341D01*
X172540Y287525D01*
X181923Y287525D01*
X181955Y287529D01*
X181987Y287527D01*
X182094Y287549D01*
X182202Y287565D01*
X182231Y287578D01*
X182263Y287584D01*
X182359Y287636D01*
X182459Y287681D01*
X182484Y287702D01*
X182512Y287717D01*
X182590Y287793D01*
X182673Y287864D01*
X182691Y287891D01*
X182714Y287914D01*
X182768Y288009D01*
X182828Y288100D01*
X182837Y288131D01*
X182853Y288159D01*
X182878Y288265D01*
X182910Y288370D01*
X182911Y288402D01*
X182918Y288433D01*
X182912Y288543D01*
X182914Y288652D01*
X182905Y288683D01*
X182904Y288715D01*
X182868Y288818D01*
X182839Y288924D01*
X182822Y288951D01*
X182811Y288982D01*
X182758Y289055D01*
X182691Y289164D01*
X182655Y289196D01*
X182629Y289231D01*
X179951Y291909D01*
X179951Y294357D01*
X179938Y294452D01*
X179933Y294548D01*
X179918Y294591D01*
X179911Y294636D01*
X179872Y294724D01*
X179840Y294815D01*
X179815Y294849D01*
X179795Y294893D01*
X179712Y294991D01*
X179659Y295064D01*
X157040Y317683D01*
X156963Y317740D01*
X156892Y317805D01*
X156851Y317825D01*
X156814Y317852D01*
X156724Y317886D01*
X156638Y317928D01*
X156596Y317934D01*
X156550Y317951D01*
X156423Y317961D01*
X156333Y317975D01*
X86747Y317975D01*
X42975Y361747D01*
X42975Y366471D01*
X42962Y366566D01*
X42957Y366662D01*
X42942Y366705D01*
X42935Y366750D01*
X42896Y366838D01*
X42864Y366928D01*
X42839Y366963D01*
X42819Y367007D01*
X42736Y367104D01*
X42683Y367177D01*
X40951Y368909D01*
X40951Y373091D01*
X43909Y376049D01*
X48091Y376049D01*
X51049Y373091D01*
X51049Y368909D01*
X49317Y367177D01*
X49260Y367101D01*
X49195Y367029D01*
X49175Y366988D01*
X49148Y366952D01*
X49114Y366862D01*
X49072Y366775D01*
X49066Y366733D01*
X49049Y366688D01*
X49039Y366560D01*
X49025Y366471D01*
X49025Y364667D01*
X49034Y364604D01*
X49033Y364548D01*
X49041Y364519D01*
X49043Y364476D01*
X49058Y364433D01*
X49065Y364388D01*
X49097Y364315D01*
X49108Y364276D01*
X49118Y364260D01*
X49136Y364209D01*
X49161Y364175D01*
X49181Y364131D01*
X49242Y364059D01*
X49256Y364036D01*
X49274Y364020D01*
X49317Y363960D01*
X88960Y324317D01*
X89037Y324260D01*
X89108Y324195D01*
X89149Y324175D01*
X89186Y324148D01*
X89276Y324114D01*
X89362Y324072D01*
X89404Y324066D01*
X89450Y324049D01*
X89577Y324039D01*
X89667Y324025D01*
X159253Y324025D01*
X183936Y299341D01*
X184013Y299284D01*
X184084Y299219D01*
X184125Y299199D01*
X184162Y299172D01*
X184252Y299138D01*
X184338Y299096D01*
X184380Y299090D01*
X184426Y299073D01*
X184553Y299063D01*
X184643Y299049D01*
X187091Y299049D01*
X190049Y296091D01*
X190049Y291909D01*
X187371Y289231D01*
X187351Y289205D01*
X187327Y289184D01*
X187267Y289092D01*
X187201Y289005D01*
X187190Y288975D01*
X187172Y288948D01*
X187140Y288843D01*
X187102Y288741D01*
X187099Y288709D01*
X187090Y288678D01*
X187088Y288569D01*
X187080Y288460D01*
X187087Y288428D01*
X187086Y288396D01*
X187115Y288291D01*
X187138Y288184D01*
X187153Y288155D01*
X187161Y288124D01*
X187219Y288031D01*
X187270Y287935D01*
X187292Y287912D01*
X187309Y287884D01*
X187391Y287811D01*
X187467Y287733D01*
X187495Y287717D01*
X187519Y287695D01*
X187617Y287648D01*
X187712Y287594D01*
X187744Y287586D01*
X187773Y287572D01*
X187862Y287558D01*
X187987Y287529D01*
X188035Y287531D01*
X188077Y287525D01*
X248126Y287525D01*
X248221Y287538D01*
X248317Y287543D01*
X248360Y287558D01*
X248405Y287565D01*
X248493Y287604D01*
X248584Y287636D01*
X248618Y287661D01*
X248662Y287681D01*
X248760Y287764D01*
X248833Y287817D01*
X254183Y293167D01*
X254240Y293244D01*
X254305Y293316D01*
X254325Y293356D01*
X254352Y293393D01*
X254386Y293483D01*
X254428Y293569D01*
X254434Y293611D01*
X254451Y293657D01*
X254461Y293784D01*
X254475Y293874D01*
X254475Y301324D01*
X254462Y301419D01*
X254457Y301516D01*
X254442Y301559D01*
X254435Y301604D01*
X254396Y301691D01*
X254364Y301782D01*
X254339Y301816D01*
X254319Y301861D01*
X254236Y301958D01*
X254183Y302031D01*
X253201Y303012D01*
X253201Y306988D01*
X256012Y309799D01*
X259988Y309799D01*
X262799Y306988D01*
X262799Y303012D01*
X261817Y302031D01*
X261760Y301954D01*
X261695Y301883D01*
X261675Y301842D01*
X261648Y301805D01*
X261614Y301715D01*
X261572Y301629D01*
X261566Y301587D01*
X261549Y301542D01*
X261539Y301414D01*
X261525Y301324D01*
X261525Y290540D01*
X259167Y288183D01*
X253338Y282353D01*
X253266Y282258D01*
X253191Y282167D01*
X253182Y282146D01*
X253168Y282127D01*
X253126Y282016D01*
X253080Y281907D01*
X253077Y281885D01*
X253069Y281863D01*
X253060Y281745D01*
X253045Y281628D01*
X253049Y281605D01*
X253047Y281582D01*
X253071Y281466D01*
X253090Y281349D01*
X253100Y281328D01*
X253105Y281306D01*
X253160Y281202D01*
X253211Y281094D01*
X253226Y281077D01*
X253237Y281057D01*
X253320Y280972D01*
X253399Y280884D01*
X253417Y280872D01*
X253434Y280855D01*
X253596Y280763D01*
X253662Y280723D01*
X258503Y278718D01*
X263718Y273503D01*
X266541Y266688D01*
X266541Y259312D01*
X263718Y252497D01*
X258503Y247282D01*
X251688Y244459D01*
X244312Y244459D01*
G37*
%LPD*%
%LPC*%
G36*
X226896Y13451D02*
X226896Y13451D01*
X224857Y14296D01*
X223296Y15857D01*
X222451Y17896D01*
X222451Y19150D01*
X222438Y19245D01*
X222433Y19341D01*
X222418Y19384D01*
X222411Y19429D01*
X222372Y19517D01*
X222340Y19608D01*
X222315Y19642D01*
X222295Y19686D01*
X222212Y19784D01*
X222159Y19857D01*
X192475Y49540D01*
X192475Y87460D01*
X194833Y89817D01*
X200309Y95293D01*
X200347Y95345D01*
X200393Y95390D01*
X200431Y95457D01*
X200478Y95519D01*
X200501Y95579D01*
X200532Y95635D01*
X200550Y95710D01*
X200578Y95783D01*
X200582Y95847D01*
X200597Y95909D01*
X200593Y95987D01*
X200599Y96064D01*
X200586Y96127D01*
X200583Y96191D01*
X200557Y96264D01*
X200542Y96340D01*
X200512Y96397D01*
X200490Y96458D01*
X200449Y96514D01*
X200409Y96589D01*
X200350Y96650D01*
X200309Y96707D01*
X165833Y131183D01*
X163475Y133540D01*
X163475Y157264D01*
X163462Y157359D01*
X163457Y157455D01*
X163442Y157498D01*
X163435Y157543D01*
X163396Y157630D01*
X163364Y157721D01*
X163339Y157756D01*
X163319Y157800D01*
X163236Y157897D01*
X163183Y157970D01*
X162296Y158857D01*
X161451Y160896D01*
X161451Y163104D01*
X162296Y165143D01*
X163857Y166704D01*
X165896Y167549D01*
X168104Y167549D01*
X170143Y166704D01*
X171704Y165143D01*
X172549Y163104D01*
X172549Y160896D01*
X171704Y158857D01*
X170817Y157970D01*
X170760Y157894D01*
X170695Y157822D01*
X170675Y157781D01*
X170648Y157745D01*
X170614Y157655D01*
X170572Y157568D01*
X170566Y157526D01*
X170549Y157481D01*
X170539Y157353D01*
X170525Y157264D01*
X170525Y136874D01*
X170538Y136779D01*
X170543Y136683D01*
X170558Y136640D01*
X170565Y136595D01*
X170604Y136507D01*
X170636Y136416D01*
X170661Y136382D01*
X170681Y136338D01*
X170760Y136245D01*
X170784Y136207D01*
X170798Y136194D01*
X170817Y136167D01*
X207167Y99817D01*
X209817Y97167D01*
X214143Y92841D01*
X214220Y92784D01*
X214291Y92719D01*
X214332Y92699D01*
X214369Y92672D01*
X214459Y92638D01*
X214545Y92596D01*
X214587Y92590D01*
X214633Y92573D01*
X214760Y92563D01*
X214850Y92549D01*
X216104Y92549D01*
X218143Y91704D01*
X219704Y90143D01*
X220549Y88104D01*
X220549Y85896D01*
X219704Y83857D01*
X218143Y82296D01*
X216104Y81451D01*
X213896Y81451D01*
X211857Y82296D01*
X210296Y83857D01*
X209451Y85896D01*
X209451Y87150D01*
X209438Y87245D01*
X209433Y87341D01*
X209418Y87384D01*
X209411Y87429D01*
X209372Y87517D01*
X209340Y87608D01*
X209315Y87642D01*
X209295Y87686D01*
X209212Y87784D01*
X209159Y87857D01*
X206707Y90309D01*
X206655Y90347D01*
X206610Y90393D01*
X206543Y90432D01*
X206481Y90478D01*
X206421Y90501D01*
X206365Y90532D01*
X206290Y90550D01*
X206217Y90578D01*
X206153Y90582D01*
X206091Y90597D01*
X206013Y90593D01*
X205936Y90599D01*
X205873Y90586D01*
X205809Y90583D01*
X205736Y90557D01*
X205660Y90542D01*
X205603Y90512D01*
X205542Y90490D01*
X205486Y90449D01*
X205411Y90409D01*
X205350Y90350D01*
X205293Y90309D01*
X199817Y84833D01*
X199760Y84756D01*
X199695Y84685D01*
X199675Y84644D01*
X199648Y84607D01*
X199614Y84517D01*
X199572Y84431D01*
X199566Y84389D01*
X199549Y84343D01*
X199539Y84216D01*
X199525Y84126D01*
X199525Y52874D01*
X199533Y52813D01*
X199533Y52782D01*
X199539Y52759D01*
X199543Y52683D01*
X199558Y52640D01*
X199565Y52595D01*
X199604Y52507D01*
X199636Y52416D01*
X199661Y52382D01*
X199681Y52338D01*
X199764Y52240D01*
X199817Y52167D01*
X227143Y24841D01*
X227220Y24784D01*
X227292Y24719D01*
X227332Y24699D01*
X227369Y24672D01*
X227459Y24638D01*
X227545Y24596D01*
X227587Y24590D01*
X227633Y24573D01*
X227760Y24563D01*
X227850Y24549D01*
X229104Y24549D01*
X231143Y23704D01*
X232704Y22143D01*
X233549Y20104D01*
X233549Y17896D01*
X232704Y15857D01*
X231143Y14296D01*
X229104Y13451D01*
X226896Y13451D01*
G37*
%LPD*%
%LPC*%
G36*
X72008Y10565D02*
X72008Y10565D01*
X71115Y11458D01*
X71115Y16717D01*
X71103Y16803D01*
X71100Y16890D01*
X71083Y16942D01*
X71075Y16996D01*
X71040Y17075D01*
X71013Y17158D01*
X70982Y17203D01*
X70959Y17253D01*
X70903Y17319D01*
X70854Y17391D01*
X70812Y17426D01*
X70776Y17468D01*
X70703Y17515D01*
X70636Y17570D01*
X70586Y17592D01*
X70540Y17622D01*
X70457Y17647D01*
X70377Y17682D01*
X70323Y17688D01*
X70270Y17704D01*
X70183Y17706D01*
X70097Y17716D01*
X70043Y17707D01*
X69988Y17708D01*
X69904Y17685D01*
X69819Y17671D01*
X69769Y17648D01*
X69716Y17633D01*
X69642Y17587D01*
X69564Y17550D01*
X69523Y17514D01*
X69476Y17485D01*
X69418Y17420D01*
X69353Y17363D01*
X69327Y17319D01*
X69287Y17276D01*
X69238Y17173D01*
X69193Y17100D01*
X68660Y15813D01*
X65587Y12740D01*
X61573Y11077D01*
X57227Y11077D01*
X53213Y12740D01*
X50140Y15813D01*
X48477Y19827D01*
X48477Y24173D01*
X50140Y28187D01*
X53213Y31260D01*
X57227Y32923D01*
X61573Y32923D01*
X65587Y31260D01*
X68660Y28187D01*
X70323Y24173D01*
X70323Y21961D01*
X70327Y21929D01*
X70325Y21897D01*
X70347Y21790D01*
X70363Y21682D01*
X70376Y21653D01*
X70382Y21621D01*
X70434Y21525D01*
X70479Y21425D01*
X70500Y21401D01*
X70515Y21372D01*
X70591Y21294D01*
X70662Y21211D01*
X70689Y21193D01*
X70712Y21170D01*
X70807Y21116D01*
X70898Y21057D01*
X70929Y21047D01*
X70957Y21031D01*
X71063Y21006D01*
X71168Y20974D01*
X71200Y20974D01*
X71232Y20966D01*
X71341Y20972D01*
X71450Y20970D01*
X71481Y20979D01*
X71513Y20981D01*
X71616Y21016D01*
X71722Y21046D01*
X71749Y21063D01*
X71780Y21073D01*
X71853Y21127D01*
X71962Y21194D01*
X71994Y21230D01*
X72001Y21235D01*
X82173Y21235D01*
X82268Y21248D01*
X82364Y21253D01*
X82407Y21268D01*
X82452Y21275D01*
X82540Y21314D01*
X82631Y21346D01*
X82665Y21371D01*
X82709Y21391D01*
X82807Y21474D01*
X82880Y21527D01*
X88212Y26859D01*
X88231Y26885D01*
X88256Y26906D01*
X88316Y26998D01*
X88381Y27085D01*
X88393Y27115D01*
X88410Y27142D01*
X88442Y27247D01*
X88481Y27349D01*
X88483Y27381D01*
X88493Y27412D01*
X88494Y27521D01*
X88502Y27630D01*
X88496Y27662D01*
X88496Y27694D01*
X88467Y27799D01*
X88445Y27906D01*
X88430Y27935D01*
X88421Y27966D01*
X88364Y28059D01*
X88312Y28155D01*
X88290Y28178D01*
X88273Y28206D01*
X88192Y28279D01*
X88116Y28357D01*
X88088Y28373D01*
X88064Y28395D01*
X87965Y28442D01*
X87870Y28496D01*
X87839Y28504D01*
X87810Y28518D01*
X87721Y28532D01*
X87596Y28561D01*
X87547Y28559D01*
X87505Y28565D01*
X72008Y28565D01*
X71115Y29458D01*
X71115Y38342D01*
X72008Y39235D01*
X78476Y39235D01*
X78540Y39244D01*
X78604Y39243D01*
X78679Y39264D01*
X78755Y39275D01*
X78814Y39301D01*
X78876Y39318D01*
X78942Y39359D01*
X79012Y39391D01*
X79061Y39433D01*
X79116Y39466D01*
X79168Y39524D01*
X79226Y39574D01*
X79262Y39628D01*
X79305Y39676D01*
X79338Y39745D01*
X79381Y39810D01*
X79400Y39872D01*
X79428Y39929D01*
X79439Y39999D01*
X79463Y40080D01*
X79464Y40165D01*
X79475Y40234D01*
X79475Y46324D01*
X79462Y46419D01*
X79457Y46516D01*
X79442Y46559D01*
X79435Y46604D01*
X79396Y46691D01*
X79364Y46782D01*
X79339Y46816D01*
X79319Y46861D01*
X79236Y46958D01*
X79183Y47031D01*
X77201Y49012D01*
X77201Y52988D01*
X80012Y55799D01*
X83988Y55799D01*
X86799Y52988D01*
X86799Y49012D01*
X84817Y47031D01*
X84760Y46954D01*
X84695Y46883D01*
X84675Y46842D01*
X84648Y46805D01*
X84614Y46715D01*
X84572Y46629D01*
X84566Y46587D01*
X84549Y46542D01*
X84539Y46414D01*
X84525Y46324D01*
X84525Y40234D01*
X84534Y40170D01*
X84533Y40106D01*
X84554Y40031D01*
X84565Y39955D01*
X84591Y39896D01*
X84608Y39834D01*
X84649Y39768D01*
X84681Y39698D01*
X84723Y39649D01*
X84756Y39594D01*
X84814Y39542D01*
X84864Y39484D01*
X84918Y39448D01*
X84966Y39405D01*
X85035Y39372D01*
X85100Y39329D01*
X85162Y39310D01*
X85219Y39282D01*
X85289Y39271D01*
X85370Y39247D01*
X85455Y39246D01*
X85524Y39235D01*
X90976Y39235D01*
X91040Y39244D01*
X91104Y39243D01*
X91179Y39264D01*
X91255Y39275D01*
X91314Y39301D01*
X91376Y39318D01*
X91442Y39359D01*
X91512Y39391D01*
X91561Y39433D01*
X91616Y39466D01*
X91668Y39524D01*
X91726Y39574D01*
X91762Y39628D01*
X91805Y39676D01*
X91838Y39745D01*
X91881Y39810D01*
X91900Y39872D01*
X91928Y39929D01*
X91939Y39999D01*
X91963Y40080D01*
X91964Y40165D01*
X91975Y40234D01*
X91975Y61824D01*
X91962Y61919D01*
X91957Y62016D01*
X91942Y62059D01*
X91935Y62104D01*
X91896Y62191D01*
X91864Y62282D01*
X91839Y62316D01*
X91819Y62361D01*
X91736Y62458D01*
X91683Y62531D01*
X90201Y64012D01*
X90201Y67988D01*
X93012Y70799D01*
X96988Y70799D01*
X99799Y67988D01*
X99799Y64012D01*
X98317Y62531D01*
X98260Y62454D01*
X98195Y62383D01*
X98175Y62342D01*
X98148Y62305D01*
X98114Y62215D01*
X98072Y62129D01*
X98066Y62087D01*
X98049Y62042D01*
X98039Y61914D01*
X98025Y61824D01*
X98025Y28117D01*
X91804Y21896D01*
X91765Y21845D01*
X91719Y21800D01*
X91681Y21732D01*
X91634Y21670D01*
X91612Y21610D01*
X91580Y21554D01*
X91562Y21479D01*
X91535Y21406D01*
X91530Y21342D01*
X91515Y21280D01*
X91519Y21202D01*
X91513Y21125D01*
X91526Y21062D01*
X91529Y20998D01*
X91555Y20925D01*
X91571Y20849D01*
X91601Y20792D01*
X91622Y20732D01*
X91663Y20675D01*
X91703Y20600D01*
X91762Y20539D01*
X91804Y20483D01*
X91945Y20342D01*
X91945Y11458D01*
X91052Y10565D01*
X72008Y10565D01*
G37*
%LPD*%
%LPC*%
G36*
X165312Y69459D02*
X165312Y69459D01*
X158497Y72282D01*
X153282Y77497D01*
X150459Y84312D01*
X150459Y91688D01*
X153282Y98503D01*
X158497Y103718D01*
X165312Y106541D01*
X172688Y106541D01*
X179503Y103718D01*
X184718Y98503D01*
X187541Y91688D01*
X187541Y84312D01*
X184718Y77497D01*
X179503Y72282D01*
X172688Y69459D01*
X165312Y69459D01*
G37*
%LPD*%
%LPC*%
G36*
X43312Y452459D02*
X43312Y452459D01*
X36497Y455282D01*
X31282Y460497D01*
X28459Y467312D01*
X28459Y474688D01*
X31282Y481503D01*
X36497Y486718D01*
X43312Y489541D01*
X50688Y489541D01*
X57503Y486718D01*
X62718Y481503D01*
X65541Y474688D01*
X65541Y467312D01*
X62718Y460497D01*
X57503Y455282D01*
X50688Y452459D01*
X43312Y452459D01*
G37*
%LPD*%
%LPC*%
G36*
X248798Y133459D02*
X248798Y133459D01*
X246578Y134379D01*
X244879Y136078D01*
X243959Y138298D01*
X243959Y140702D01*
X244884Y142933D01*
X244892Y142965D01*
X244907Y142994D01*
X244927Y143101D01*
X244954Y143207D01*
X244953Y143239D01*
X244959Y143271D01*
X244948Y143380D01*
X244945Y143488D01*
X244935Y143519D01*
X244932Y143552D01*
X244891Y143653D01*
X244857Y143757D01*
X244839Y143783D01*
X244827Y143814D01*
X244760Y143899D01*
X244698Y143990D01*
X244673Y144010D01*
X244653Y144036D01*
X244565Y144100D01*
X244481Y144169D01*
X244451Y144182D01*
X244425Y144201D01*
X244322Y144237D01*
X244222Y144280D01*
X244189Y144284D01*
X244159Y144295D01*
X244050Y144302D01*
X243942Y144315D01*
X243910Y144310D01*
X243877Y144312D01*
X243789Y144290D01*
X243781Y144289D01*
X243745Y144287D01*
X242999Y144139D01*
X242999Y151001D01*
X249861Y151001D01*
X249732Y150351D01*
X249047Y148699D01*
X248047Y147202D01*
X248045Y147200D01*
X247985Y147109D01*
X247920Y147021D01*
X247908Y146991D01*
X247890Y146964D01*
X247858Y146860D01*
X247820Y146758D01*
X247817Y146725D01*
X247808Y146694D01*
X247806Y146585D01*
X247798Y146476D01*
X247805Y146445D01*
X247804Y146412D01*
X247833Y146307D01*
X247855Y146200D01*
X247871Y146172D01*
X247879Y146140D01*
X247937Y146047D01*
X247988Y145951D01*
X248010Y145928D01*
X248028Y145900D01*
X248108Y145827D01*
X248184Y145749D01*
X248213Y145733D01*
X248237Y145711D01*
X248335Y145664D01*
X248430Y145610D01*
X248461Y145602D01*
X248491Y145588D01*
X248580Y145574D01*
X248704Y145545D01*
X248753Y145547D01*
X248795Y145541D01*
X251202Y145541D01*
X252578Y144971D01*
X252692Y144941D01*
X252806Y144907D01*
X252829Y144906D01*
X252851Y144901D01*
X252969Y144904D01*
X253088Y144903D01*
X253110Y144909D01*
X253133Y144910D01*
X253245Y144946D01*
X253360Y144978D01*
X253379Y144990D01*
X253401Y144997D01*
X253499Y145064D01*
X253600Y145126D01*
X253615Y145143D01*
X253634Y145156D01*
X253709Y145248D01*
X253789Y145336D01*
X253799Y145356D01*
X253813Y145374D01*
X253860Y145483D01*
X253912Y145589D01*
X253915Y145611D01*
X253925Y145633D01*
X253947Y145818D01*
X253959Y145894D01*
X253959Y154001D01*
X258807Y154001D01*
X258809Y154001D01*
X258811Y154001D01*
X258952Y154021D01*
X259087Y154041D01*
X259088Y154041D01*
X259090Y154042D01*
X259219Y154100D01*
X259344Y154157D01*
X259345Y154158D01*
X259347Y154159D01*
X259453Y154250D01*
X259558Y154340D01*
X259559Y154342D01*
X259561Y154343D01*
X259635Y154457D01*
X259712Y154576D01*
X259713Y154578D01*
X259714Y154580D01*
X259723Y154610D01*
X259795Y154846D01*
X259795Y154862D01*
X259799Y154876D01*
X259924Y155876D01*
X259921Y156035D01*
X259924Y156124D01*
X259799Y157124D01*
X259798Y157126D01*
X259799Y157128D01*
X259761Y157263D01*
X259725Y157396D01*
X259724Y157398D01*
X259723Y157400D01*
X259649Y157521D01*
X259578Y157637D01*
X259576Y157638D01*
X259575Y157640D01*
X259471Y157733D01*
X259369Y157826D01*
X259367Y157827D01*
X259366Y157829D01*
X259243Y157888D01*
X259116Y157950D01*
X259114Y157951D01*
X259112Y157952D01*
X259082Y157956D01*
X258838Y157999D01*
X258822Y157997D01*
X258807Y157999D01*
X253959Y157999D01*
X253959Y168835D01*
X254132Y169481D01*
X254467Y170060D01*
X254940Y170533D01*
X255519Y170868D01*
X256165Y171041D01*
X267001Y171041D01*
X267001Y164040D01*
X267010Y163976D01*
X267009Y163912D01*
X267030Y163837D01*
X267041Y163761D01*
X267067Y163702D01*
X267084Y163640D01*
X267125Y163574D01*
X267157Y163504D01*
X267199Y163455D01*
X267232Y163400D01*
X267290Y163348D01*
X267340Y163290D01*
X267394Y163254D01*
X267442Y163211D01*
X267511Y163178D01*
X267576Y163135D01*
X267638Y163116D01*
X267695Y163088D01*
X267765Y163077D01*
X267846Y163053D01*
X267931Y163052D01*
X268000Y163041D01*
X270000Y163041D01*
X270064Y163050D01*
X270128Y163049D01*
X270203Y163070D01*
X270279Y163081D01*
X270338Y163107D01*
X270400Y163124D01*
X270466Y163165D01*
X270536Y163197D01*
X270585Y163239D01*
X270640Y163272D01*
X270692Y163330D01*
X270750Y163380D01*
X270786Y163434D01*
X270829Y163482D01*
X270862Y163551D01*
X270905Y163616D01*
X270924Y163678D01*
X270952Y163735D01*
X270962Y163805D01*
X270987Y163886D01*
X270988Y163971D01*
X270999Y164040D01*
X270999Y171041D01*
X281835Y171041D01*
X282481Y170868D01*
X283060Y170533D01*
X283533Y170060D01*
X283868Y169481D01*
X284041Y168835D01*
X284041Y157999D01*
X279193Y157999D01*
X279191Y157999D01*
X279189Y157999D01*
X279048Y157979D01*
X278913Y157959D01*
X278912Y157959D01*
X278910Y157958D01*
X278781Y157899D01*
X278656Y157843D01*
X278655Y157842D01*
X278653Y157841D01*
X278547Y157750D01*
X278442Y157660D01*
X278441Y157658D01*
X278439Y157657D01*
X278365Y157543D01*
X278288Y157424D01*
X278287Y157422D01*
X278286Y157420D01*
X278277Y157390D01*
X278205Y157154D01*
X278205Y157138D01*
X278201Y157124D01*
X278076Y156124D01*
X278079Y155965D01*
X278076Y155876D01*
X278201Y154876D01*
X278202Y154874D01*
X278201Y154872D01*
X278239Y154737D01*
X278275Y154604D01*
X278276Y154602D01*
X278277Y154600D01*
X278350Y154482D01*
X278422Y154363D01*
X278424Y154362D01*
X278425Y154360D01*
X278527Y154268D01*
X278631Y154174D01*
X278633Y154173D01*
X278634Y154171D01*
X278757Y154112D01*
X278884Y154050D01*
X278886Y154049D01*
X278888Y154048D01*
X278918Y154044D01*
X279162Y154001D01*
X279178Y154003D01*
X279193Y154001D01*
X284041Y154001D01*
X284041Y143165D01*
X283868Y142519D01*
X283533Y141940D01*
X283060Y141467D01*
X282481Y141132D01*
X281835Y140959D01*
X270999Y140959D01*
X270999Y147960D01*
X270990Y148024D01*
X270991Y148088D01*
X270970Y148163D01*
X270959Y148239D01*
X270933Y148298D01*
X270916Y148360D01*
X270875Y148426D01*
X270843Y148496D01*
X270801Y148545D01*
X270768Y148600D01*
X270710Y148652D01*
X270660Y148710D01*
X270606Y148746D01*
X270558Y148789D01*
X270489Y148822D01*
X270424Y148865D01*
X270362Y148884D01*
X270305Y148912D01*
X270235Y148923D01*
X270154Y148947D01*
X270069Y148948D01*
X270000Y148959D01*
X268000Y148959D01*
X267936Y148950D01*
X267872Y148951D01*
X267797Y148930D01*
X267721Y148919D01*
X267662Y148893D01*
X267600Y148876D01*
X267534Y148835D01*
X267464Y148803D01*
X267415Y148761D01*
X267360Y148728D01*
X267308Y148670D01*
X267250Y148620D01*
X267214Y148566D01*
X267171Y148518D01*
X267138Y148449D01*
X267095Y148384D01*
X267076Y148322D01*
X267048Y148265D01*
X267037Y148195D01*
X267013Y148114D01*
X267012Y148029D01*
X267001Y147960D01*
X267001Y140959D01*
X257040Y140959D01*
X256976Y140950D01*
X256912Y140951D01*
X256837Y140930D01*
X256761Y140919D01*
X256702Y140893D01*
X256640Y140876D01*
X256574Y140835D01*
X256504Y140803D01*
X256455Y140761D01*
X256400Y140728D01*
X256348Y140670D01*
X256290Y140620D01*
X256254Y140566D01*
X256211Y140518D01*
X256178Y140449D01*
X256135Y140384D01*
X256116Y140322D01*
X256088Y140265D01*
X256077Y140195D01*
X256053Y140114D01*
X256052Y140029D01*
X256041Y139960D01*
X256041Y138298D01*
X255121Y136078D01*
X253422Y134379D01*
X251202Y133459D01*
X248798Y133459D01*
G37*
%LPD*%
%LPC*%
G36*
X256165Y68959D02*
X256165Y68959D01*
X255519Y69132D01*
X254940Y69467D01*
X254467Y69940D01*
X254132Y70519D01*
X253959Y71165D01*
X253959Y82001D01*
X258960Y82001D01*
X259024Y82010D01*
X259088Y82009D01*
X259163Y82030D01*
X259239Y82041D01*
X259298Y82067D01*
X259360Y82084D01*
X259426Y82125D01*
X259496Y82157D01*
X259545Y82199D01*
X259600Y82232D01*
X259652Y82290D01*
X259710Y82340D01*
X259746Y82394D01*
X259789Y82442D01*
X259822Y82511D01*
X259865Y82576D01*
X259884Y82638D01*
X259912Y82695D01*
X259923Y82765D01*
X259947Y82846D01*
X259948Y82931D01*
X259959Y83000D01*
X259959Y85000D01*
X259950Y85064D01*
X259951Y85128D01*
X259930Y85202D01*
X259919Y85279D01*
X259893Y85338D01*
X259876Y85400D01*
X259835Y85466D01*
X259803Y85536D01*
X259761Y85585D01*
X259728Y85640D01*
X259670Y85692D01*
X259620Y85750D01*
X259566Y85786D01*
X259518Y85829D01*
X259449Y85862D01*
X259384Y85905D01*
X259322Y85924D01*
X259265Y85952D01*
X259195Y85962D01*
X259114Y85987D01*
X259029Y85988D01*
X258960Y85999D01*
X253959Y85999D01*
X253959Y94106D01*
X253943Y94223D01*
X253931Y94342D01*
X253923Y94363D01*
X253919Y94385D01*
X253871Y94493D01*
X253827Y94603D01*
X253813Y94622D01*
X253803Y94642D01*
X253726Y94732D01*
X253653Y94826D01*
X253635Y94839D01*
X253620Y94857D01*
X253520Y94922D01*
X253424Y94991D01*
X253403Y94998D01*
X253384Y95011D01*
X253270Y95046D01*
X253159Y95085D01*
X253136Y95087D01*
X253114Y95093D01*
X252996Y95095D01*
X252877Y95102D01*
X252856Y95097D01*
X252832Y95097D01*
X252653Y95047D01*
X252578Y95029D01*
X251202Y94459D01*
X248795Y94459D01*
X248763Y94455D01*
X248731Y94457D01*
X248624Y94435D01*
X248516Y94419D01*
X248486Y94406D01*
X248455Y94399D01*
X248358Y94348D01*
X248259Y94303D01*
X248234Y94282D01*
X248206Y94267D01*
X248128Y94191D01*
X248045Y94120D01*
X248027Y94093D01*
X248004Y94070D01*
X247950Y93975D01*
X247890Y93884D01*
X247881Y93853D01*
X247865Y93825D01*
X247840Y93718D01*
X247808Y93614D01*
X247807Y93582D01*
X247800Y93550D01*
X247806Y93441D01*
X247804Y93332D01*
X247813Y93301D01*
X247814Y93268D01*
X247850Y93165D01*
X247879Y93060D01*
X247896Y93033D01*
X247907Y93002D01*
X247960Y92929D01*
X248028Y92820D01*
X248040Y92810D01*
X249047Y91301D01*
X249732Y89649D01*
X249861Y88999D01*
X242999Y88999D01*
X242999Y95861D01*
X243745Y95713D01*
X243773Y95711D01*
X243851Y95691D01*
X243883Y95692D01*
X243915Y95686D01*
X244024Y95696D01*
X244133Y95700D01*
X244164Y95710D01*
X244196Y95713D01*
X244297Y95753D01*
X244401Y95787D01*
X244428Y95805D01*
X244458Y95818D01*
X244544Y95885D01*
X244634Y95946D01*
X244655Y95971D01*
X244680Y95991D01*
X244744Y96079D01*
X244813Y96164D01*
X244826Y96193D01*
X244845Y96220D01*
X244882Y96322D01*
X244925Y96423D01*
X244929Y96455D01*
X244940Y96485D01*
X244946Y96594D01*
X244960Y96703D01*
X244954Y96735D01*
X244956Y96767D01*
X244935Y96855D01*
X244915Y96981D01*
X244894Y97025D01*
X244884Y97067D01*
X243959Y99298D01*
X243959Y101702D01*
X244879Y103922D01*
X246578Y105621D01*
X248798Y106541D01*
X251202Y106541D01*
X253422Y105621D01*
X255121Y103922D01*
X256041Y101702D01*
X256041Y100040D01*
X256050Y99976D01*
X256049Y99912D01*
X256070Y99837D01*
X256081Y99761D01*
X256107Y99702D01*
X256124Y99640D01*
X256165Y99574D01*
X256197Y99504D01*
X256239Y99455D01*
X256272Y99400D01*
X256330Y99348D01*
X256380Y99290D01*
X256434Y99254D01*
X256482Y99211D01*
X256551Y99178D01*
X256616Y99135D01*
X256678Y99116D01*
X256735Y99088D01*
X256805Y99077D01*
X256886Y99053D01*
X256971Y99052D01*
X257040Y99041D01*
X267001Y99041D01*
X267001Y92040D01*
X267010Y91976D01*
X267009Y91912D01*
X267030Y91837D01*
X267041Y91761D01*
X267067Y91702D01*
X267084Y91640D01*
X267125Y91574D01*
X267157Y91504D01*
X267199Y91455D01*
X267232Y91400D01*
X267290Y91348D01*
X267340Y91290D01*
X267394Y91254D01*
X267442Y91211D01*
X267511Y91178D01*
X267576Y91135D01*
X267638Y91116D01*
X267695Y91088D01*
X267765Y91077D01*
X267846Y91053D01*
X267931Y91052D01*
X268000Y91041D01*
X270000Y91041D01*
X270064Y91050D01*
X270128Y91049D01*
X270203Y91070D01*
X270279Y91081D01*
X270338Y91107D01*
X270400Y91124D01*
X270466Y91165D01*
X270536Y91197D01*
X270585Y91239D01*
X270640Y91272D01*
X270692Y91330D01*
X270750Y91380D01*
X270786Y91434D01*
X270829Y91482D01*
X270862Y91551D01*
X270905Y91616D01*
X270924Y91678D01*
X270952Y91735D01*
X270962Y91805D01*
X270987Y91886D01*
X270988Y91971D01*
X270999Y92040D01*
X270999Y99041D01*
X281835Y99041D01*
X282481Y98868D01*
X283060Y98533D01*
X283533Y98060D01*
X283868Y97481D01*
X284041Y96835D01*
X284041Y85999D01*
X279048Y85999D01*
X278952Y85985D01*
X278854Y85980D01*
X278812Y85966D01*
X278769Y85959D01*
X278680Y85919D01*
X278588Y85887D01*
X278552Y85861D01*
X278512Y85843D01*
X278438Y85780D01*
X278359Y85723D01*
X278331Y85689D01*
X278297Y85660D01*
X278244Y85578D01*
X278184Y85502D01*
X278167Y85461D01*
X278143Y85424D01*
X278114Y85331D01*
X278078Y85241D01*
X278074Y85199D01*
X278061Y85154D01*
X278059Y85024D01*
X278051Y84933D01*
X278100Y84199D01*
X278106Y84169D01*
X278106Y84139D01*
X278119Y84090D01*
X278117Y84067D01*
X278123Y83995D01*
X278117Y83934D01*
X278119Y83918D01*
X278109Y83887D01*
X278109Y83841D01*
X278100Y83801D01*
X278051Y83066D01*
X278058Y82969D01*
X278057Y82872D01*
X278069Y82829D01*
X278072Y82785D01*
X278106Y82694D01*
X278132Y82600D01*
X278155Y82563D01*
X278171Y82521D01*
X278229Y82443D01*
X278280Y82360D01*
X278313Y82331D01*
X278340Y82295D01*
X278417Y82237D01*
X278489Y82171D01*
X278529Y82152D01*
X278565Y82125D01*
X278656Y82091D01*
X278743Y82048D01*
X278784Y82042D01*
X278828Y82025D01*
X278958Y82015D01*
X279048Y82001D01*
X284041Y82001D01*
X284041Y71165D01*
X283868Y70519D01*
X283533Y69940D01*
X283060Y69467D01*
X282481Y69132D01*
X281835Y68959D01*
X270999Y68959D01*
X270999Y75960D01*
X270991Y76018D01*
X270991Y76020D01*
X270990Y76023D01*
X270990Y76024D01*
X270991Y76088D01*
X270970Y76163D01*
X270959Y76239D01*
X270933Y76298D01*
X270916Y76360D01*
X270875Y76426D01*
X270843Y76496D01*
X270801Y76545D01*
X270768Y76600D01*
X270710Y76652D01*
X270660Y76710D01*
X270606Y76746D01*
X270558Y76789D01*
X270489Y76822D01*
X270424Y76865D01*
X270362Y76884D01*
X270305Y76912D01*
X270235Y76923D01*
X270154Y76947D01*
X270069Y76948D01*
X270000Y76959D01*
X268000Y76959D01*
X267936Y76950D01*
X267872Y76951D01*
X267797Y76930D01*
X267721Y76919D01*
X267662Y76893D01*
X267600Y76876D01*
X267534Y76835D01*
X267464Y76803D01*
X267415Y76761D01*
X267360Y76728D01*
X267308Y76670D01*
X267250Y76620D01*
X267214Y76566D01*
X267171Y76518D01*
X267138Y76449D01*
X267095Y76384D01*
X267076Y76322D01*
X267048Y76265D01*
X267037Y76195D01*
X267013Y76114D01*
X267012Y76029D01*
X267001Y75960D01*
X267001Y68959D01*
X256165Y68959D01*
G37*
%LPD*%
%LPC*%
G36*
X118827Y141877D02*
X118827Y141877D01*
X114813Y143540D01*
X111740Y146613D01*
X110077Y150627D01*
X110077Y154973D01*
X111740Y158987D01*
X114813Y162060D01*
X117358Y163114D01*
X117367Y163119D01*
X117376Y163122D01*
X117488Y163191D01*
X117601Y163258D01*
X117608Y163265D01*
X117616Y163270D01*
X117704Y163368D01*
X117794Y163464D01*
X117798Y163472D01*
X117805Y163479D01*
X117862Y163598D01*
X117922Y163715D01*
X117924Y163724D01*
X117928Y163733D01*
X117940Y163809D01*
X117974Y163992D01*
X117972Y164016D01*
X117975Y164037D01*
X117975Y179253D01*
X120040Y181317D01*
X143909Y205186D01*
X143966Y205263D01*
X144031Y205334D01*
X144051Y205375D01*
X144078Y205412D01*
X144112Y205502D01*
X144154Y205588D01*
X144160Y205630D01*
X144177Y205676D01*
X144187Y205803D01*
X144201Y205893D01*
X144201Y207988D01*
X147012Y210799D01*
X150988Y210799D01*
X153799Y207988D01*
X153799Y204012D01*
X150988Y201201D01*
X148893Y201201D01*
X148798Y201188D01*
X148702Y201183D01*
X148659Y201168D01*
X148614Y201161D01*
X148526Y201122D01*
X148435Y201090D01*
X148401Y201065D01*
X148357Y201045D01*
X148259Y200962D01*
X148186Y200909D01*
X124317Y177040D01*
X124260Y176963D01*
X124195Y176892D01*
X124175Y176851D01*
X124148Y176814D01*
X124114Y176724D01*
X124072Y176638D01*
X124066Y176596D01*
X124049Y176550D01*
X124039Y176423D01*
X124025Y176333D01*
X124025Y164037D01*
X124026Y164028D01*
X124025Y164019D01*
X124046Y163889D01*
X124065Y163758D01*
X124068Y163750D01*
X124070Y163740D01*
X124127Y163621D01*
X124181Y163501D01*
X124187Y163494D01*
X124191Y163486D01*
X124279Y163387D01*
X124364Y163287D01*
X124372Y163282D01*
X124378Y163275D01*
X124444Y163235D01*
X124600Y163133D01*
X124623Y163126D01*
X124642Y163114D01*
X127187Y162060D01*
X130260Y158987D01*
X131923Y154973D01*
X131923Y150627D01*
X130260Y146613D01*
X127187Y143540D01*
X123173Y141877D01*
X118827Y141877D01*
G37*
%LPD*%
%LPC*%
G36*
X110548Y10565D02*
X110548Y10565D01*
X109655Y11458D01*
X109655Y12476D01*
X109646Y12540D01*
X109647Y12604D01*
X109626Y12679D01*
X109615Y12755D01*
X109589Y12814D01*
X109572Y12876D01*
X109531Y12942D01*
X109499Y13012D01*
X109457Y13061D01*
X109424Y13116D01*
X109366Y13168D01*
X109316Y13226D01*
X109262Y13262D01*
X109214Y13305D01*
X109145Y13338D01*
X109080Y13381D01*
X109018Y13400D01*
X108961Y13428D01*
X108891Y13439D01*
X108810Y13463D01*
X108725Y13464D01*
X108656Y13475D01*
X102676Y13475D01*
X102581Y13462D01*
X102484Y13457D01*
X102441Y13442D01*
X102396Y13435D01*
X102309Y13396D01*
X102218Y13364D01*
X102184Y13339D01*
X102139Y13319D01*
X102042Y13236D01*
X101995Y13201D01*
X98012Y13201D01*
X95201Y16012D01*
X95201Y19988D01*
X98012Y22799D01*
X101988Y22799D01*
X104799Y19988D01*
X104799Y19524D01*
X104808Y19460D01*
X104807Y19396D01*
X104828Y19321D01*
X104839Y19245D01*
X104865Y19186D01*
X104882Y19124D01*
X104923Y19058D01*
X104955Y18988D01*
X104997Y18939D01*
X105030Y18884D01*
X105088Y18832D01*
X105138Y18774D01*
X105192Y18738D01*
X105240Y18695D01*
X105309Y18662D01*
X105374Y18619D01*
X105436Y18600D01*
X105493Y18572D01*
X105563Y18561D01*
X105644Y18537D01*
X105729Y18536D01*
X105798Y18525D01*
X108656Y18525D01*
X108720Y18534D01*
X108784Y18533D01*
X108859Y18554D01*
X108935Y18565D01*
X108994Y18591D01*
X109056Y18608D01*
X109122Y18649D01*
X109192Y18681D01*
X109241Y18723D01*
X109296Y18756D01*
X109348Y18814D01*
X109406Y18864D01*
X109442Y18918D01*
X109485Y18966D01*
X109518Y19035D01*
X109561Y19100D01*
X109580Y19162D01*
X109608Y19219D01*
X109619Y19289D01*
X109643Y19370D01*
X109644Y19455D01*
X109655Y19524D01*
X109655Y20342D01*
X110548Y21235D01*
X129725Y21235D01*
X129759Y21225D01*
X129861Y21186D01*
X129893Y21184D01*
X129924Y21174D01*
X130033Y21173D01*
X130142Y21164D01*
X130174Y21171D01*
X130206Y21170D01*
X130311Y21199D01*
X130418Y21222D01*
X130447Y21237D01*
X130478Y21246D01*
X130571Y21303D01*
X130667Y21354D01*
X130690Y21377D01*
X130718Y21394D01*
X130791Y21475D01*
X130869Y21551D01*
X130885Y21579D01*
X130907Y21603D01*
X130954Y21701D01*
X131008Y21796D01*
X131016Y21828D01*
X131030Y21857D01*
X131044Y21946D01*
X131073Y22071D01*
X131071Y22119D01*
X131077Y22161D01*
X131077Y24173D01*
X132740Y28187D01*
X135813Y31260D01*
X139827Y32923D01*
X144173Y32923D01*
X148187Y31260D01*
X151260Y28187D01*
X152923Y24173D01*
X152923Y19827D01*
X151260Y15813D01*
X148187Y12740D01*
X144173Y11077D01*
X139827Y11077D01*
X135813Y12740D01*
X132740Y15813D01*
X132407Y16617D01*
X132363Y16691D01*
X132327Y16770D01*
X132292Y16812D01*
X132264Y16859D01*
X132200Y16919D01*
X132144Y16985D01*
X132098Y17015D01*
X132058Y17052D01*
X131981Y17092D01*
X131908Y17139D01*
X131855Y17155D01*
X131806Y17180D01*
X131721Y17196D01*
X131638Y17222D01*
X131583Y17222D01*
X131529Y17233D01*
X131443Y17224D01*
X131356Y17225D01*
X131303Y17211D01*
X131249Y17205D01*
X131168Y17173D01*
X131084Y17150D01*
X131038Y17121D01*
X130987Y17101D01*
X130918Y17048D01*
X130844Y17002D01*
X130808Y16961D01*
X130764Y16927D01*
X130713Y16857D01*
X130655Y16793D01*
X130631Y16743D01*
X130599Y16699D01*
X130570Y16617D01*
X130532Y16539D01*
X130524Y16489D01*
X130505Y16433D01*
X130498Y16319D01*
X130485Y16234D01*
X130485Y11458D01*
X129592Y10565D01*
X110548Y10565D01*
G37*
%LPD*%
%LPC*%
G36*
X163012Y179201D02*
X163012Y179201D01*
X160201Y182012D01*
X160201Y185988D01*
X161183Y186969D01*
X161240Y187046D01*
X161305Y187117D01*
X161325Y187158D01*
X161352Y187195D01*
X161386Y187285D01*
X161428Y187371D01*
X161434Y187413D01*
X161451Y187458D01*
X161461Y187586D01*
X161475Y187676D01*
X161475Y192460D01*
X198540Y229525D01*
X205324Y229525D01*
X205419Y229538D01*
X205516Y229543D01*
X205559Y229558D01*
X205604Y229565D01*
X205691Y229604D01*
X205782Y229636D01*
X205816Y229661D01*
X205861Y229681D01*
X205958Y229764D01*
X206031Y229817D01*
X207012Y230799D01*
X210988Y230799D01*
X213799Y227988D01*
X213799Y224012D01*
X210988Y221201D01*
X207012Y221201D01*
X206031Y222183D01*
X205954Y222240D01*
X205883Y222305D01*
X205842Y222325D01*
X205805Y222352D01*
X205715Y222386D01*
X205629Y222428D01*
X205587Y222434D01*
X205542Y222451D01*
X205414Y222461D01*
X205324Y222475D01*
X201874Y222475D01*
X201779Y222462D01*
X201683Y222457D01*
X201640Y222442D01*
X201595Y222435D01*
X201507Y222396D01*
X201416Y222364D01*
X201382Y222339D01*
X201338Y222319D01*
X201240Y222236D01*
X201167Y222183D01*
X168817Y189833D01*
X168760Y189756D01*
X168695Y189684D01*
X168675Y189644D01*
X168648Y189607D01*
X168614Y189517D01*
X168572Y189431D01*
X168566Y189389D01*
X168549Y189343D01*
X168539Y189216D01*
X168525Y189126D01*
X168525Y187676D01*
X168538Y187581D01*
X168543Y187484D01*
X168558Y187441D01*
X168565Y187396D01*
X168604Y187309D01*
X168636Y187218D01*
X168661Y187184D01*
X168681Y187139D01*
X168764Y187042D01*
X168817Y186969D01*
X169799Y185988D01*
X169799Y182012D01*
X166988Y179201D01*
X163012Y179201D01*
G37*
%LPD*%
%LPC*%
G36*
X139909Y146951D02*
X139909Y146951D01*
X136951Y149909D01*
X136951Y154091D01*
X138183Y155323D01*
X138240Y155399D01*
X138305Y155471D01*
X138325Y155512D01*
X138352Y155548D01*
X138386Y155638D01*
X138428Y155725D01*
X138434Y155767D01*
X138451Y155812D01*
X138461Y155940D01*
X138475Y156029D01*
X138475Y182460D01*
X146659Y190643D01*
X146716Y190720D01*
X146781Y190792D01*
X146801Y190832D01*
X146828Y190869D01*
X146862Y190959D01*
X146904Y191045D01*
X146910Y191087D01*
X146927Y191133D01*
X146937Y191260D01*
X146951Y191350D01*
X146951Y193091D01*
X149909Y196049D01*
X154091Y196049D01*
X157049Y193091D01*
X157049Y188909D01*
X154091Y185951D01*
X152350Y185951D01*
X152255Y185938D01*
X152159Y185933D01*
X152116Y185918D01*
X152071Y185911D01*
X151983Y185872D01*
X151892Y185840D01*
X151858Y185815D01*
X151814Y185795D01*
X151716Y185712D01*
X151643Y185659D01*
X145817Y179833D01*
X145760Y179756D01*
X145695Y179684D01*
X145675Y179644D01*
X145648Y179607D01*
X145614Y179517D01*
X145572Y179431D01*
X145566Y179389D01*
X145549Y179343D01*
X145539Y179216D01*
X145525Y179126D01*
X145525Y156029D01*
X145538Y155934D01*
X145543Y155838D01*
X145558Y155795D01*
X145565Y155750D01*
X145604Y155662D01*
X145636Y155572D01*
X145661Y155537D01*
X145681Y155493D01*
X145764Y155396D01*
X145817Y155323D01*
X147049Y154091D01*
X147049Y149909D01*
X144091Y146951D01*
X139909Y146951D01*
G37*
%LPD*%
%LPC*%
G36*
X31827Y11077D02*
X31827Y11077D01*
X27813Y12740D01*
X24740Y15813D01*
X23077Y19827D01*
X23077Y24173D01*
X24740Y28187D01*
X27813Y31260D01*
X31827Y32923D01*
X36173Y32923D01*
X40187Y31260D01*
X43260Y28187D01*
X44923Y24173D01*
X44923Y19827D01*
X43260Y15813D01*
X40187Y12740D01*
X36173Y11077D01*
X31827Y11077D01*
G37*
%LPD*%
%LPC*%
G36*
X278212Y335555D02*
X278212Y335555D01*
X272855Y340912D01*
X272855Y348488D01*
X278212Y353845D01*
X285788Y353845D01*
X291145Y348488D01*
X291145Y340912D01*
X285788Y335555D01*
X278212Y335555D01*
G37*
%LPD*%
%LPC*%
G36*
X278212Y360955D02*
X278212Y360955D01*
X272855Y366312D01*
X272855Y373888D01*
X278212Y379245D01*
X285788Y379245D01*
X291145Y373888D01*
X291145Y366312D01*
X285788Y360955D01*
X278212Y360955D01*
G37*
%LPD*%
%LPC*%
G36*
X278212Y386355D02*
X278212Y386355D01*
X272855Y391712D01*
X272855Y399288D01*
X278212Y404645D01*
X285788Y404645D01*
X291145Y399288D01*
X291145Y391712D01*
X285788Y386355D01*
X278212Y386355D01*
G37*
%LPD*%
%LPC*%
G36*
X14212Y264955D02*
X14212Y264955D01*
X8855Y270312D01*
X8855Y277888D01*
X14212Y283245D01*
X21788Y283245D01*
X27145Y277888D01*
X27145Y270312D01*
X21788Y264955D01*
X14212Y264955D01*
G37*
%LPD*%
%LPC*%
G36*
X278212Y310155D02*
X278212Y310155D01*
X272855Y315512D01*
X272855Y323088D01*
X278212Y328445D01*
X285788Y328445D01*
X291145Y323088D01*
X291145Y315512D01*
X285788Y310155D01*
X278212Y310155D01*
G37*
%LPD*%
%LPC*%
G36*
X14212Y239555D02*
X14212Y239555D01*
X8855Y244912D01*
X8855Y252488D01*
X14212Y257845D01*
X21788Y257845D01*
X27145Y252488D01*
X27145Y244912D01*
X21788Y239555D01*
X14212Y239555D01*
G37*
%LPD*%
%LPC*%
G36*
X14212Y214155D02*
X14212Y214155D01*
X8855Y219512D01*
X8855Y227088D01*
X14212Y232445D01*
X21788Y232445D01*
X27145Y227088D01*
X27145Y219512D01*
X21788Y214155D01*
X14212Y214155D01*
G37*
%LPD*%
%LPC*%
G36*
X14212Y290355D02*
X14212Y290355D01*
X8855Y295712D01*
X8855Y303288D01*
X14212Y308645D01*
X21788Y308645D01*
X27145Y303288D01*
X27145Y295712D01*
X21788Y290355D01*
X14212Y290355D01*
G37*
%LPD*%
%LPC*%
G36*
X14212Y188755D02*
X14212Y188755D01*
X8855Y194112D01*
X8855Y201688D01*
X14212Y207045D01*
X21788Y207045D01*
X27145Y201688D01*
X27145Y194112D01*
X21788Y188755D01*
X14212Y188755D01*
G37*
%LPD*%
%LPC*%
G36*
X278212Y284755D02*
X278212Y284755D01*
X272855Y290112D01*
X272855Y297688D01*
X278212Y303045D01*
X285788Y303045D01*
X291145Y297688D01*
X291145Y290112D01*
X285788Y284755D01*
X278212Y284755D01*
G37*
%LPD*%
%LPC*%
G36*
X150909Y137951D02*
X150909Y137951D01*
X147951Y140909D01*
X147951Y145091D01*
X150183Y147323D01*
X150240Y147399D01*
X150305Y147471D01*
X150325Y147512D01*
X150352Y147548D01*
X150386Y147638D01*
X150428Y147725D01*
X150434Y147767D01*
X150451Y147812D01*
X150461Y147940D01*
X150475Y148029D01*
X150475Y165971D01*
X150462Y166066D01*
X150457Y166162D01*
X150442Y166205D01*
X150435Y166250D01*
X150396Y166338D01*
X150364Y166428D01*
X150339Y166463D01*
X150319Y166507D01*
X150236Y166604D01*
X150183Y166677D01*
X147951Y168909D01*
X147951Y173091D01*
X150909Y176049D01*
X155091Y176049D01*
X158049Y173091D01*
X158049Y168909D01*
X155817Y166677D01*
X155760Y166601D01*
X155695Y166529D01*
X155675Y166488D01*
X155648Y166452D01*
X155614Y166362D01*
X155572Y166275D01*
X155566Y166233D01*
X155549Y166188D01*
X155539Y166060D01*
X155525Y165971D01*
X155525Y148029D01*
X155538Y147934D01*
X155543Y147838D01*
X155558Y147795D01*
X155565Y147750D01*
X155604Y147662D01*
X155636Y147572D01*
X155661Y147537D01*
X155681Y147493D01*
X155764Y147396D01*
X155817Y147323D01*
X158049Y145091D01*
X158049Y140909D01*
X155091Y137951D01*
X150909Y137951D01*
G37*
%LPD*%
%LPC*%
G36*
X110548Y28565D02*
X110548Y28565D01*
X109655Y29458D01*
X109655Y38342D01*
X110548Y39235D01*
X129592Y39235D01*
X130485Y38342D01*
X130485Y29458D01*
X129592Y28565D01*
X110548Y28565D01*
G37*
%LPD*%
%LPC*%
G36*
X13349Y328406D02*
X13349Y328406D01*
X10595Y329547D01*
X8487Y331655D01*
X7346Y334409D01*
X7346Y337391D01*
X8487Y340145D01*
X10595Y342253D01*
X13349Y343394D01*
X16331Y343394D01*
X19085Y342253D01*
X21193Y340145D01*
X22334Y337391D01*
X22334Y334409D01*
X21193Y331655D01*
X19085Y329547D01*
X16331Y328406D01*
X13349Y328406D01*
G37*
%LPD*%
%LPC*%
G36*
X23509Y404606D02*
X23509Y404606D01*
X20755Y405747D01*
X18647Y407855D01*
X17506Y410609D01*
X17506Y413591D01*
X18647Y416345D01*
X20755Y418453D01*
X23509Y419594D01*
X26491Y419594D01*
X29245Y418453D01*
X31353Y416345D01*
X32494Y413591D01*
X32494Y410609D01*
X31353Y407855D01*
X29245Y405747D01*
X26491Y404606D01*
X23509Y404606D01*
G37*
%LPD*%
%LPC*%
G36*
X33669Y328406D02*
X33669Y328406D01*
X30915Y329547D01*
X28807Y331655D01*
X27666Y334409D01*
X27666Y337391D01*
X28807Y340145D01*
X30915Y342253D01*
X33669Y343394D01*
X36651Y343394D01*
X39405Y342253D01*
X41513Y340145D01*
X42654Y337391D01*
X42654Y334409D01*
X41513Y331655D01*
X39405Y329547D01*
X36651Y328406D01*
X33669Y328406D01*
G37*
%LPD*%
%LPC*%
G36*
X282550Y193209D02*
X282550Y193209D01*
X279870Y194319D01*
X277819Y196370D01*
X276709Y199050D01*
X276709Y201950D01*
X277819Y204630D01*
X279870Y206681D01*
X282550Y207791D01*
X285450Y207791D01*
X288130Y206681D01*
X290181Y204630D01*
X291291Y201950D01*
X291291Y199050D01*
X290181Y196370D01*
X288130Y194319D01*
X285450Y193209D01*
X282550Y193209D01*
G37*
%LPD*%
%LPC*%
G36*
X282550Y216209D02*
X282550Y216209D01*
X279870Y217319D01*
X277819Y219370D01*
X276709Y222050D01*
X276709Y224950D01*
X277819Y227630D01*
X279870Y229681D01*
X282550Y230791D01*
X285450Y230791D01*
X288130Y229681D01*
X290181Y227630D01*
X291291Y224950D01*
X291291Y222050D01*
X290181Y219370D01*
X288130Y217319D01*
X285450Y216209D01*
X282550Y216209D01*
G37*
%LPD*%
%LPC*%
G36*
X242999Y154999D02*
X242999Y154999D01*
X242999Y174941D01*
X243649Y174812D01*
X245301Y174127D01*
X246789Y173133D01*
X248053Y171869D01*
X249047Y170381D01*
X249732Y168729D01*
X250081Y166974D01*
X250081Y154999D01*
X242999Y154999D01*
G37*
%LPD*%
%LPC*%
G36*
X242999Y85001D02*
X242999Y85001D01*
X250081Y85001D01*
X250081Y73026D01*
X249732Y71271D01*
X249047Y69619D01*
X248053Y68131D01*
X246789Y66867D01*
X245301Y65873D01*
X243649Y65188D01*
X242999Y65059D01*
X242999Y85001D01*
G37*
%LPD*%
%LPC*%
G36*
X231919Y154999D02*
X231919Y154999D01*
X231919Y166974D01*
X232268Y168729D01*
X232953Y170381D01*
X233947Y171869D01*
X235211Y173133D01*
X236699Y174127D01*
X238351Y174812D01*
X239001Y174941D01*
X239001Y154999D01*
X231919Y154999D01*
G37*
%LPD*%
%LPC*%
G36*
X238351Y65188D02*
X238351Y65188D01*
X236699Y65873D01*
X235211Y66867D01*
X233947Y68131D01*
X232953Y69619D01*
X232268Y71271D01*
X231919Y73026D01*
X231919Y85001D01*
X239001Y85001D01*
X239001Y65059D01*
X238351Y65188D01*
G37*
%LPD*%
%LPC*%
G36*
X122999Y103999D02*
X122999Y103999D01*
X122999Y113771D01*
X123796Y113645D01*
X125583Y113064D01*
X127257Y112211D01*
X128778Y111106D01*
X130106Y109778D01*
X131211Y108257D01*
X132064Y106583D01*
X132645Y104796D01*
X132771Y103999D01*
X122999Y103999D01*
G37*
%LPD*%
%LPC*%
G36*
X169399Y23999D02*
X169399Y23999D01*
X169399Y33771D01*
X170196Y33645D01*
X171983Y33064D01*
X173657Y32211D01*
X175178Y31106D01*
X176506Y29778D01*
X177611Y28257D01*
X178464Y26583D01*
X179045Y24796D01*
X179171Y23999D01*
X169399Y23999D01*
G37*
%LPD*%
%LPC*%
G36*
X169399Y20001D02*
X169399Y20001D01*
X179171Y20001D01*
X179045Y19204D01*
X178464Y17417D01*
X177611Y15743D01*
X176506Y14222D01*
X175178Y12894D01*
X173657Y11789D01*
X171983Y10936D01*
X170196Y10355D01*
X169399Y10229D01*
X169399Y20001D01*
G37*
%LPD*%
%LPC*%
G36*
X122999Y100001D02*
X122999Y100001D01*
X132771Y100001D01*
X132645Y99204D01*
X132064Y97417D01*
X131211Y95743D01*
X130106Y94222D01*
X128778Y92894D01*
X127257Y91789D01*
X125583Y90936D01*
X123796Y90355D01*
X122999Y90229D01*
X122999Y100001D01*
G37*
%LPD*%
%LPC*%
G36*
X109229Y103999D02*
X109229Y103999D01*
X109355Y104796D01*
X109936Y106583D01*
X110789Y108257D01*
X111894Y109778D01*
X113222Y111106D01*
X114743Y112211D01*
X116417Y113064D01*
X118204Y113645D01*
X119001Y113771D01*
X119001Y103999D01*
X109229Y103999D01*
G37*
%LPD*%
%LPC*%
G36*
X155629Y23999D02*
X155629Y23999D01*
X155755Y24796D01*
X156336Y26583D01*
X157189Y28257D01*
X158294Y29778D01*
X159622Y31106D01*
X161143Y32211D01*
X162817Y33064D01*
X164604Y33645D01*
X165401Y33771D01*
X165401Y23999D01*
X155629Y23999D01*
G37*
%LPD*%
%LPC*%
G36*
X164604Y10355D02*
X164604Y10355D01*
X162817Y10936D01*
X161143Y11789D01*
X159622Y12894D01*
X158294Y14222D01*
X157189Y15743D01*
X156336Y17417D01*
X155755Y19204D01*
X155629Y20001D01*
X165401Y20001D01*
X165401Y10229D01*
X164604Y10355D01*
G37*
%LPD*%
%LPC*%
G36*
X118204Y90355D02*
X118204Y90355D01*
X116417Y90936D01*
X114743Y91789D01*
X113222Y92894D01*
X111894Y94222D01*
X110789Y95743D01*
X109936Y97417D01*
X109355Y99204D01*
X109229Y100001D01*
X119001Y100001D01*
X119001Y90229D01*
X118204Y90355D01*
G37*
%LPD*%
%LPC*%
G36*
X283999Y270499D02*
X283999Y270499D01*
X283999Y278661D01*
X286209Y278661D01*
X292161Y272709D01*
X292161Y270499D01*
X283999Y270499D01*
G37*
%LPD*%
%LPC*%
G36*
X19999Y174499D02*
X19999Y174499D01*
X19999Y182661D01*
X22209Y182661D01*
X28161Y176709D01*
X28161Y174499D01*
X19999Y174499D01*
G37*
%LPD*%
%LPC*%
G36*
X271839Y270499D02*
X271839Y270499D01*
X271839Y272709D01*
X277791Y278661D01*
X280001Y278661D01*
X280001Y270499D01*
X271839Y270499D01*
G37*
%LPD*%
%LPC*%
G36*
X7839Y174499D02*
X7839Y174499D01*
X7839Y176709D01*
X13791Y182661D01*
X16001Y182661D01*
X16001Y174499D01*
X7839Y174499D01*
G37*
%LPD*%
%LPC*%
G36*
X283999Y258339D02*
X283999Y258339D01*
X283999Y266501D01*
X292161Y266501D01*
X292161Y264291D01*
X286209Y258339D01*
X283999Y258339D01*
G37*
%LPD*%
%LPC*%
G36*
X19999Y162339D02*
X19999Y162339D01*
X19999Y170501D01*
X28161Y170501D01*
X28161Y168291D01*
X22209Y162339D01*
X19999Y162339D01*
G37*
%LPD*%
%LPC*%
G36*
X277791Y258339D02*
X277791Y258339D01*
X271839Y264291D01*
X271839Y266501D01*
X280001Y266501D01*
X280001Y258339D01*
X277791Y258339D01*
G37*
%LPD*%
%LPC*%
G36*
X13791Y162339D02*
X13791Y162339D01*
X7839Y168291D01*
X7839Y170501D01*
X16001Y170501D01*
X16001Y162339D01*
X13791Y162339D01*
G37*
%LPD*%
%LPC*%
G36*
X232139Y88999D02*
X232139Y88999D01*
X232268Y89649D01*
X232953Y91301D01*
X233947Y92789D01*
X235211Y94053D01*
X236699Y95047D01*
X238351Y95732D01*
X239001Y95861D01*
X239001Y88999D01*
X232139Y88999D01*
G37*
%LPD*%
%LPC*%
G36*
X238351Y144268D02*
X238351Y144268D01*
X236699Y144953D01*
X235211Y145947D01*
X233947Y147211D01*
X232953Y148699D01*
X232268Y150351D01*
X232139Y151001D01*
X239001Y151001D01*
X239001Y144139D01*
X238351Y144268D01*
G37*
%LPD*%
%LPC*%
G36*
X17999Y172499D02*
X17999Y172499D01*
X17999Y172501D01*
X18001Y172501D01*
X18001Y172499D01*
X17999Y172499D01*
G37*
%LPD*%
%LPC*%
G36*
X120999Y101999D02*
X120999Y101999D01*
X120999Y102001D01*
X121001Y102001D01*
X121001Y101999D01*
X120999Y101999D01*
G37*
%LPD*%
%LPC*%
G36*
X281999Y268499D02*
X281999Y268499D01*
X281999Y268501D01*
X282001Y268501D01*
X282001Y268499D01*
X281999Y268499D01*
G37*
%LPD*%
%LPC*%
G36*
X167399Y21999D02*
X167399Y21999D01*
X167399Y22001D01*
X167401Y22001D01*
X167401Y21999D01*
X167399Y21999D01*
G37*
%LPD*%
%LPC*%
G36*
X240999Y86999D02*
X240999Y86999D01*
X240999Y87001D01*
X241001Y87001D01*
X241001Y86999D01*
X240999Y86999D01*
G37*
%LPD*%
%LPC*%
G36*
X240999Y152999D02*
X240999Y152999D01*
X240999Y153001D01*
X241001Y153001D01*
X241001Y152999D01*
X240999Y152999D01*
G37*
%LPD*%
D10*
X0Y0D02*
X300000Y-600D01*
X299900Y499400D01*
X0Y500000D01*
X0Y0D01*
D11*
X0Y500000D02*
X-150000Y500000D01*
X-150000Y0D02*
X0Y0D01*
X-130500Y650D02*
X-130500Y499350D01*
X-133692Y474000D01*
X-127308Y474000D01*
X-130500Y499350D01*
X-131800Y474000D01*
X-129200Y474000D02*
X-130500Y499350D01*
X-133100Y474000D01*
X-127900Y474000D02*
X-130500Y499350D01*
X-133692Y26000D02*
X-130500Y650D01*
X-133692Y26000D02*
X-127308Y26000D01*
X-130500Y650D01*
X-131800Y26000D01*
X-129200Y26000D02*
X-130500Y650D01*
X-133100Y26000D01*
X-127900Y26000D02*
X-130500Y650D01*
D12*
X-137007Y218941D02*
X-137007Y224360D01*
X-137009Y224478D01*
X-137015Y224596D01*
X-137024Y224714D01*
X-137038Y224831D01*
X-137055Y224948D01*
X-137076Y225065D01*
X-137101Y225180D01*
X-137130Y225295D01*
X-137163Y225409D01*
X-137199Y225521D01*
X-137239Y225632D01*
X-137282Y225742D01*
X-137329Y225851D01*
X-137379Y225958D01*
X-137434Y226063D01*
X-137491Y226166D01*
X-137552Y226267D01*
X-137616Y226367D01*
X-137683Y226464D01*
X-137753Y226559D01*
X-137827Y226651D01*
X-137903Y226742D01*
X-137983Y226829D01*
X-138065Y226914D01*
X-138150Y226996D01*
X-138237Y227076D01*
X-138328Y227152D01*
X-138420Y227226D01*
X-138515Y227296D01*
X-138612Y227363D01*
X-138712Y227427D01*
X-138813Y227488D01*
X-138916Y227545D01*
X-139021Y227600D01*
X-139128Y227650D01*
X-139237Y227697D01*
X-139347Y227740D01*
X-139458Y227780D01*
X-139570Y227816D01*
X-139684Y227849D01*
X-139799Y227878D01*
X-139914Y227903D01*
X-140031Y227924D01*
X-140148Y227941D01*
X-140265Y227955D01*
X-140383Y227964D01*
X-140501Y227970D01*
X-140619Y227972D01*
X-142426Y227972D01*
X-142544Y227970D01*
X-142662Y227964D01*
X-142780Y227955D01*
X-142897Y227941D01*
X-143014Y227924D01*
X-143131Y227903D01*
X-143246Y227878D01*
X-143361Y227849D01*
X-143475Y227816D01*
X-143587Y227780D01*
X-143698Y227740D01*
X-143808Y227697D01*
X-143917Y227650D01*
X-144024Y227600D01*
X-144129Y227545D01*
X-144232Y227488D01*
X-144333Y227427D01*
X-144433Y227363D01*
X-144530Y227296D01*
X-144625Y227226D01*
X-144717Y227152D01*
X-144808Y227076D01*
X-144895Y226996D01*
X-144980Y226914D01*
X-145062Y226829D01*
X-145142Y226742D01*
X-145218Y226651D01*
X-145292Y226559D01*
X-145362Y226464D01*
X-145429Y226367D01*
X-145493Y226267D01*
X-145554Y226166D01*
X-145611Y226063D01*
X-145666Y225958D01*
X-145716Y225851D01*
X-145763Y225742D01*
X-145806Y225632D01*
X-145846Y225521D01*
X-145882Y225409D01*
X-145915Y225295D01*
X-145944Y225180D01*
X-145969Y225065D01*
X-145990Y224948D01*
X-146007Y224831D01*
X-146021Y224714D01*
X-146030Y224596D01*
X-146036Y224478D01*
X-146038Y224360D01*
X-146038Y218941D01*
X-153263Y218941D01*
X-153263Y227972D01*
X-151005Y235928D02*
X-150716Y235791D01*
X-150424Y235661D01*
X-150128Y235538D01*
X-149830Y235423D01*
X-149529Y235314D01*
X-149226Y235213D01*
X-148920Y235119D01*
X-148613Y235032D01*
X-148303Y234953D01*
X-147991Y234881D01*
X-147678Y234817D01*
X-147363Y234760D01*
X-147047Y234710D01*
X-146730Y234668D01*
X-146412Y234634D01*
X-146094Y234607D01*
X-145774Y234588D01*
X-145455Y234577D01*
X-145135Y234573D01*
X-151006Y235927D02*
X-151114Y235966D01*
X-151221Y236009D01*
X-151326Y236055D01*
X-151430Y236106D01*
X-151532Y236159D01*
X-151632Y236216D01*
X-151730Y236277D01*
X-151825Y236341D01*
X-151919Y236408D01*
X-152010Y236479D01*
X-152099Y236552D01*
X-152185Y236629D01*
X-152268Y236708D01*
X-152349Y236790D01*
X-152427Y236875D01*
X-152501Y236963D01*
X-152573Y237053D01*
X-152641Y237145D01*
X-152707Y237240D01*
X-152769Y237337D01*
X-152827Y237436D01*
X-152883Y237538D01*
X-152934Y237640D01*
X-152982Y237745D01*
X-153027Y237851D01*
X-153068Y237959D01*
X-153105Y238068D01*
X-153138Y238178D01*
X-153167Y238290D01*
X-153193Y238402D01*
X-153215Y238515D01*
X-153232Y238629D01*
X-153246Y238743D01*
X-153256Y238858D01*
X-153262Y238973D01*
X-153264Y239088D01*
X-153263Y239088D02*
X-153261Y239203D01*
X-153255Y239318D01*
X-153245Y239433D01*
X-153231Y239547D01*
X-153214Y239661D01*
X-153192Y239774D01*
X-153166Y239886D01*
X-153137Y239998D01*
X-153104Y240108D01*
X-153067Y240217D01*
X-153026Y240325D01*
X-152981Y240431D01*
X-152933Y240536D01*
X-152882Y240638D01*
X-152826Y240739D01*
X-152768Y240839D01*
X-152706Y240936D01*
X-152641Y241030D01*
X-152572Y241123D01*
X-152500Y241213D01*
X-152426Y241301D01*
X-152348Y241386D01*
X-152267Y241468D01*
X-152184Y241547D01*
X-152098Y241624D01*
X-152009Y241697D01*
X-151918Y241768D01*
X-151824Y241835D01*
X-151729Y241899D01*
X-151631Y241960D01*
X-151531Y242017D01*
X-151429Y242070D01*
X-151325Y242121D01*
X-151220Y242167D01*
X-151113Y242210D01*
X-151005Y242249D01*
X-151005Y242248D02*
X-150716Y242385D01*
X-150424Y242515D01*
X-150128Y242638D01*
X-149830Y242753D01*
X-149529Y242862D01*
X-149226Y242963D01*
X-148920Y243057D01*
X-148613Y243144D01*
X-148303Y243223D01*
X-147991Y243295D01*
X-147678Y243359D01*
X-147363Y243416D01*
X-147047Y243466D01*
X-146730Y243508D01*
X-146412Y243542D01*
X-146094Y243569D01*
X-145774Y243588D01*
X-145455Y243599D01*
X-145135Y243603D01*
X-145135Y234573D02*
X-144815Y234577D01*
X-144496Y234588D01*
X-144176Y234607D01*
X-143858Y234634D01*
X-143540Y234668D01*
X-143223Y234710D01*
X-142907Y234760D01*
X-142592Y234817D01*
X-142279Y234881D01*
X-141967Y234953D01*
X-141657Y235032D01*
X-141350Y235119D01*
X-141044Y235213D01*
X-140741Y235314D01*
X-140440Y235423D01*
X-140142Y235538D01*
X-139846Y235661D01*
X-139554Y235791D01*
X-139265Y235928D01*
X-139265Y235927D02*
X-139157Y235966D01*
X-139050Y236009D01*
X-138945Y236055D01*
X-138841Y236106D01*
X-138739Y236159D01*
X-138639Y236216D01*
X-138541Y236277D01*
X-138446Y236341D01*
X-138352Y236408D01*
X-138261Y236479D01*
X-138172Y236552D01*
X-138086Y236629D01*
X-138003Y236708D01*
X-137922Y236790D01*
X-137844Y236875D01*
X-137770Y236963D01*
X-137698Y237053D01*
X-137629Y237146D01*
X-137564Y237240D01*
X-137502Y237337D01*
X-137444Y237437D01*
X-137388Y237538D01*
X-137337Y237640D01*
X-137289Y237745D01*
X-137244Y237851D01*
X-137203Y237959D01*
X-137166Y238068D01*
X-137133Y238178D01*
X-137104Y238290D01*
X-137078Y238402D01*
X-137056Y238515D01*
X-137039Y238629D01*
X-137025Y238743D01*
X-137015Y238858D01*
X-137009Y238973D01*
X-137007Y239088D01*
X-139265Y242248D02*
X-139554Y242385D01*
X-139846Y242515D01*
X-140142Y242638D01*
X-140440Y242753D01*
X-140741Y242862D01*
X-141044Y242963D01*
X-141350Y243057D01*
X-141657Y243144D01*
X-141967Y243223D01*
X-142279Y243295D01*
X-142592Y243359D01*
X-142907Y243416D01*
X-143223Y243466D01*
X-143540Y243508D01*
X-143858Y243542D01*
X-144176Y243569D01*
X-144496Y243588D01*
X-144815Y243599D01*
X-145135Y243603D01*
X-139265Y242249D02*
X-139157Y242210D01*
X-139050Y242167D01*
X-138945Y242121D01*
X-138841Y242070D01*
X-138739Y242017D01*
X-138639Y241960D01*
X-138541Y241899D01*
X-138446Y241835D01*
X-138352Y241768D01*
X-138261Y241697D01*
X-138172Y241624D01*
X-138086Y241547D01*
X-138003Y241468D01*
X-137922Y241386D01*
X-137844Y241301D01*
X-137770Y241213D01*
X-137698Y241123D01*
X-137629Y241030D01*
X-137564Y240936D01*
X-137502Y240839D01*
X-137444Y240739D01*
X-137388Y240638D01*
X-137337Y240535D01*
X-137289Y240431D01*
X-137244Y240325D01*
X-137203Y240217D01*
X-137166Y240108D01*
X-137133Y239998D01*
X-137104Y239886D01*
X-137078Y239774D01*
X-137056Y239661D01*
X-137039Y239547D01*
X-137025Y239433D01*
X-137015Y239318D01*
X-137009Y239203D01*
X-137007Y239088D01*
X-140619Y235476D02*
X-149651Y242701D01*
X-137910Y249578D02*
X-137007Y249578D01*
X-137910Y249578D02*
X-137910Y250481D01*
X-137007Y250481D01*
X-137007Y249578D01*
X-145135Y256456D02*
X-145455Y256460D01*
X-145774Y256471D01*
X-146094Y256490D01*
X-146412Y256517D01*
X-146730Y256551D01*
X-147047Y256593D01*
X-147363Y256643D01*
X-147678Y256700D01*
X-147991Y256764D01*
X-148303Y256836D01*
X-148613Y256915D01*
X-148920Y257002D01*
X-149226Y257096D01*
X-149529Y257197D01*
X-149830Y257306D01*
X-150128Y257421D01*
X-150424Y257544D01*
X-150716Y257674D01*
X-151005Y257811D01*
X-151006Y257811D02*
X-151114Y257850D01*
X-151221Y257893D01*
X-151326Y257939D01*
X-151430Y257990D01*
X-151532Y258043D01*
X-151632Y258100D01*
X-151730Y258161D01*
X-151825Y258225D01*
X-151919Y258292D01*
X-152010Y258363D01*
X-152099Y258436D01*
X-152185Y258513D01*
X-152268Y258592D01*
X-152349Y258674D01*
X-152427Y258759D01*
X-152501Y258847D01*
X-152573Y258937D01*
X-152641Y259029D01*
X-152707Y259124D01*
X-152769Y259221D01*
X-152827Y259320D01*
X-152883Y259422D01*
X-152934Y259524D01*
X-152982Y259629D01*
X-153027Y259735D01*
X-153068Y259843D01*
X-153105Y259952D01*
X-153138Y260062D01*
X-153167Y260174D01*
X-153193Y260286D01*
X-153215Y260399D01*
X-153232Y260513D01*
X-153246Y260627D01*
X-153256Y260742D01*
X-153262Y260857D01*
X-153264Y260972D01*
X-153263Y260972D02*
X-153261Y261087D01*
X-153255Y261202D01*
X-153245Y261317D01*
X-153231Y261431D01*
X-153214Y261545D01*
X-153192Y261658D01*
X-153166Y261770D01*
X-153137Y261882D01*
X-153104Y261992D01*
X-153067Y262101D01*
X-153026Y262209D01*
X-152981Y262315D01*
X-152933Y262420D01*
X-152882Y262522D01*
X-152826Y262623D01*
X-152768Y262723D01*
X-152706Y262820D01*
X-152641Y262914D01*
X-152572Y263007D01*
X-152500Y263097D01*
X-152426Y263185D01*
X-152348Y263270D01*
X-152267Y263352D01*
X-152184Y263431D01*
X-152098Y263508D01*
X-152009Y263581D01*
X-151918Y263652D01*
X-151824Y263719D01*
X-151729Y263783D01*
X-151631Y263844D01*
X-151531Y263901D01*
X-151429Y263954D01*
X-151325Y264005D01*
X-151220Y264051D01*
X-151113Y264094D01*
X-151005Y264133D01*
X-151005Y264132D02*
X-150716Y264269D01*
X-150424Y264399D01*
X-150128Y264522D01*
X-149830Y264637D01*
X-149529Y264746D01*
X-149226Y264847D01*
X-148920Y264941D01*
X-148613Y265028D01*
X-148303Y265107D01*
X-147991Y265179D01*
X-147678Y265243D01*
X-147363Y265300D01*
X-147047Y265350D01*
X-146730Y265392D01*
X-146412Y265426D01*
X-146094Y265453D01*
X-145774Y265472D01*
X-145455Y265483D01*
X-145135Y265487D01*
X-145135Y256457D02*
X-144815Y256461D01*
X-144496Y256472D01*
X-144176Y256491D01*
X-143858Y256518D01*
X-143540Y256552D01*
X-143223Y256594D01*
X-142907Y256644D01*
X-142592Y256701D01*
X-142279Y256765D01*
X-141967Y256837D01*
X-141657Y256916D01*
X-141350Y257003D01*
X-141044Y257097D01*
X-140741Y257198D01*
X-140440Y257307D01*
X-140142Y257422D01*
X-139846Y257545D01*
X-139554Y257675D01*
X-139265Y257812D01*
X-139265Y257811D02*
X-139157Y257850D01*
X-139050Y257893D01*
X-138945Y257939D01*
X-138841Y257990D01*
X-138739Y258043D01*
X-138639Y258100D01*
X-138541Y258161D01*
X-138446Y258225D01*
X-138352Y258292D01*
X-138261Y258363D01*
X-138172Y258436D01*
X-138086Y258513D01*
X-138003Y258592D01*
X-137922Y258674D01*
X-137844Y258759D01*
X-137770Y258847D01*
X-137698Y258937D01*
X-137629Y259030D01*
X-137564Y259124D01*
X-137502Y259221D01*
X-137444Y259321D01*
X-137388Y259422D01*
X-137337Y259524D01*
X-137289Y259629D01*
X-137244Y259735D01*
X-137203Y259843D01*
X-137166Y259952D01*
X-137133Y260062D01*
X-137104Y260174D01*
X-137078Y260286D01*
X-137056Y260399D01*
X-137039Y260513D01*
X-137025Y260627D01*
X-137015Y260742D01*
X-137009Y260857D01*
X-137007Y260972D01*
X-139265Y264132D02*
X-139554Y264269D01*
X-139846Y264399D01*
X-140142Y264522D01*
X-140440Y264637D01*
X-140741Y264746D01*
X-141044Y264847D01*
X-141350Y264941D01*
X-141657Y265028D01*
X-141967Y265107D01*
X-142279Y265179D01*
X-142592Y265243D01*
X-142907Y265300D01*
X-143223Y265350D01*
X-143540Y265392D01*
X-143858Y265426D01*
X-144176Y265453D01*
X-144496Y265472D01*
X-144815Y265483D01*
X-145135Y265487D01*
X-139265Y264133D02*
X-139157Y264094D01*
X-139050Y264051D01*
X-138945Y264005D01*
X-138841Y263954D01*
X-138739Y263901D01*
X-138639Y263844D01*
X-138541Y263783D01*
X-138446Y263719D01*
X-138352Y263652D01*
X-138261Y263581D01*
X-138172Y263508D01*
X-138086Y263431D01*
X-138003Y263352D01*
X-137922Y263270D01*
X-137844Y263185D01*
X-137770Y263097D01*
X-137698Y263007D01*
X-137629Y262914D01*
X-137564Y262820D01*
X-137502Y262723D01*
X-137444Y262623D01*
X-137388Y262522D01*
X-137337Y262419D01*
X-137289Y262315D01*
X-137244Y262209D01*
X-137203Y262101D01*
X-137166Y261992D01*
X-137133Y261882D01*
X-137104Y261770D01*
X-137078Y261658D01*
X-137056Y261545D01*
X-137039Y261431D01*
X-137025Y261317D01*
X-137015Y261202D01*
X-137009Y261087D01*
X-137007Y260972D01*
X-140619Y257359D02*
X-149651Y264584D01*
X-145135Y272088D02*
X-145455Y272092D01*
X-145774Y272103D01*
X-146094Y272122D01*
X-146412Y272149D01*
X-146730Y272183D01*
X-147047Y272225D01*
X-147363Y272275D01*
X-147678Y272332D01*
X-147991Y272396D01*
X-148303Y272468D01*
X-148613Y272547D01*
X-148920Y272634D01*
X-149226Y272728D01*
X-149529Y272829D01*
X-149830Y272938D01*
X-150128Y273053D01*
X-150424Y273176D01*
X-150716Y273306D01*
X-151005Y273443D01*
X-151006Y273442D02*
X-151114Y273481D01*
X-151221Y273524D01*
X-151326Y273570D01*
X-151430Y273621D01*
X-151532Y273674D01*
X-151632Y273731D01*
X-151730Y273792D01*
X-151825Y273856D01*
X-151919Y273923D01*
X-152010Y273994D01*
X-152099Y274067D01*
X-152185Y274144D01*
X-152268Y274223D01*
X-152349Y274305D01*
X-152427Y274390D01*
X-152501Y274478D01*
X-152573Y274568D01*
X-152641Y274660D01*
X-152707Y274755D01*
X-152769Y274852D01*
X-152827Y274951D01*
X-152883Y275053D01*
X-152934Y275155D01*
X-152982Y275260D01*
X-153027Y275366D01*
X-153068Y275474D01*
X-153105Y275583D01*
X-153138Y275693D01*
X-153167Y275805D01*
X-153193Y275917D01*
X-153215Y276030D01*
X-153232Y276144D01*
X-153246Y276258D01*
X-153256Y276373D01*
X-153262Y276488D01*
X-153264Y276603D01*
X-153263Y276603D02*
X-153261Y276718D01*
X-153255Y276833D01*
X-153245Y276948D01*
X-153231Y277062D01*
X-153214Y277176D01*
X-153192Y277289D01*
X-153166Y277401D01*
X-153137Y277513D01*
X-153104Y277623D01*
X-153067Y277732D01*
X-153026Y277840D01*
X-152981Y277946D01*
X-152933Y278051D01*
X-152882Y278153D01*
X-152826Y278254D01*
X-152768Y278354D01*
X-152706Y278451D01*
X-152641Y278545D01*
X-152572Y278638D01*
X-152500Y278728D01*
X-152426Y278816D01*
X-152348Y278901D01*
X-152267Y278983D01*
X-152184Y279062D01*
X-152098Y279139D01*
X-152009Y279212D01*
X-151918Y279283D01*
X-151824Y279350D01*
X-151729Y279414D01*
X-151631Y279475D01*
X-151531Y279532D01*
X-151429Y279585D01*
X-151325Y279636D01*
X-151220Y279682D01*
X-151113Y279725D01*
X-151005Y279764D01*
X-151005Y279763D02*
X-150716Y279900D01*
X-150424Y280030D01*
X-150128Y280153D01*
X-149830Y280268D01*
X-149529Y280377D01*
X-149226Y280478D01*
X-148920Y280572D01*
X-148613Y280659D01*
X-148303Y280738D01*
X-147991Y280810D01*
X-147678Y280874D01*
X-147363Y280931D01*
X-147047Y280981D01*
X-146730Y281023D01*
X-146412Y281057D01*
X-146094Y281084D01*
X-145774Y281103D01*
X-145455Y281114D01*
X-145135Y281118D01*
X-145135Y272088D02*
X-144815Y272092D01*
X-144496Y272103D01*
X-144176Y272122D01*
X-143858Y272149D01*
X-143540Y272183D01*
X-143223Y272225D01*
X-142907Y272275D01*
X-142592Y272332D01*
X-142279Y272396D01*
X-141967Y272468D01*
X-141657Y272547D01*
X-141350Y272634D01*
X-141044Y272728D01*
X-140741Y272829D01*
X-140440Y272938D01*
X-140142Y273053D01*
X-139846Y273176D01*
X-139554Y273306D01*
X-139265Y273443D01*
X-139265Y273442D02*
X-139157Y273481D01*
X-139050Y273524D01*
X-138945Y273570D01*
X-138841Y273621D01*
X-138739Y273674D01*
X-138639Y273731D01*
X-138541Y273792D01*
X-138446Y273856D01*
X-138352Y273923D01*
X-138261Y273994D01*
X-138172Y274067D01*
X-138086Y274144D01*
X-138003Y274223D01*
X-137922Y274305D01*
X-137844Y274390D01*
X-137770Y274478D01*
X-137698Y274568D01*
X-137629Y274661D01*
X-137564Y274755D01*
X-137502Y274852D01*
X-137444Y274952D01*
X-137388Y275053D01*
X-137337Y275155D01*
X-137289Y275260D01*
X-137244Y275366D01*
X-137203Y275474D01*
X-137166Y275583D01*
X-137133Y275693D01*
X-137104Y275805D01*
X-137078Y275917D01*
X-137056Y276030D01*
X-137039Y276144D01*
X-137025Y276258D01*
X-137015Y276373D01*
X-137009Y276488D01*
X-137007Y276603D01*
X-139265Y279763D02*
X-139554Y279900D01*
X-139846Y280030D01*
X-140142Y280153D01*
X-140440Y280268D01*
X-140741Y280377D01*
X-141044Y280478D01*
X-141350Y280572D01*
X-141657Y280659D01*
X-141967Y280738D01*
X-142279Y280810D01*
X-142592Y280874D01*
X-142907Y280931D01*
X-143223Y280981D01*
X-143540Y281023D01*
X-143858Y281057D01*
X-144176Y281084D01*
X-144496Y281103D01*
X-144815Y281114D01*
X-145135Y281118D01*
X-139265Y279764D02*
X-139157Y279725D01*
X-139050Y279682D01*
X-138945Y279636D01*
X-138841Y279585D01*
X-138739Y279532D01*
X-138639Y279475D01*
X-138541Y279414D01*
X-138446Y279350D01*
X-138352Y279283D01*
X-138261Y279212D01*
X-138172Y279139D01*
X-138086Y279062D01*
X-138003Y278983D01*
X-137922Y278901D01*
X-137844Y278816D01*
X-137770Y278728D01*
X-137698Y278638D01*
X-137629Y278545D01*
X-137564Y278451D01*
X-137502Y278354D01*
X-137444Y278254D01*
X-137388Y278153D01*
X-137337Y278050D01*
X-137289Y277946D01*
X-137244Y277840D01*
X-137203Y277732D01*
X-137166Y277623D01*
X-137133Y277513D01*
X-137104Y277401D01*
X-137078Y277289D01*
X-137056Y277176D01*
X-137039Y277062D01*
X-137025Y276948D01*
X-137015Y276833D01*
X-137009Y276718D01*
X-137007Y276603D01*
X-140619Y272991D02*
X-149651Y280215D01*
D11*
X0Y0D02*
X-330Y-164942D01*
X299670Y-165542D02*
X300000Y-600D01*
X299059Y-146041D02*
X359Y-145443D01*
X25715Y-142302D01*
X25703Y-148686D01*
X359Y-145443D01*
X25712Y-144194D01*
X25706Y-146794D02*
X359Y-145443D01*
X25714Y-142894D01*
X25704Y-148094D02*
X359Y-145443D01*
X273716Y-142798D02*
X299059Y-146041D01*
X273716Y-142798D02*
X273703Y-149182D01*
X299059Y-146041D01*
X273712Y-144690D01*
X273707Y-147290D02*
X299059Y-146041D01*
X273714Y-143390D01*
X273704Y-148590D02*
X299059Y-146041D01*
D12*
X123179Y-139181D02*
X118663Y-139173D01*
X123179Y-139181D02*
X123313Y-139179D01*
X123447Y-139174D01*
X123580Y-139164D01*
X123713Y-139150D01*
X123846Y-139133D01*
X123978Y-139111D01*
X124109Y-139086D01*
X124240Y-139056D01*
X124370Y-139023D01*
X124498Y-138986D01*
X124626Y-138946D01*
X124752Y-138901D01*
X124877Y-138853D01*
X125000Y-138801D01*
X125122Y-138745D01*
X125242Y-138686D01*
X125360Y-138624D01*
X125477Y-138557D01*
X125591Y-138488D01*
X125703Y-138415D01*
X125813Y-138339D01*
X125921Y-138259D01*
X126026Y-138177D01*
X126129Y-138091D01*
X126229Y-138002D01*
X126327Y-137911D01*
X126422Y-137816D01*
X126514Y-137719D01*
X126603Y-137619D01*
X126689Y-137517D01*
X126772Y-137412D01*
X126852Y-137304D01*
X126928Y-137194D01*
X127001Y-137082D01*
X127071Y-136968D01*
X127138Y-136852D01*
X127201Y-136734D01*
X127261Y-136614D01*
X127317Y-136493D01*
X127369Y-136370D01*
X127418Y-136245D01*
X127463Y-136119D01*
X127504Y-135991D01*
X127541Y-135863D01*
X127575Y-135733D01*
X127605Y-135603D01*
X127630Y-135472D01*
X127652Y-135340D01*
X127670Y-135207D01*
X127684Y-135074D01*
X127695Y-134940D01*
X127701Y-134807D01*
X127703Y-134673D01*
X127701Y-134539D01*
X127696Y-134405D01*
X127686Y-134272D01*
X127672Y-134139D01*
X127655Y-134006D01*
X127633Y-133874D01*
X127608Y-133743D01*
X127579Y-133612D01*
X127545Y-133482D01*
X127508Y-133354D01*
X127468Y-133226D01*
X127423Y-133100D01*
X127375Y-132975D01*
X127323Y-132852D01*
X127267Y-132730D01*
X127208Y-132610D01*
X127146Y-132492D01*
X127079Y-132375D01*
X127010Y-132261D01*
X126937Y-132149D01*
X126861Y-132039D01*
X126781Y-131931D01*
X126699Y-131826D01*
X126613Y-131723D01*
X126524Y-131623D01*
X126433Y-131525D01*
X126338Y-131430D01*
X126241Y-131338D01*
X126141Y-131249D01*
X126039Y-131163D01*
X125934Y-131080D01*
X125826Y-131000D01*
X125716Y-130924D01*
X125604Y-130851D01*
X125490Y-130781D01*
X125374Y-130714D01*
X125256Y-130651D01*
X125136Y-130591D01*
X125015Y-130535D01*
X124892Y-130483D01*
X124767Y-130434D01*
X124641Y-130389D01*
X124513Y-130348D01*
X124385Y-130311D01*
X124255Y-130277D01*
X124125Y-130247D01*
X123994Y-130222D01*
X123862Y-130200D01*
X123729Y-130182D01*
X123596Y-130168D01*
X123462Y-130157D01*
X123329Y-130151D01*
X123195Y-130149D01*
X124110Y-122926D02*
X118692Y-122917D01*
X124110Y-122927D02*
X124230Y-122929D01*
X124349Y-122935D01*
X124468Y-122945D01*
X124587Y-122959D01*
X124705Y-122977D01*
X124822Y-122999D01*
X124939Y-123025D01*
X125055Y-123054D01*
X125169Y-123088D01*
X125283Y-123125D01*
X125395Y-123166D01*
X125506Y-123210D01*
X125615Y-123258D01*
X125723Y-123310D01*
X125829Y-123365D01*
X125933Y-123424D01*
X126035Y-123486D01*
X126135Y-123552D01*
X126232Y-123621D01*
X126328Y-123693D01*
X126420Y-123768D01*
X126511Y-123846D01*
X126599Y-123927D01*
X126684Y-124011D01*
X126766Y-124097D01*
X126845Y-124187D01*
X126921Y-124279D01*
X126994Y-124373D01*
X127064Y-124470D01*
X127131Y-124569D01*
X127195Y-124670D01*
X127255Y-124773D01*
X127312Y-124878D01*
X127365Y-124985D01*
X127414Y-125094D01*
X127460Y-125204D01*
X127503Y-125316D01*
X127541Y-125429D01*
X127576Y-125543D01*
X127607Y-125658D01*
X127634Y-125775D01*
X127658Y-125892D01*
X127677Y-126010D01*
X127693Y-126128D01*
X127704Y-126247D01*
X127712Y-126366D01*
X127716Y-126486D01*
X127715Y-126605D01*
X127711Y-126724D01*
X127703Y-126844D01*
X127691Y-126962D01*
X127675Y-127081D01*
X127655Y-127199D01*
X127632Y-127316D01*
X127604Y-127432D01*
X127572Y-127547D01*
X127537Y-127661D01*
X127498Y-127774D01*
X127456Y-127886D01*
X127409Y-127996D01*
X127359Y-128104D01*
X127306Y-128211D01*
X127249Y-128316D01*
X127188Y-128419D01*
X127124Y-128520D01*
X127057Y-128619D01*
X126987Y-128715D01*
X126913Y-128809D01*
X126837Y-128901D01*
X126757Y-128990D01*
X126675Y-129076D01*
X126589Y-129160D01*
X126501Y-129241D01*
X126411Y-129318D01*
X126318Y-129393D01*
X126222Y-129465D01*
X126124Y-129533D01*
X126024Y-129598D01*
X125922Y-129660D01*
X125818Y-129719D01*
X125712Y-129774D01*
X125604Y-129825D01*
X125494Y-129873D01*
X125383Y-129917D01*
X125271Y-129957D01*
X125157Y-129994D01*
X125042Y-130027D01*
X124927Y-130056D01*
X124810Y-130081D01*
X124692Y-130103D01*
X124574Y-130120D01*
X124456Y-130134D01*
X124336Y-130144D01*
X124217Y-130149D01*
X124098Y-130151D01*
X120485Y-130145D01*
X134309Y-131072D02*
X134313Y-130752D01*
X134325Y-130432D01*
X134345Y-130113D01*
X134372Y-129795D01*
X134407Y-129477D01*
X134450Y-129160D01*
X134500Y-128844D01*
X134557Y-128529D01*
X134622Y-128216D01*
X134694Y-127905D01*
X134774Y-127595D01*
X134862Y-127287D01*
X134956Y-126982D01*
X135058Y-126679D01*
X135167Y-126378D01*
X135283Y-126080D01*
X135406Y-125785D01*
X135537Y-125493D01*
X135674Y-125204D01*
X135673Y-125204D02*
X135713Y-125096D01*
X135756Y-124989D01*
X135803Y-124884D01*
X135853Y-124780D01*
X135907Y-124679D01*
X135964Y-124579D01*
X136025Y-124481D01*
X136089Y-124385D01*
X136156Y-124292D01*
X136227Y-124201D01*
X136301Y-124113D01*
X136377Y-124027D01*
X136457Y-123943D01*
X136539Y-123863D01*
X136624Y-123785D01*
X136712Y-123711D01*
X136802Y-123639D01*
X136895Y-123571D01*
X136990Y-123506D01*
X137087Y-123444D01*
X137186Y-123386D01*
X137287Y-123331D01*
X137390Y-123279D01*
X137495Y-123231D01*
X137601Y-123187D01*
X137709Y-123146D01*
X137818Y-123110D01*
X137928Y-123077D01*
X138040Y-123047D01*
X138152Y-123022D01*
X138265Y-123000D01*
X138379Y-122983D01*
X138493Y-122969D01*
X138608Y-122960D01*
X138723Y-122954D01*
X138838Y-122952D01*
X138953Y-122954D01*
X139068Y-122960D01*
X139183Y-122970D01*
X139297Y-122984D01*
X139410Y-123002D01*
X139524Y-123024D01*
X139636Y-123050D01*
X139747Y-123080D01*
X139857Y-123113D01*
X139966Y-123150D01*
X140074Y-123191D01*
X140180Y-123236D01*
X140284Y-123284D01*
X140387Y-123336D01*
X140488Y-123391D01*
X140587Y-123450D01*
X140684Y-123512D01*
X140779Y-123578D01*
X140871Y-123646D01*
X140961Y-123718D01*
X141048Y-123793D01*
X141133Y-123871D01*
X141215Y-123952D01*
X141295Y-124035D01*
X141371Y-124121D01*
X141444Y-124210D01*
X141514Y-124301D01*
X141581Y-124395D01*
X141645Y-124491D01*
X141706Y-124589D01*
X141763Y-124689D01*
X141816Y-124791D01*
X141866Y-124894D01*
X141913Y-125000D01*
X141955Y-125107D01*
X141994Y-125215D01*
X141996Y-125216D02*
X142132Y-125505D01*
X142261Y-125798D01*
X142383Y-126093D01*
X142498Y-126391D01*
X142606Y-126692D01*
X142707Y-126996D01*
X142801Y-127302D01*
X142887Y-127610D01*
X142966Y-127920D01*
X143037Y-128231D01*
X143101Y-128545D01*
X143157Y-128860D01*
X143206Y-129176D01*
X143247Y-129493D01*
X143281Y-129811D01*
X143307Y-130130D01*
X143326Y-130449D01*
X143337Y-130768D01*
X143340Y-131088D01*
X134308Y-131072D02*
X134311Y-131392D01*
X134322Y-131712D01*
X134341Y-132031D01*
X134367Y-132350D01*
X134401Y-132668D01*
X134442Y-132985D01*
X134491Y-133301D01*
X134547Y-133616D01*
X134611Y-133929D01*
X134682Y-134241D01*
X134761Y-134551D01*
X134847Y-134859D01*
X134941Y-135165D01*
X135042Y-135468D01*
X135150Y-135769D01*
X135265Y-136068D01*
X135387Y-136363D01*
X135516Y-136656D01*
X135652Y-136945D01*
X135654Y-136944D02*
X135693Y-137052D01*
X135735Y-137159D01*
X135782Y-137265D01*
X135832Y-137368D01*
X135885Y-137470D01*
X135942Y-137570D01*
X136003Y-137668D01*
X136067Y-137764D01*
X136134Y-137858D01*
X136204Y-137949D01*
X136277Y-138038D01*
X136353Y-138124D01*
X136433Y-138207D01*
X136515Y-138288D01*
X136600Y-138366D01*
X136687Y-138441D01*
X136777Y-138513D01*
X136869Y-138581D01*
X136964Y-138647D01*
X137061Y-138709D01*
X137160Y-138768D01*
X137261Y-138823D01*
X137364Y-138875D01*
X137468Y-138923D01*
X137574Y-138968D01*
X137682Y-139009D01*
X137791Y-139046D01*
X137901Y-139079D01*
X138012Y-139109D01*
X138124Y-139135D01*
X138238Y-139157D01*
X138351Y-139175D01*
X138465Y-139189D01*
X138580Y-139199D01*
X138695Y-139205D01*
X138810Y-139207D01*
X141974Y-136956D02*
X142111Y-136667D01*
X142242Y-136375D01*
X142365Y-136080D01*
X142481Y-135782D01*
X142590Y-135481D01*
X142692Y-135178D01*
X142786Y-134873D01*
X142874Y-134565D01*
X142954Y-134255D01*
X143026Y-133944D01*
X143091Y-133631D01*
X143148Y-133316D01*
X143198Y-133000D01*
X143241Y-132683D01*
X143276Y-132365D01*
X143303Y-132047D01*
X143323Y-131728D01*
X143335Y-131408D01*
X143339Y-131088D01*
X141975Y-136955D02*
X141935Y-137063D01*
X141892Y-137170D01*
X141845Y-137275D01*
X141795Y-137379D01*
X141741Y-137480D01*
X141684Y-137580D01*
X141623Y-137678D01*
X141559Y-137774D01*
X141491Y-137867D01*
X141421Y-137958D01*
X141347Y-138047D01*
X141271Y-138132D01*
X141191Y-138216D01*
X141109Y-138296D01*
X141024Y-138374D01*
X140936Y-138448D01*
X140846Y-138520D01*
X140753Y-138588D01*
X140658Y-138653D01*
X140561Y-138715D01*
X140462Y-138773D01*
X140361Y-138828D01*
X140258Y-138880D01*
X140153Y-138928D01*
X140047Y-138972D01*
X139939Y-139013D01*
X139830Y-139049D01*
X139720Y-139082D01*
X139608Y-139112D01*
X139496Y-139137D01*
X139383Y-139159D01*
X139269Y-139176D01*
X139155Y-139190D01*
X139040Y-139199D01*
X138925Y-139205D01*
X138810Y-139207D01*
X135204Y-135589D02*
X142444Y-126571D01*
X149302Y-138323D02*
X149300Y-139226D01*
X149302Y-138323D02*
X150205Y-138325D01*
X150203Y-139228D01*
X149300Y-139226D01*
X156192Y-131110D02*
X156196Y-130790D01*
X156208Y-130470D01*
X156228Y-130151D01*
X156255Y-129833D01*
X156290Y-129515D01*
X156333Y-129198D01*
X156383Y-128882D01*
X156440Y-128567D01*
X156505Y-128254D01*
X156577Y-127943D01*
X156657Y-127633D01*
X156745Y-127325D01*
X156839Y-127020D01*
X156941Y-126717D01*
X157050Y-126416D01*
X157166Y-126118D01*
X157289Y-125823D01*
X157420Y-125531D01*
X157557Y-125242D01*
X157597Y-125134D01*
X157640Y-125027D01*
X157687Y-124922D01*
X157737Y-124818D01*
X157791Y-124717D01*
X157848Y-124617D01*
X157909Y-124519D01*
X157973Y-124423D01*
X158040Y-124330D01*
X158111Y-124239D01*
X158185Y-124151D01*
X158261Y-124065D01*
X158341Y-123981D01*
X158423Y-123901D01*
X158508Y-123823D01*
X158596Y-123749D01*
X158686Y-123677D01*
X158779Y-123609D01*
X158874Y-123544D01*
X158971Y-123482D01*
X159070Y-123424D01*
X159171Y-123369D01*
X159274Y-123317D01*
X159379Y-123269D01*
X159485Y-123225D01*
X159593Y-123184D01*
X159702Y-123148D01*
X159812Y-123115D01*
X159924Y-123085D01*
X160036Y-123060D01*
X160149Y-123038D01*
X160263Y-123021D01*
X160377Y-123007D01*
X160492Y-122998D01*
X160607Y-122992D01*
X160722Y-122990D01*
X160837Y-122992D01*
X160952Y-122998D01*
X161067Y-123008D01*
X161181Y-123022D01*
X161294Y-123040D01*
X161408Y-123062D01*
X161520Y-123088D01*
X161631Y-123118D01*
X161741Y-123151D01*
X161850Y-123188D01*
X161958Y-123229D01*
X162064Y-123274D01*
X162168Y-123322D01*
X162271Y-123374D01*
X162372Y-123429D01*
X162471Y-123488D01*
X162568Y-123550D01*
X162663Y-123616D01*
X162755Y-123684D01*
X162845Y-123756D01*
X162932Y-123831D01*
X163017Y-123909D01*
X163099Y-123990D01*
X163179Y-124073D01*
X163255Y-124159D01*
X163328Y-124248D01*
X163398Y-124339D01*
X163465Y-124433D01*
X163529Y-124529D01*
X163590Y-124627D01*
X163647Y-124727D01*
X163700Y-124829D01*
X163750Y-124932D01*
X163797Y-125038D01*
X163839Y-125145D01*
X163878Y-125253D01*
X163879Y-125254D02*
X164015Y-125543D01*
X164144Y-125836D01*
X164266Y-126131D01*
X164381Y-126429D01*
X164489Y-126730D01*
X164590Y-127034D01*
X164684Y-127340D01*
X164770Y-127648D01*
X164849Y-127958D01*
X164920Y-128269D01*
X164984Y-128583D01*
X165040Y-128898D01*
X165089Y-129214D01*
X165130Y-129531D01*
X165164Y-129849D01*
X165190Y-130168D01*
X165209Y-130487D01*
X165220Y-130806D01*
X165223Y-131126D01*
X156192Y-131110D02*
X156195Y-131430D01*
X156206Y-131750D01*
X156225Y-132069D01*
X156251Y-132388D01*
X156285Y-132706D01*
X156326Y-133023D01*
X156375Y-133339D01*
X156431Y-133654D01*
X156495Y-133967D01*
X156566Y-134279D01*
X156645Y-134589D01*
X156731Y-134897D01*
X156825Y-135203D01*
X156926Y-135506D01*
X157034Y-135807D01*
X157149Y-136106D01*
X157271Y-136401D01*
X157400Y-136694D01*
X157536Y-136983D01*
X157537Y-136983D02*
X157576Y-137091D01*
X157618Y-137198D01*
X157665Y-137304D01*
X157715Y-137407D01*
X157768Y-137509D01*
X157825Y-137609D01*
X157886Y-137707D01*
X157950Y-137803D01*
X158017Y-137897D01*
X158087Y-137988D01*
X158160Y-138077D01*
X158236Y-138163D01*
X158316Y-138246D01*
X158398Y-138327D01*
X158483Y-138405D01*
X158570Y-138480D01*
X158660Y-138552D01*
X158752Y-138620D01*
X158847Y-138686D01*
X158944Y-138748D01*
X159043Y-138807D01*
X159144Y-138862D01*
X159247Y-138914D01*
X159351Y-138962D01*
X159457Y-139007D01*
X159565Y-139048D01*
X159674Y-139085D01*
X159784Y-139118D01*
X159895Y-139148D01*
X160007Y-139174D01*
X160121Y-139196D01*
X160234Y-139214D01*
X160348Y-139228D01*
X160463Y-139238D01*
X160578Y-139244D01*
X160693Y-139246D01*
X163858Y-136994D02*
X163995Y-136705D01*
X164126Y-136413D01*
X164249Y-136118D01*
X164365Y-135820D01*
X164474Y-135519D01*
X164576Y-135216D01*
X164670Y-134911D01*
X164758Y-134603D01*
X164838Y-134293D01*
X164910Y-133982D01*
X164975Y-133669D01*
X165032Y-133354D01*
X165082Y-133038D01*
X165125Y-132721D01*
X165160Y-132403D01*
X165187Y-132085D01*
X165207Y-131766D01*
X165219Y-131446D01*
X165223Y-131126D01*
X163858Y-136994D02*
X163818Y-137102D01*
X163775Y-137209D01*
X163728Y-137314D01*
X163678Y-137418D01*
X163624Y-137519D01*
X163567Y-137619D01*
X163506Y-137717D01*
X163442Y-137813D01*
X163374Y-137906D01*
X163304Y-137997D01*
X163230Y-138086D01*
X163154Y-138171D01*
X163074Y-138255D01*
X162992Y-138335D01*
X162907Y-138413D01*
X162819Y-138487D01*
X162729Y-138559D01*
X162636Y-138627D01*
X162541Y-138692D01*
X162444Y-138754D01*
X162345Y-138812D01*
X162244Y-138867D01*
X162141Y-138919D01*
X162036Y-138967D01*
X161930Y-139011D01*
X161822Y-139052D01*
X161713Y-139088D01*
X161603Y-139121D01*
X161491Y-139151D01*
X161379Y-139176D01*
X161266Y-139198D01*
X161152Y-139215D01*
X161038Y-139229D01*
X160923Y-139238D01*
X160808Y-139244D01*
X160693Y-139246D01*
X157087Y-135627D02*
X164328Y-126609D01*
X171824Y-131138D02*
X171828Y-130818D01*
X171840Y-130498D01*
X171860Y-130179D01*
X171887Y-129861D01*
X171922Y-129543D01*
X171965Y-129226D01*
X172015Y-128910D01*
X172072Y-128595D01*
X172137Y-128282D01*
X172209Y-127971D01*
X172289Y-127661D01*
X172377Y-127353D01*
X172471Y-127048D01*
X172573Y-126745D01*
X172682Y-126444D01*
X172798Y-126146D01*
X172921Y-125851D01*
X173052Y-125559D01*
X173189Y-125270D01*
X173188Y-125270D02*
X173228Y-125162D01*
X173271Y-125055D01*
X173318Y-124950D01*
X173368Y-124846D01*
X173422Y-124745D01*
X173479Y-124645D01*
X173540Y-124547D01*
X173604Y-124451D01*
X173671Y-124358D01*
X173742Y-124267D01*
X173816Y-124179D01*
X173892Y-124093D01*
X173972Y-124009D01*
X174054Y-123929D01*
X174139Y-123851D01*
X174227Y-123777D01*
X174317Y-123705D01*
X174410Y-123637D01*
X174505Y-123572D01*
X174602Y-123510D01*
X174701Y-123452D01*
X174802Y-123397D01*
X174905Y-123345D01*
X175010Y-123297D01*
X175116Y-123253D01*
X175224Y-123212D01*
X175333Y-123176D01*
X175443Y-123143D01*
X175555Y-123113D01*
X175667Y-123088D01*
X175780Y-123066D01*
X175894Y-123049D01*
X176008Y-123035D01*
X176123Y-123026D01*
X176238Y-123020D01*
X176353Y-123018D01*
X176468Y-123020D01*
X176583Y-123026D01*
X176698Y-123036D01*
X176812Y-123050D01*
X176925Y-123068D01*
X177039Y-123090D01*
X177151Y-123116D01*
X177262Y-123146D01*
X177372Y-123179D01*
X177481Y-123216D01*
X177589Y-123257D01*
X177695Y-123302D01*
X177799Y-123350D01*
X177902Y-123402D01*
X178003Y-123457D01*
X178102Y-123516D01*
X178199Y-123578D01*
X178294Y-123644D01*
X178386Y-123712D01*
X178476Y-123784D01*
X178563Y-123859D01*
X178648Y-123937D01*
X178730Y-124018D01*
X178810Y-124101D01*
X178886Y-124187D01*
X178959Y-124276D01*
X179029Y-124367D01*
X179096Y-124461D01*
X179160Y-124557D01*
X179221Y-124655D01*
X179278Y-124755D01*
X179331Y-124857D01*
X179381Y-124960D01*
X179428Y-125066D01*
X179470Y-125173D01*
X179509Y-125281D01*
X179510Y-125281D02*
X179646Y-125570D01*
X179775Y-125863D01*
X179897Y-126158D01*
X180012Y-126456D01*
X180120Y-126757D01*
X180221Y-127061D01*
X180315Y-127367D01*
X180401Y-127675D01*
X180480Y-127985D01*
X180551Y-128296D01*
X180615Y-128610D01*
X180671Y-128925D01*
X180720Y-129241D01*
X180761Y-129558D01*
X180795Y-129876D01*
X180821Y-130195D01*
X180840Y-130514D01*
X180851Y-130833D01*
X180854Y-131153D01*
X171823Y-131137D02*
X171826Y-131457D01*
X171837Y-131777D01*
X171856Y-132096D01*
X171882Y-132415D01*
X171916Y-132733D01*
X171957Y-133050D01*
X172006Y-133366D01*
X172062Y-133681D01*
X172126Y-133994D01*
X172197Y-134306D01*
X172276Y-134616D01*
X172362Y-134924D01*
X172456Y-135230D01*
X172557Y-135533D01*
X172665Y-135834D01*
X172780Y-136133D01*
X172902Y-136428D01*
X173031Y-136721D01*
X173167Y-137010D01*
X173168Y-137010D02*
X173207Y-137118D01*
X173249Y-137225D01*
X173296Y-137331D01*
X173346Y-137434D01*
X173399Y-137536D01*
X173456Y-137636D01*
X173517Y-137734D01*
X173581Y-137830D01*
X173648Y-137924D01*
X173718Y-138015D01*
X173791Y-138104D01*
X173867Y-138190D01*
X173947Y-138273D01*
X174029Y-138354D01*
X174114Y-138432D01*
X174201Y-138507D01*
X174291Y-138579D01*
X174383Y-138647D01*
X174478Y-138713D01*
X174575Y-138775D01*
X174674Y-138834D01*
X174775Y-138889D01*
X174878Y-138941D01*
X174982Y-138989D01*
X175088Y-139034D01*
X175196Y-139075D01*
X175305Y-139112D01*
X175415Y-139145D01*
X175526Y-139175D01*
X175638Y-139201D01*
X175752Y-139223D01*
X175865Y-139241D01*
X175979Y-139255D01*
X176094Y-139265D01*
X176209Y-139271D01*
X176324Y-139273D01*
X179489Y-137021D02*
X179626Y-136732D01*
X179757Y-136440D01*
X179880Y-136145D01*
X179996Y-135847D01*
X180105Y-135546D01*
X180207Y-135243D01*
X180301Y-134938D01*
X180389Y-134630D01*
X180469Y-134320D01*
X180541Y-134009D01*
X180606Y-133696D01*
X180663Y-133381D01*
X180713Y-133065D01*
X180756Y-132748D01*
X180791Y-132430D01*
X180818Y-132112D01*
X180838Y-131793D01*
X180850Y-131473D01*
X180854Y-131153D01*
X179490Y-137021D02*
X179450Y-137129D01*
X179407Y-137236D01*
X179360Y-137341D01*
X179310Y-137445D01*
X179256Y-137546D01*
X179199Y-137646D01*
X179138Y-137744D01*
X179074Y-137840D01*
X179006Y-137933D01*
X178936Y-138024D01*
X178862Y-138113D01*
X178786Y-138198D01*
X178706Y-138282D01*
X178624Y-138362D01*
X178539Y-138440D01*
X178451Y-138514D01*
X178361Y-138586D01*
X178268Y-138654D01*
X178173Y-138719D01*
X178076Y-138781D01*
X177977Y-138839D01*
X177876Y-138894D01*
X177773Y-138946D01*
X177668Y-138994D01*
X177562Y-139038D01*
X177454Y-139079D01*
X177345Y-139115D01*
X177235Y-139148D01*
X177123Y-139178D01*
X177011Y-139203D01*
X176898Y-139225D01*
X176784Y-139242D01*
X176670Y-139256D01*
X176555Y-139265D01*
X176440Y-139271D01*
X176325Y-139273D01*
X172718Y-135654D02*
X179959Y-126636D01*
D10*
X31000Y471000D02*
X31005Y471393D01*
X31019Y471785D01*
X31043Y472177D01*
X31077Y472568D01*
X31120Y472959D01*
X31173Y473348D01*
X31236Y473735D01*
X31307Y474121D01*
X31389Y474506D01*
X31479Y474888D01*
X31580Y475267D01*
X31689Y475645D01*
X31808Y476019D01*
X31935Y476390D01*
X32072Y476758D01*
X32218Y477123D01*
X32373Y477484D01*
X32536Y477841D01*
X32708Y478194D01*
X32889Y478542D01*
X33079Y478886D01*
X33276Y479226D01*
X33482Y479560D01*
X33696Y479889D01*
X33919Y480213D01*
X34149Y480531D01*
X34386Y480844D01*
X34632Y481150D01*
X34885Y481451D01*
X35145Y481745D01*
X35412Y482033D01*
X35686Y482314D01*
X35967Y482588D01*
X36255Y482855D01*
X36549Y483115D01*
X36850Y483368D01*
X37156Y483614D01*
X37469Y483851D01*
X37787Y484081D01*
X38111Y484304D01*
X38440Y484518D01*
X38774Y484724D01*
X39114Y484921D01*
X39458Y485111D01*
X39806Y485292D01*
X40159Y485464D01*
X40516Y485627D01*
X40877Y485782D01*
X41242Y485928D01*
X41610Y486065D01*
X41981Y486192D01*
X42355Y486311D01*
X42733Y486420D01*
X43112Y486521D01*
X43494Y486611D01*
X43879Y486693D01*
X44265Y486764D01*
X44652Y486827D01*
X45041Y486880D01*
X45432Y486923D01*
X45823Y486957D01*
X46215Y486981D01*
X46607Y486995D01*
X47000Y487000D01*
X47393Y486995D01*
X47785Y486981D01*
X48177Y486957D01*
X48568Y486923D01*
X48959Y486880D01*
X49348Y486827D01*
X49735Y486764D01*
X50121Y486693D01*
X50506Y486611D01*
X50888Y486521D01*
X51267Y486420D01*
X51645Y486311D01*
X52019Y486192D01*
X52390Y486065D01*
X52758Y485928D01*
X53123Y485782D01*
X53484Y485627D01*
X53841Y485464D01*
X54194Y485292D01*
X54542Y485111D01*
X54886Y484921D01*
X55226Y484724D01*
X55560Y484518D01*
X55889Y484304D01*
X56213Y484081D01*
X56531Y483851D01*
X56844Y483614D01*
X57150Y483368D01*
X57451Y483115D01*
X57745Y482855D01*
X58033Y482588D01*
X58314Y482314D01*
X58588Y482033D01*
X58855Y481745D01*
X59115Y481451D01*
X59368Y481150D01*
X59614Y480844D01*
X59851Y480531D01*
X60081Y480213D01*
X60304Y479889D01*
X60518Y479560D01*
X60724Y479226D01*
X60921Y478886D01*
X61111Y478542D01*
X61292Y478194D01*
X61464Y477841D01*
X61627Y477484D01*
X61782Y477123D01*
X61928Y476758D01*
X62065Y476390D01*
X62192Y476019D01*
X62311Y475645D01*
X62420Y475267D01*
X62521Y474888D01*
X62611Y474506D01*
X62693Y474121D01*
X62764Y473735D01*
X62827Y473348D01*
X62880Y472959D01*
X62923Y472568D01*
X62957Y472177D01*
X62981Y471785D01*
X62995Y471393D01*
X63000Y471000D01*
X62995Y470607D01*
X62981Y470215D01*
X62957Y469823D01*
X62923Y469432D01*
X62880Y469041D01*
X62827Y468652D01*
X62764Y468265D01*
X62693Y467879D01*
X62611Y467494D01*
X62521Y467112D01*
X62420Y466733D01*
X62311Y466355D01*
X62192Y465981D01*
X62065Y465610D01*
X61928Y465242D01*
X61782Y464877D01*
X61627Y464516D01*
X61464Y464159D01*
X61292Y463806D01*
X61111Y463458D01*
X60921Y463114D01*
X60724Y462774D01*
X60518Y462440D01*
X60304Y462111D01*
X60081Y461787D01*
X59851Y461469D01*
X59614Y461156D01*
X59368Y460850D01*
X59115Y460549D01*
X58855Y460255D01*
X58588Y459967D01*
X58314Y459686D01*
X58033Y459412D01*
X57745Y459145D01*
X57451Y458885D01*
X57150Y458632D01*
X56844Y458386D01*
X56531Y458149D01*
X56213Y457919D01*
X55889Y457696D01*
X55560Y457482D01*
X55226Y457276D01*
X54886Y457079D01*
X54542Y456889D01*
X54194Y456708D01*
X53841Y456536D01*
X53484Y456373D01*
X53123Y456218D01*
X52758Y456072D01*
X52390Y455935D01*
X52019Y455808D01*
X51645Y455689D01*
X51267Y455580D01*
X50888Y455479D01*
X50506Y455389D01*
X50121Y455307D01*
X49735Y455236D01*
X49348Y455173D01*
X48959Y455120D01*
X48568Y455077D01*
X48177Y455043D01*
X47785Y455019D01*
X47393Y455005D01*
X47000Y455000D01*
X46607Y455005D01*
X46215Y455019D01*
X45823Y455043D01*
X45432Y455077D01*
X45041Y455120D01*
X44652Y455173D01*
X44265Y455236D01*
X43879Y455307D01*
X43494Y455389D01*
X43112Y455479D01*
X42733Y455580D01*
X42355Y455689D01*
X41981Y455808D01*
X41610Y455935D01*
X41242Y456072D01*
X40877Y456218D01*
X40516Y456373D01*
X40159Y456536D01*
X39806Y456708D01*
X39458Y456889D01*
X39114Y457079D01*
X38774Y457276D01*
X38440Y457482D01*
X38111Y457696D01*
X37787Y457919D01*
X37469Y458149D01*
X37156Y458386D01*
X36850Y458632D01*
X36549Y458885D01*
X36255Y459145D01*
X35967Y459412D01*
X35686Y459686D01*
X35412Y459967D01*
X35145Y460255D01*
X34885Y460549D01*
X34632Y460850D01*
X34386Y461156D01*
X34149Y461469D01*
X33919Y461787D01*
X33696Y462111D01*
X33482Y462440D01*
X33276Y462774D01*
X33079Y463114D01*
X32889Y463458D01*
X32708Y463806D01*
X32536Y464159D01*
X32373Y464516D01*
X32218Y464877D01*
X32072Y465242D01*
X31935Y465610D01*
X31808Y465981D01*
X31689Y466355D01*
X31580Y466733D01*
X31479Y467112D01*
X31389Y467494D01*
X31307Y467879D01*
X31236Y468265D01*
X31173Y468652D01*
X31120Y469041D01*
X31077Y469432D01*
X31043Y469823D01*
X31019Y470215D01*
X31005Y470607D01*
X31000Y471000D01*
X153000Y88000D02*
X153005Y88393D01*
X153019Y88785D01*
X153043Y89177D01*
X153077Y89568D01*
X153120Y89959D01*
X153173Y90348D01*
X153236Y90735D01*
X153307Y91121D01*
X153389Y91506D01*
X153479Y91888D01*
X153580Y92267D01*
X153689Y92645D01*
X153808Y93019D01*
X153935Y93390D01*
X154072Y93758D01*
X154218Y94123D01*
X154373Y94484D01*
X154536Y94841D01*
X154708Y95194D01*
X154889Y95542D01*
X155079Y95886D01*
X155276Y96226D01*
X155482Y96560D01*
X155696Y96889D01*
X155919Y97213D01*
X156149Y97531D01*
X156386Y97844D01*
X156632Y98150D01*
X156885Y98451D01*
X157145Y98745D01*
X157412Y99033D01*
X157686Y99314D01*
X157967Y99588D01*
X158255Y99855D01*
X158549Y100115D01*
X158850Y100368D01*
X159156Y100614D01*
X159469Y100851D01*
X159787Y101081D01*
X160111Y101304D01*
X160440Y101518D01*
X160774Y101724D01*
X161114Y101921D01*
X161458Y102111D01*
X161806Y102292D01*
X162159Y102464D01*
X162516Y102627D01*
X162877Y102782D01*
X163242Y102928D01*
X163610Y103065D01*
X163981Y103192D01*
X164355Y103311D01*
X164733Y103420D01*
X165112Y103521D01*
X165494Y103611D01*
X165879Y103693D01*
X166265Y103764D01*
X166652Y103827D01*
X167041Y103880D01*
X167432Y103923D01*
X167823Y103957D01*
X168215Y103981D01*
X168607Y103995D01*
X169000Y104000D01*
X169393Y103995D01*
X169785Y103981D01*
X170177Y103957D01*
X170568Y103923D01*
X170959Y103880D01*
X171348Y103827D01*
X171735Y103764D01*
X172121Y103693D01*
X172506Y103611D01*
X172888Y103521D01*
X173267Y103420D01*
X173645Y103311D01*
X174019Y103192D01*
X174390Y103065D01*
X174758Y102928D01*
X175123Y102782D01*
X175484Y102627D01*
X175841Y102464D01*
X176194Y102292D01*
X176542Y102111D01*
X176886Y101921D01*
X177226Y101724D01*
X177560Y101518D01*
X177889Y101304D01*
X178213Y101081D01*
X178531Y100851D01*
X178844Y100614D01*
X179150Y100368D01*
X179451Y100115D01*
X179745Y99855D01*
X180033Y99588D01*
X180314Y99314D01*
X180588Y99033D01*
X180855Y98745D01*
X181115Y98451D01*
X181368Y98150D01*
X181614Y97844D01*
X181851Y97531D01*
X182081Y97213D01*
X182304Y96889D01*
X182518Y96560D01*
X182724Y96226D01*
X182921Y95886D01*
X183111Y95542D01*
X183292Y95194D01*
X183464Y94841D01*
X183627Y94484D01*
X183782Y94123D01*
X183928Y93758D01*
X184065Y93390D01*
X184192Y93019D01*
X184311Y92645D01*
X184420Y92267D01*
X184521Y91888D01*
X184611Y91506D01*
X184693Y91121D01*
X184764Y90735D01*
X184827Y90348D01*
X184880Y89959D01*
X184923Y89568D01*
X184957Y89177D01*
X184981Y88785D01*
X184995Y88393D01*
X185000Y88000D01*
X184995Y87607D01*
X184981Y87215D01*
X184957Y86823D01*
X184923Y86432D01*
X184880Y86041D01*
X184827Y85652D01*
X184764Y85265D01*
X184693Y84879D01*
X184611Y84494D01*
X184521Y84112D01*
X184420Y83733D01*
X184311Y83355D01*
X184192Y82981D01*
X184065Y82610D01*
X183928Y82242D01*
X183782Y81877D01*
X183627Y81516D01*
X183464Y81159D01*
X183292Y80806D01*
X183111Y80458D01*
X182921Y80114D01*
X182724Y79774D01*
X182518Y79440D01*
X182304Y79111D01*
X182081Y78787D01*
X181851Y78469D01*
X181614Y78156D01*
X181368Y77850D01*
X181115Y77549D01*
X180855Y77255D01*
X180588Y76967D01*
X180314Y76686D01*
X180033Y76412D01*
X179745Y76145D01*
X179451Y75885D01*
X179150Y75632D01*
X178844Y75386D01*
X178531Y75149D01*
X178213Y74919D01*
X177889Y74696D01*
X177560Y74482D01*
X177226Y74276D01*
X176886Y74079D01*
X176542Y73889D01*
X176194Y73708D01*
X175841Y73536D01*
X175484Y73373D01*
X175123Y73218D01*
X174758Y73072D01*
X174390Y72935D01*
X174019Y72808D01*
X173645Y72689D01*
X173267Y72580D01*
X172888Y72479D01*
X172506Y72389D01*
X172121Y72307D01*
X171735Y72236D01*
X171348Y72173D01*
X170959Y72120D01*
X170568Y72077D01*
X170177Y72043D01*
X169785Y72019D01*
X169393Y72005D01*
X169000Y72000D01*
X168607Y72005D01*
X168215Y72019D01*
X167823Y72043D01*
X167432Y72077D01*
X167041Y72120D01*
X166652Y72173D01*
X166265Y72236D01*
X165879Y72307D01*
X165494Y72389D01*
X165112Y72479D01*
X164733Y72580D01*
X164355Y72689D01*
X163981Y72808D01*
X163610Y72935D01*
X163242Y73072D01*
X162877Y73218D01*
X162516Y73373D01*
X162159Y73536D01*
X161806Y73708D01*
X161458Y73889D01*
X161114Y74079D01*
X160774Y74276D01*
X160440Y74482D01*
X160111Y74696D01*
X159787Y74919D01*
X159469Y75149D01*
X159156Y75386D01*
X158850Y75632D01*
X158549Y75885D01*
X158255Y76145D01*
X157967Y76412D01*
X157686Y76686D01*
X157412Y76967D01*
X157145Y77255D01*
X156885Y77549D01*
X156632Y77850D01*
X156386Y78156D01*
X156149Y78469D01*
X155919Y78787D01*
X155696Y79111D01*
X155482Y79440D01*
X155276Y79774D01*
X155079Y80114D01*
X154889Y80458D01*
X154708Y80806D01*
X154536Y81159D01*
X154373Y81516D01*
X154218Y81877D01*
X154072Y82242D01*
X153935Y82610D01*
X153808Y82981D01*
X153689Y83355D01*
X153580Y83733D01*
X153479Y84112D01*
X153389Y84494D01*
X153307Y84879D01*
X153236Y85265D01*
X153173Y85652D01*
X153120Y86041D01*
X153077Y86432D01*
X153043Y86823D01*
X153019Y87215D01*
X153005Y87607D01*
X153000Y88000D01*
X232000Y263000D02*
X232005Y263393D01*
X232019Y263785D01*
X232043Y264177D01*
X232077Y264568D01*
X232120Y264959D01*
X232173Y265348D01*
X232236Y265735D01*
X232307Y266121D01*
X232389Y266506D01*
X232479Y266888D01*
X232580Y267267D01*
X232689Y267645D01*
X232808Y268019D01*
X232935Y268390D01*
X233072Y268758D01*
X233218Y269123D01*
X233373Y269484D01*
X233536Y269841D01*
X233708Y270194D01*
X233889Y270542D01*
X234079Y270886D01*
X234276Y271226D01*
X234482Y271560D01*
X234696Y271889D01*
X234919Y272213D01*
X235149Y272531D01*
X235386Y272844D01*
X235632Y273150D01*
X235885Y273451D01*
X236145Y273745D01*
X236412Y274033D01*
X236686Y274314D01*
X236967Y274588D01*
X237255Y274855D01*
X237549Y275115D01*
X237850Y275368D01*
X238156Y275614D01*
X238469Y275851D01*
X238787Y276081D01*
X239111Y276304D01*
X239440Y276518D01*
X239774Y276724D01*
X240114Y276921D01*
X240458Y277111D01*
X240806Y277292D01*
X241159Y277464D01*
X241516Y277627D01*
X241877Y277782D01*
X242242Y277928D01*
X242610Y278065D01*
X242981Y278192D01*
X243355Y278311D01*
X243733Y278420D01*
X244112Y278521D01*
X244494Y278611D01*
X244879Y278693D01*
X245265Y278764D01*
X245652Y278827D01*
X246041Y278880D01*
X246432Y278923D01*
X246823Y278957D01*
X247215Y278981D01*
X247607Y278995D01*
X248000Y279000D01*
X248393Y278995D01*
X248785Y278981D01*
X249177Y278957D01*
X249568Y278923D01*
X249959Y278880D01*
X250348Y278827D01*
X250735Y278764D01*
X251121Y278693D01*
X251506Y278611D01*
X251888Y278521D01*
X252267Y278420D01*
X252645Y278311D01*
X253019Y278192D01*
X253390Y278065D01*
X253758Y277928D01*
X254123Y277782D01*
X254484Y277627D01*
X254841Y277464D01*
X255194Y277292D01*
X255542Y277111D01*
X255886Y276921D01*
X256226Y276724D01*
X256560Y276518D01*
X256889Y276304D01*
X257213Y276081D01*
X257531Y275851D01*
X257844Y275614D01*
X258150Y275368D01*
X258451Y275115D01*
X258745Y274855D01*
X259033Y274588D01*
X259314Y274314D01*
X259588Y274033D01*
X259855Y273745D01*
X260115Y273451D01*
X260368Y273150D01*
X260614Y272844D01*
X260851Y272531D01*
X261081Y272213D01*
X261304Y271889D01*
X261518Y271560D01*
X261724Y271226D01*
X261921Y270886D01*
X262111Y270542D01*
X262292Y270194D01*
X262464Y269841D01*
X262627Y269484D01*
X262782Y269123D01*
X262928Y268758D01*
X263065Y268390D01*
X263192Y268019D01*
X263311Y267645D01*
X263420Y267267D01*
X263521Y266888D01*
X263611Y266506D01*
X263693Y266121D01*
X263764Y265735D01*
X263827Y265348D01*
X263880Y264959D01*
X263923Y264568D01*
X263957Y264177D01*
X263981Y263785D01*
X263995Y263393D01*
X264000Y263000D01*
X263995Y262607D01*
X263981Y262215D01*
X263957Y261823D01*
X263923Y261432D01*
X263880Y261041D01*
X263827Y260652D01*
X263764Y260265D01*
X263693Y259879D01*
X263611Y259494D01*
X263521Y259112D01*
X263420Y258733D01*
X263311Y258355D01*
X263192Y257981D01*
X263065Y257610D01*
X262928Y257242D01*
X262782Y256877D01*
X262627Y256516D01*
X262464Y256159D01*
X262292Y255806D01*
X262111Y255458D01*
X261921Y255114D01*
X261724Y254774D01*
X261518Y254440D01*
X261304Y254111D01*
X261081Y253787D01*
X260851Y253469D01*
X260614Y253156D01*
X260368Y252850D01*
X260115Y252549D01*
X259855Y252255D01*
X259588Y251967D01*
X259314Y251686D01*
X259033Y251412D01*
X258745Y251145D01*
X258451Y250885D01*
X258150Y250632D01*
X257844Y250386D01*
X257531Y250149D01*
X257213Y249919D01*
X256889Y249696D01*
X256560Y249482D01*
X256226Y249276D01*
X255886Y249079D01*
X255542Y248889D01*
X255194Y248708D01*
X254841Y248536D01*
X254484Y248373D01*
X254123Y248218D01*
X253758Y248072D01*
X253390Y247935D01*
X253019Y247808D01*
X252645Y247689D01*
X252267Y247580D01*
X251888Y247479D01*
X251506Y247389D01*
X251121Y247307D01*
X250735Y247236D01*
X250348Y247173D01*
X249959Y247120D01*
X249568Y247077D01*
X249177Y247043D01*
X248785Y247019D01*
X248393Y247005D01*
X248000Y247000D01*
X247607Y247005D01*
X247215Y247019D01*
X246823Y247043D01*
X246432Y247077D01*
X246041Y247120D01*
X245652Y247173D01*
X245265Y247236D01*
X244879Y247307D01*
X244494Y247389D01*
X244112Y247479D01*
X243733Y247580D01*
X243355Y247689D01*
X242981Y247808D01*
X242610Y247935D01*
X242242Y248072D01*
X241877Y248218D01*
X241516Y248373D01*
X241159Y248536D01*
X240806Y248708D01*
X240458Y248889D01*
X240114Y249079D01*
X239774Y249276D01*
X239440Y249482D01*
X239111Y249696D01*
X238787Y249919D01*
X238469Y250149D01*
X238156Y250386D01*
X237850Y250632D01*
X237549Y250885D01*
X237255Y251145D01*
X236967Y251412D01*
X236686Y251686D01*
X236412Y251967D01*
X236145Y252255D01*
X235885Y252549D01*
X235632Y252850D01*
X235386Y253156D01*
X235149Y253469D01*
X234919Y253787D01*
X234696Y254111D01*
X234482Y254440D01*
X234276Y254774D01*
X234079Y255114D01*
X233889Y255458D01*
X233708Y255806D01*
X233536Y256159D01*
X233373Y256516D01*
X233218Y256877D01*
X233072Y257242D01*
X232935Y257610D01*
X232808Y257981D01*
X232689Y258355D01*
X232580Y258733D01*
X232479Y259112D01*
X232389Y259494D01*
X232307Y259879D01*
X232236Y260265D01*
X232173Y260652D01*
X232120Y261041D01*
X232077Y261432D01*
X232043Y261823D01*
X232019Y262215D01*
X232005Y262607D01*
X232000Y263000D01*
D13*
X81530Y33900D03*
X120070Y33900D03*
X120070Y15900D03*
X81530Y15900D03*
D14*
X34000Y22000D03*
X59400Y22000D03*
D10*
X262500Y83000D02*
X262502Y82883D01*
X262508Y82766D01*
X262518Y82650D01*
X262531Y82533D01*
X262549Y82418D01*
X262570Y82303D01*
X262595Y82189D01*
X262624Y82075D01*
X262657Y81963D01*
X262694Y81852D01*
X262734Y81742D01*
X262778Y81634D01*
X262825Y81527D01*
X262876Y81421D01*
X262931Y81318D01*
X262989Y81216D01*
X263050Y81117D01*
X263114Y81019D01*
X263182Y80924D01*
X263253Y80831D01*
X263327Y80740D01*
X263404Y80652D01*
X263484Y80567D01*
X263567Y80484D01*
X263652Y80404D01*
X263740Y80327D01*
X263831Y80253D01*
X263924Y80182D01*
X264019Y80114D01*
X264117Y80050D01*
X264216Y79989D01*
X264318Y79931D01*
X264421Y79876D01*
X264527Y79825D01*
X264634Y79778D01*
X264742Y79734D01*
X264852Y79694D01*
X264963Y79657D01*
X265075Y79624D01*
X265189Y79595D01*
X265303Y79570D01*
X265418Y79549D01*
X265533Y79531D01*
X265650Y79518D01*
X265766Y79508D01*
X265883Y79502D01*
X266000Y79500D01*
X262500Y83000D02*
X262500Y85000D01*
X262502Y85117D01*
X262508Y85234D01*
X262518Y85350D01*
X262531Y85467D01*
X262549Y85582D01*
X262570Y85697D01*
X262595Y85811D01*
X262624Y85925D01*
X262657Y86037D01*
X262694Y86148D01*
X262734Y86258D01*
X262778Y86366D01*
X262825Y86473D01*
X262876Y86579D01*
X262931Y86682D01*
X262989Y86784D01*
X263050Y86883D01*
X263114Y86981D01*
X263182Y87076D01*
X263253Y87169D01*
X263327Y87260D01*
X263404Y87348D01*
X263484Y87433D01*
X263567Y87516D01*
X263652Y87596D01*
X263740Y87673D01*
X263831Y87747D01*
X263924Y87818D01*
X264019Y87886D01*
X264117Y87950D01*
X264216Y88011D01*
X264318Y88069D01*
X264421Y88124D01*
X264527Y88175D01*
X264634Y88222D01*
X264742Y88266D01*
X264852Y88306D01*
X264963Y88343D01*
X265075Y88376D01*
X265189Y88405D01*
X265303Y88430D01*
X265418Y88451D01*
X265533Y88469D01*
X265650Y88482D01*
X265766Y88492D01*
X265883Y88498D01*
X266000Y88500D01*
X271500Y88500D01*
X271620Y88506D01*
X271741Y88508D01*
X271861Y88506D01*
X271982Y88501D01*
X272102Y88492D01*
X272221Y88478D01*
X272341Y88461D01*
X272459Y88440D01*
X272577Y88416D01*
X272694Y88387D01*
X272810Y88355D01*
X272925Y88319D01*
X273039Y88280D01*
X273152Y88237D01*
X273263Y88190D01*
X273372Y88140D01*
X273480Y88086D01*
X273586Y88029D01*
X273690Y87968D01*
X273792Y87905D01*
X273892Y87837D01*
X273990Y87767D01*
X274086Y87694D01*
X274179Y87617D01*
X274270Y87538D01*
X274358Y87456D01*
X274443Y87371D01*
X274526Y87283D01*
X274606Y87193D01*
X274682Y87100D01*
X274756Y87005D01*
X274827Y86908D01*
X274894Y86808D01*
X274959Y86706D01*
X275020Y86602D01*
X275078Y86496D01*
X275132Y86389D01*
X275183Y86280D01*
X275230Y86169D01*
X275274Y86057D01*
X275314Y85943D01*
X275350Y85828D01*
X275383Y85712D01*
X275412Y85595D01*
X275437Y85477D01*
X275458Y85359D01*
X275476Y85240D01*
X275490Y85120D01*
X275500Y85000D01*
X275500Y83000D01*
X275490Y82880D01*
X275476Y82760D01*
X275458Y82641D01*
X275437Y82523D01*
X275412Y82405D01*
X275383Y82288D01*
X275350Y82172D01*
X275314Y82057D01*
X275274Y81943D01*
X275230Y81831D01*
X275183Y81720D01*
X275132Y81611D01*
X275078Y81504D01*
X275020Y81398D01*
X274959Y81294D01*
X274894Y81192D01*
X274827Y81092D01*
X274756Y80995D01*
X274682Y80900D01*
X274606Y80807D01*
X274526Y80717D01*
X274443Y80629D01*
X274358Y80544D01*
X274270Y80462D01*
X274179Y80383D01*
X274086Y80306D01*
X273990Y80233D01*
X273892Y80163D01*
X273792Y80095D01*
X273690Y80032D01*
X273586Y79971D01*
X273480Y79914D01*
X273372Y79860D01*
X273263Y79810D01*
X273152Y79763D01*
X273039Y79720D01*
X272925Y79681D01*
X272810Y79645D01*
X272694Y79613D01*
X272577Y79584D01*
X272459Y79560D01*
X272341Y79539D01*
X272221Y79522D01*
X272102Y79508D01*
X271982Y79499D01*
X271861Y79494D01*
X271741Y79492D01*
X271620Y79494D01*
X271500Y79500D01*
X266000Y79500D01*
X275500Y156000D02*
X275513Y156123D01*
X275523Y156247D01*
X275529Y156371D01*
X275531Y156495D01*
X275529Y156619D01*
X275524Y156744D01*
X275514Y156867D01*
X275501Y156991D01*
X275484Y157114D01*
X275463Y157236D01*
X275439Y157358D01*
X275410Y157479D01*
X275378Y157599D01*
X275343Y157718D01*
X275303Y157835D01*
X275260Y157952D01*
X275214Y158067D01*
X275164Y158181D01*
X275110Y158293D01*
X275054Y158403D01*
X274993Y158511D01*
X274930Y158618D01*
X274863Y158723D01*
X274793Y158825D01*
X274720Y158926D01*
X274643Y159024D01*
X274564Y159119D01*
X274482Y159212D01*
X274397Y159303D01*
X274309Y159391D01*
X274219Y159476D01*
X274126Y159558D01*
X274031Y159638D01*
X273933Y159714D01*
X273833Y159787D01*
X273730Y159858D01*
X273626Y159925D01*
X273520Y159989D01*
X273411Y160049D01*
X273301Y160106D01*
X273189Y160160D01*
X273076Y160210D01*
X272961Y160257D01*
X272844Y160300D01*
X272726Y160340D01*
X272608Y160376D01*
X272488Y160408D01*
X272367Y160437D01*
X272245Y160462D01*
X272123Y160483D01*
X272000Y160500D01*
X275500Y156000D02*
X275513Y155877D01*
X275523Y155753D01*
X275529Y155629D01*
X275531Y155505D01*
X275529Y155381D01*
X275524Y155256D01*
X275514Y155133D01*
X275501Y155009D01*
X275484Y154886D01*
X275463Y154764D01*
X275439Y154642D01*
X275410Y154521D01*
X275378Y154401D01*
X275343Y154282D01*
X275303Y154165D01*
X275260Y154048D01*
X275214Y153933D01*
X275164Y153819D01*
X275110Y153707D01*
X275054Y153597D01*
X274993Y153489D01*
X274930Y153382D01*
X274863Y153277D01*
X274793Y153175D01*
X274720Y153074D01*
X274643Y152976D01*
X274564Y152881D01*
X274482Y152788D01*
X274397Y152697D01*
X274309Y152609D01*
X274219Y152524D01*
X274126Y152442D01*
X274031Y152362D01*
X273933Y152286D01*
X273833Y152213D01*
X273730Y152142D01*
X273626Y152075D01*
X273520Y152011D01*
X273411Y151951D01*
X273301Y151894D01*
X273189Y151840D01*
X273076Y151790D01*
X272961Y151743D01*
X272844Y151700D01*
X272726Y151660D01*
X272608Y151624D01*
X272488Y151592D01*
X272367Y151563D01*
X272245Y151538D01*
X272123Y151517D01*
X272000Y151500D01*
X272000Y160500D02*
X266000Y160500D01*
X265875Y160482D01*
X265750Y160461D01*
X265626Y160435D01*
X265503Y160406D01*
X265380Y160372D01*
X265259Y160335D01*
X265140Y160294D01*
X265021Y160250D01*
X264904Y160202D01*
X264788Y160150D01*
X264675Y160094D01*
X264563Y160035D01*
X264453Y159972D01*
X264345Y159906D01*
X264239Y159837D01*
X264135Y159764D01*
X264034Y159688D01*
X263935Y159609D01*
X263838Y159527D01*
X263744Y159442D01*
X263653Y159354D01*
X263565Y159263D01*
X263480Y159170D01*
X263397Y159074D01*
X263318Y158975D01*
X263242Y158874D01*
X263169Y158770D01*
X263099Y158664D01*
X263033Y158556D01*
X262970Y158447D01*
X262911Y158335D01*
X262855Y158221D01*
X262803Y158106D01*
X262754Y157989D01*
X262709Y157870D01*
X262668Y157751D01*
X262631Y157630D01*
X262597Y157508D01*
X262567Y157384D01*
X262541Y157261D01*
X262519Y157136D01*
X262501Y157010D01*
X262487Y156885D01*
X262477Y156758D01*
X262471Y156632D01*
X262469Y156505D01*
X262471Y156379D01*
X262477Y156252D01*
X262486Y156126D01*
X262500Y156000D01*
X262486Y155874D01*
X262477Y155748D01*
X262471Y155621D01*
X262469Y155495D01*
X262471Y155368D01*
X262477Y155242D01*
X262487Y155115D01*
X262501Y154990D01*
X262519Y154864D01*
X262541Y154739D01*
X262567Y154616D01*
X262597Y154492D01*
X262631Y154370D01*
X262668Y154249D01*
X262709Y154130D01*
X262754Y154011D01*
X262803Y153894D01*
X262855Y153779D01*
X262911Y153665D01*
X262970Y153553D01*
X263033Y153444D01*
X263099Y153336D01*
X263169Y153230D01*
X263242Y153126D01*
X263318Y153025D01*
X263397Y152926D01*
X263480Y152830D01*
X263565Y152737D01*
X263653Y152646D01*
X263744Y152558D01*
X263838Y152473D01*
X263935Y152391D01*
X264034Y152312D01*
X264135Y152236D01*
X264239Y152163D01*
X264345Y152094D01*
X264453Y152028D01*
X264563Y151965D01*
X264675Y151906D01*
X264788Y151850D01*
X264904Y151798D01*
X265021Y151750D01*
X265140Y151706D01*
X265259Y151665D01*
X265380Y151628D01*
X265503Y151594D01*
X265626Y151565D01*
X265750Y151539D01*
X265875Y151518D01*
X266000Y151500D01*
X272000Y151500D01*
D15*
X241000Y87000D02*
X241000Y73920D01*
X241000Y153000D02*
X241000Y166080D01*
D16*
X269000Y84000D03*
X269000Y156000D03*
D10*
X246500Y100500D02*
X246502Y100618D01*
X246508Y100736D01*
X246518Y100854D01*
X246532Y100971D01*
X246550Y101088D01*
X246572Y101205D01*
X246597Y101320D01*
X246627Y101434D01*
X246661Y101548D01*
X246698Y101660D01*
X246739Y101771D01*
X246784Y101880D01*
X246832Y101988D01*
X246884Y102094D01*
X246940Y102199D01*
X246999Y102301D01*
X247061Y102401D01*
X247127Y102499D01*
X247196Y102595D01*
X247269Y102689D01*
X247344Y102780D01*
X247423Y102868D01*
X247504Y102954D01*
X247589Y103037D01*
X247676Y103117D01*
X247765Y103194D01*
X247858Y103268D01*
X247952Y103338D01*
X248049Y103406D01*
X248149Y103470D01*
X248250Y103531D01*
X248353Y103588D01*
X248459Y103642D01*
X248566Y103693D01*
X248674Y103739D01*
X248784Y103782D01*
X248896Y103821D01*
X249009Y103857D01*
X249123Y103888D01*
X249238Y103916D01*
X249353Y103940D01*
X249470Y103960D01*
X249587Y103976D01*
X249705Y103988D01*
X249823Y103996D01*
X249941Y104000D01*
X250059Y104000D01*
X250177Y103996D01*
X250295Y103988D01*
X250413Y103976D01*
X250530Y103960D01*
X250647Y103940D01*
X250762Y103916D01*
X250877Y103888D01*
X250991Y103857D01*
X251104Y103821D01*
X251216Y103782D01*
X251326Y103739D01*
X251434Y103693D01*
X251541Y103642D01*
X251647Y103588D01*
X251750Y103531D01*
X251851Y103470D01*
X251951Y103406D01*
X252048Y103338D01*
X252142Y103268D01*
X252235Y103194D01*
X252324Y103117D01*
X252411Y103037D01*
X252496Y102954D01*
X252577Y102868D01*
X252656Y102780D01*
X252731Y102689D01*
X252804Y102595D01*
X252873Y102499D01*
X252939Y102401D01*
X253001Y102301D01*
X253060Y102199D01*
X253116Y102094D01*
X253168Y101988D01*
X253216Y101880D01*
X253261Y101771D01*
X253302Y101660D01*
X253339Y101548D01*
X253373Y101434D01*
X253403Y101320D01*
X253428Y101205D01*
X253450Y101088D01*
X253468Y100971D01*
X253482Y100854D01*
X253492Y100736D01*
X253498Y100618D01*
X253500Y100500D01*
X253498Y100382D01*
X253492Y100264D01*
X253482Y100146D01*
X253468Y100029D01*
X253450Y99912D01*
X253428Y99795D01*
X253403Y99680D01*
X253373Y99566D01*
X253339Y99452D01*
X253302Y99340D01*
X253261Y99229D01*
X253216Y99120D01*
X253168Y99012D01*
X253116Y98906D01*
X253060Y98801D01*
X253001Y98699D01*
X252939Y98599D01*
X252873Y98501D01*
X252804Y98405D01*
X252731Y98311D01*
X252656Y98220D01*
X252577Y98132D01*
X252496Y98046D01*
X252411Y97963D01*
X252324Y97883D01*
X252235Y97806D01*
X252142Y97732D01*
X252048Y97662D01*
X251951Y97594D01*
X251851Y97530D01*
X251750Y97469D01*
X251647Y97412D01*
X251541Y97358D01*
X251434Y97307D01*
X251326Y97261D01*
X251216Y97218D01*
X251104Y97179D01*
X250991Y97143D01*
X250877Y97112D01*
X250762Y97084D01*
X250647Y97060D01*
X250530Y97040D01*
X250413Y97024D01*
X250295Y97012D01*
X250177Y97004D01*
X250059Y97000D01*
X249941Y97000D01*
X249823Y97004D01*
X249705Y97012D01*
X249587Y97024D01*
X249470Y97040D01*
X249353Y97060D01*
X249238Y97084D01*
X249123Y97112D01*
X249009Y97143D01*
X248896Y97179D01*
X248784Y97218D01*
X248674Y97261D01*
X248566Y97307D01*
X248459Y97358D01*
X248353Y97412D01*
X248250Y97469D01*
X248149Y97530D01*
X248049Y97594D01*
X247952Y97662D01*
X247858Y97732D01*
X247765Y97806D01*
X247676Y97883D01*
X247589Y97963D01*
X247504Y98046D01*
X247423Y98132D01*
X247344Y98220D01*
X247269Y98311D01*
X247196Y98405D01*
X247127Y98501D01*
X247061Y98599D01*
X246999Y98699D01*
X246940Y98801D01*
X246884Y98906D01*
X246832Y99012D01*
X246784Y99120D01*
X246739Y99229D01*
X246698Y99340D01*
X246661Y99452D01*
X246627Y99566D01*
X246597Y99680D01*
X246572Y99795D01*
X246550Y99912D01*
X246532Y100029D01*
X246518Y100146D01*
X246508Y100264D01*
X246502Y100382D01*
X246500Y100500D01*
X246500Y139500D02*
X246502Y139618D01*
X246508Y139736D01*
X246518Y139854D01*
X246532Y139971D01*
X246550Y140088D01*
X246572Y140205D01*
X246597Y140320D01*
X246627Y140434D01*
X246661Y140548D01*
X246698Y140660D01*
X246739Y140771D01*
X246784Y140880D01*
X246832Y140988D01*
X246884Y141094D01*
X246940Y141199D01*
X246999Y141301D01*
X247061Y141401D01*
X247127Y141499D01*
X247196Y141595D01*
X247269Y141689D01*
X247344Y141780D01*
X247423Y141868D01*
X247504Y141954D01*
X247589Y142037D01*
X247676Y142117D01*
X247765Y142194D01*
X247858Y142268D01*
X247952Y142338D01*
X248049Y142406D01*
X248149Y142470D01*
X248250Y142531D01*
X248353Y142588D01*
X248459Y142642D01*
X248566Y142693D01*
X248674Y142739D01*
X248784Y142782D01*
X248896Y142821D01*
X249009Y142857D01*
X249123Y142888D01*
X249238Y142916D01*
X249353Y142940D01*
X249470Y142960D01*
X249587Y142976D01*
X249705Y142988D01*
X249823Y142996D01*
X249941Y143000D01*
X250059Y143000D01*
X250177Y142996D01*
X250295Y142988D01*
X250413Y142976D01*
X250530Y142960D01*
X250647Y142940D01*
X250762Y142916D01*
X250877Y142888D01*
X250991Y142857D01*
X251104Y142821D01*
X251216Y142782D01*
X251326Y142739D01*
X251434Y142693D01*
X251541Y142642D01*
X251647Y142588D01*
X251750Y142531D01*
X251851Y142470D01*
X251951Y142406D01*
X252048Y142338D01*
X252142Y142268D01*
X252235Y142194D01*
X252324Y142117D01*
X252411Y142037D01*
X252496Y141954D01*
X252577Y141868D01*
X252656Y141780D01*
X252731Y141689D01*
X252804Y141595D01*
X252873Y141499D01*
X252939Y141401D01*
X253001Y141301D01*
X253060Y141199D01*
X253116Y141094D01*
X253168Y140988D01*
X253216Y140880D01*
X253261Y140771D01*
X253302Y140660D01*
X253339Y140548D01*
X253373Y140434D01*
X253403Y140320D01*
X253428Y140205D01*
X253450Y140088D01*
X253468Y139971D01*
X253482Y139854D01*
X253492Y139736D01*
X253498Y139618D01*
X253500Y139500D01*
X253498Y139382D01*
X253492Y139264D01*
X253482Y139146D01*
X253468Y139029D01*
X253450Y138912D01*
X253428Y138795D01*
X253403Y138680D01*
X253373Y138566D01*
X253339Y138452D01*
X253302Y138340D01*
X253261Y138229D01*
X253216Y138120D01*
X253168Y138012D01*
X253116Y137906D01*
X253060Y137801D01*
X253001Y137699D01*
X252939Y137599D01*
X252873Y137501D01*
X252804Y137405D01*
X252731Y137311D01*
X252656Y137220D01*
X252577Y137132D01*
X252496Y137046D01*
X252411Y136963D01*
X252324Y136883D01*
X252235Y136806D01*
X252142Y136732D01*
X252048Y136662D01*
X251951Y136594D01*
X251851Y136530D01*
X251750Y136469D01*
X251647Y136412D01*
X251541Y136358D01*
X251434Y136307D01*
X251326Y136261D01*
X251216Y136218D01*
X251104Y136179D01*
X250991Y136143D01*
X250877Y136112D01*
X250762Y136084D01*
X250647Y136060D01*
X250530Y136040D01*
X250413Y136024D01*
X250295Y136012D01*
X250177Y136004D01*
X250059Y136000D01*
X249941Y136000D01*
X249823Y136004D01*
X249705Y136012D01*
X249587Y136024D01*
X249470Y136040D01*
X249353Y136060D01*
X249238Y136084D01*
X249123Y136112D01*
X249009Y136143D01*
X248896Y136179D01*
X248784Y136218D01*
X248674Y136261D01*
X248566Y136307D01*
X248459Y136358D01*
X248353Y136412D01*
X248250Y136469D01*
X248149Y136530D01*
X248049Y136594D01*
X247952Y136662D01*
X247858Y136732D01*
X247765Y136806D01*
X247676Y136883D01*
X247589Y136963D01*
X247504Y137046D01*
X247423Y137132D01*
X247344Y137220D01*
X247269Y137311D01*
X247196Y137405D01*
X247127Y137501D01*
X247061Y137599D01*
X246999Y137699D01*
X246940Y137801D01*
X246884Y137906D01*
X246832Y138012D01*
X246784Y138120D01*
X246739Y138229D01*
X246698Y138340D01*
X246661Y138452D01*
X246627Y138566D01*
X246597Y138680D01*
X246572Y138795D01*
X246550Y138912D01*
X246532Y139029D01*
X246518Y139146D01*
X246508Y139264D01*
X246502Y139382D01*
X246500Y139500D01*
X20047Y412100D02*
X20049Y412240D01*
X20055Y412380D01*
X20065Y412520D01*
X20079Y412660D01*
X20097Y412799D01*
X20118Y412937D01*
X20144Y413075D01*
X20173Y413212D01*
X20207Y413348D01*
X20244Y413483D01*
X20285Y413617D01*
X20330Y413750D01*
X20378Y413882D01*
X20431Y414012D01*
X20487Y414140D01*
X20546Y414267D01*
X20609Y414392D01*
X20676Y414516D01*
X20746Y414637D01*
X20820Y414756D01*
X20896Y414874D01*
X20977Y414989D01*
X21060Y415101D01*
X21146Y415212D01*
X21236Y415319D01*
X21329Y415425D01*
X21424Y415527D01*
X21523Y415627D01*
X21624Y415724D01*
X21728Y415818D01*
X21834Y415909D01*
X21943Y415997D01*
X22055Y416082D01*
X22169Y416164D01*
X22285Y416242D01*
X22403Y416318D01*
X22524Y416389D01*
X22646Y416458D01*
X22770Y416523D01*
X22896Y416584D01*
X23024Y416642D01*
X23153Y416696D01*
X23284Y416746D01*
X23416Y416793D01*
X23550Y416836D01*
X23684Y416875D01*
X23820Y416910D01*
X23957Y416942D01*
X24094Y416969D01*
X24232Y416993D01*
X24371Y417013D01*
X24510Y417029D01*
X24650Y417041D01*
X24790Y417049D01*
X24930Y417053D01*
X25070Y417053D01*
X25210Y417049D01*
X25350Y417041D01*
X25490Y417029D01*
X25629Y417013D01*
X25768Y416993D01*
X25906Y416969D01*
X26043Y416942D01*
X26180Y416910D01*
X26316Y416875D01*
X26450Y416836D01*
X26584Y416793D01*
X26716Y416746D01*
X26847Y416696D01*
X26976Y416642D01*
X27104Y416584D01*
X27230Y416523D01*
X27354Y416458D01*
X27477Y416389D01*
X27597Y416318D01*
X27715Y416242D01*
X27831Y416164D01*
X27945Y416082D01*
X28057Y415997D01*
X28166Y415909D01*
X28272Y415818D01*
X28376Y415724D01*
X28477Y415627D01*
X28576Y415527D01*
X28671Y415425D01*
X28764Y415319D01*
X28854Y415212D01*
X28940Y415101D01*
X29023Y414989D01*
X29104Y414874D01*
X29180Y414756D01*
X29254Y414637D01*
X29324Y414516D01*
X29391Y414392D01*
X29454Y414267D01*
X29513Y414140D01*
X29569Y414012D01*
X29622Y413882D01*
X29670Y413750D01*
X29715Y413617D01*
X29756Y413483D01*
X29793Y413348D01*
X29827Y413212D01*
X29856Y413075D01*
X29882Y412937D01*
X29903Y412799D01*
X29921Y412660D01*
X29935Y412520D01*
X29945Y412380D01*
X29951Y412240D01*
X29953Y412100D01*
X29951Y411960D01*
X29945Y411820D01*
X29935Y411680D01*
X29921Y411540D01*
X29903Y411401D01*
X29882Y411263D01*
X29856Y411125D01*
X29827Y410988D01*
X29793Y410852D01*
X29756Y410717D01*
X29715Y410583D01*
X29670Y410450D01*
X29622Y410318D01*
X29569Y410188D01*
X29513Y410060D01*
X29454Y409933D01*
X29391Y409808D01*
X29324Y409684D01*
X29254Y409563D01*
X29180Y409444D01*
X29104Y409326D01*
X29023Y409211D01*
X28940Y409099D01*
X28854Y408988D01*
X28764Y408881D01*
X28671Y408775D01*
X28576Y408673D01*
X28477Y408573D01*
X28376Y408476D01*
X28272Y408382D01*
X28166Y408291D01*
X28057Y408203D01*
X27945Y408118D01*
X27831Y408036D01*
X27715Y407958D01*
X27597Y407882D01*
X27476Y407811D01*
X27354Y407742D01*
X27230Y407677D01*
X27104Y407616D01*
X26976Y407558D01*
X26847Y407504D01*
X26716Y407454D01*
X26584Y407407D01*
X26450Y407364D01*
X26316Y407325D01*
X26180Y407290D01*
X26043Y407258D01*
X25906Y407231D01*
X25768Y407207D01*
X25629Y407187D01*
X25490Y407171D01*
X25350Y407159D01*
X25210Y407151D01*
X25070Y407147D01*
X24930Y407147D01*
X24790Y407151D01*
X24650Y407159D01*
X24510Y407171D01*
X24371Y407187D01*
X24232Y407207D01*
X24094Y407231D01*
X23957Y407258D01*
X23820Y407290D01*
X23684Y407325D01*
X23550Y407364D01*
X23416Y407407D01*
X23284Y407454D01*
X23153Y407504D01*
X23024Y407558D01*
X22896Y407616D01*
X22770Y407677D01*
X22646Y407742D01*
X22523Y407811D01*
X22403Y407882D01*
X22285Y407958D01*
X22169Y408036D01*
X22055Y408118D01*
X21943Y408203D01*
X21834Y408291D01*
X21728Y408382D01*
X21624Y408476D01*
X21523Y408573D01*
X21424Y408673D01*
X21329Y408775D01*
X21236Y408881D01*
X21146Y408988D01*
X21060Y409099D01*
X20977Y409211D01*
X20896Y409326D01*
X20820Y409444D01*
X20746Y409563D01*
X20676Y409684D01*
X20609Y409808D01*
X20546Y409933D01*
X20487Y410060D01*
X20431Y410188D01*
X20378Y410318D01*
X20330Y410450D01*
X20285Y410583D01*
X20244Y410717D01*
X20207Y410852D01*
X20173Y410988D01*
X20144Y411125D01*
X20118Y411263D01*
X20097Y411401D01*
X20079Y411540D01*
X20065Y411680D01*
X20055Y411820D01*
X20049Y411960D01*
X20047Y412100D01*
X30207Y335900D02*
X30209Y336040D01*
X30215Y336180D01*
X30225Y336320D01*
X30239Y336460D01*
X30257Y336599D01*
X30278Y336737D01*
X30304Y336875D01*
X30333Y337012D01*
X30367Y337148D01*
X30404Y337283D01*
X30445Y337417D01*
X30490Y337550D01*
X30538Y337682D01*
X30591Y337812D01*
X30647Y337940D01*
X30706Y338067D01*
X30769Y338192D01*
X30836Y338316D01*
X30906Y338437D01*
X30980Y338556D01*
X31056Y338674D01*
X31137Y338789D01*
X31220Y338901D01*
X31306Y339012D01*
X31396Y339119D01*
X31489Y339225D01*
X31584Y339327D01*
X31683Y339427D01*
X31784Y339524D01*
X31888Y339618D01*
X31994Y339709D01*
X32103Y339797D01*
X32215Y339882D01*
X32329Y339964D01*
X32445Y340042D01*
X32563Y340118D01*
X32684Y340189D01*
X32806Y340258D01*
X32930Y340323D01*
X33056Y340384D01*
X33184Y340442D01*
X33313Y340496D01*
X33444Y340546D01*
X33576Y340593D01*
X33710Y340636D01*
X33844Y340675D01*
X33980Y340710D01*
X34117Y340742D01*
X34254Y340769D01*
X34392Y340793D01*
X34531Y340813D01*
X34670Y340829D01*
X34810Y340841D01*
X34950Y340849D01*
X35090Y340853D01*
X35230Y340853D01*
X35370Y340849D01*
X35510Y340841D01*
X35650Y340829D01*
X35789Y340813D01*
X35928Y340793D01*
X36066Y340769D01*
X36203Y340742D01*
X36340Y340710D01*
X36476Y340675D01*
X36610Y340636D01*
X36744Y340593D01*
X36876Y340546D01*
X37007Y340496D01*
X37136Y340442D01*
X37264Y340384D01*
X37390Y340323D01*
X37514Y340258D01*
X37637Y340189D01*
X37757Y340118D01*
X37875Y340042D01*
X37991Y339964D01*
X38105Y339882D01*
X38217Y339797D01*
X38326Y339709D01*
X38432Y339618D01*
X38536Y339524D01*
X38637Y339427D01*
X38736Y339327D01*
X38831Y339225D01*
X38924Y339119D01*
X39014Y339012D01*
X39100Y338901D01*
X39183Y338789D01*
X39264Y338674D01*
X39340Y338556D01*
X39414Y338437D01*
X39484Y338316D01*
X39551Y338192D01*
X39614Y338067D01*
X39673Y337940D01*
X39729Y337812D01*
X39782Y337682D01*
X39830Y337550D01*
X39875Y337417D01*
X39916Y337283D01*
X39953Y337148D01*
X39987Y337012D01*
X40016Y336875D01*
X40042Y336737D01*
X40063Y336599D01*
X40081Y336460D01*
X40095Y336320D01*
X40105Y336180D01*
X40111Y336040D01*
X40113Y335900D01*
X40111Y335760D01*
X40105Y335620D01*
X40095Y335480D01*
X40081Y335340D01*
X40063Y335201D01*
X40042Y335063D01*
X40016Y334925D01*
X39987Y334788D01*
X39953Y334652D01*
X39916Y334517D01*
X39875Y334383D01*
X39830Y334250D01*
X39782Y334118D01*
X39729Y333988D01*
X39673Y333860D01*
X39614Y333733D01*
X39551Y333608D01*
X39484Y333484D01*
X39414Y333363D01*
X39340Y333244D01*
X39264Y333126D01*
X39183Y333011D01*
X39100Y332899D01*
X39014Y332788D01*
X38924Y332681D01*
X38831Y332575D01*
X38736Y332473D01*
X38637Y332373D01*
X38536Y332276D01*
X38432Y332182D01*
X38326Y332091D01*
X38217Y332003D01*
X38105Y331918D01*
X37991Y331836D01*
X37875Y331758D01*
X37757Y331682D01*
X37636Y331611D01*
X37514Y331542D01*
X37390Y331477D01*
X37264Y331416D01*
X37136Y331358D01*
X37007Y331304D01*
X36876Y331254D01*
X36744Y331207D01*
X36610Y331164D01*
X36476Y331125D01*
X36340Y331090D01*
X36203Y331058D01*
X36066Y331031D01*
X35928Y331007D01*
X35789Y330987D01*
X35650Y330971D01*
X35510Y330959D01*
X35370Y330951D01*
X35230Y330947D01*
X35090Y330947D01*
X34950Y330951D01*
X34810Y330959D01*
X34670Y330971D01*
X34531Y330987D01*
X34392Y331007D01*
X34254Y331031D01*
X34117Y331058D01*
X33980Y331090D01*
X33844Y331125D01*
X33710Y331164D01*
X33576Y331207D01*
X33444Y331254D01*
X33313Y331304D01*
X33184Y331358D01*
X33056Y331416D01*
X32930Y331477D01*
X32806Y331542D01*
X32683Y331611D01*
X32563Y331682D01*
X32445Y331758D01*
X32329Y331836D01*
X32215Y331918D01*
X32103Y332003D01*
X31994Y332091D01*
X31888Y332182D01*
X31784Y332276D01*
X31683Y332373D01*
X31584Y332473D01*
X31489Y332575D01*
X31396Y332681D01*
X31306Y332788D01*
X31220Y332899D01*
X31137Y333011D01*
X31056Y333126D01*
X30980Y333244D01*
X30906Y333363D01*
X30836Y333484D01*
X30769Y333608D01*
X30706Y333733D01*
X30647Y333860D01*
X30591Y333988D01*
X30538Y334118D01*
X30490Y334250D01*
X30445Y334383D01*
X30404Y334517D01*
X30367Y334652D01*
X30333Y334788D01*
X30304Y334925D01*
X30278Y335063D01*
X30257Y335201D01*
X30239Y335340D01*
X30225Y335480D01*
X30215Y335620D01*
X30209Y335760D01*
X30207Y335900D01*
X9887Y335900D02*
X9889Y336040D01*
X9895Y336180D01*
X9905Y336320D01*
X9919Y336460D01*
X9937Y336599D01*
X9958Y336737D01*
X9984Y336875D01*
X10013Y337012D01*
X10047Y337148D01*
X10084Y337283D01*
X10125Y337417D01*
X10170Y337550D01*
X10218Y337682D01*
X10271Y337812D01*
X10327Y337940D01*
X10386Y338067D01*
X10449Y338192D01*
X10516Y338316D01*
X10586Y338437D01*
X10660Y338556D01*
X10736Y338674D01*
X10817Y338789D01*
X10900Y338901D01*
X10986Y339012D01*
X11076Y339119D01*
X11169Y339225D01*
X11264Y339327D01*
X11363Y339427D01*
X11464Y339524D01*
X11568Y339618D01*
X11674Y339709D01*
X11783Y339797D01*
X11895Y339882D01*
X12009Y339964D01*
X12125Y340042D01*
X12243Y340118D01*
X12364Y340189D01*
X12486Y340258D01*
X12610Y340323D01*
X12736Y340384D01*
X12864Y340442D01*
X12993Y340496D01*
X13124Y340546D01*
X13256Y340593D01*
X13390Y340636D01*
X13524Y340675D01*
X13660Y340710D01*
X13797Y340742D01*
X13934Y340769D01*
X14072Y340793D01*
X14211Y340813D01*
X14350Y340829D01*
X14490Y340841D01*
X14630Y340849D01*
X14770Y340853D01*
X14910Y340853D01*
X15050Y340849D01*
X15190Y340841D01*
X15330Y340829D01*
X15469Y340813D01*
X15608Y340793D01*
X15746Y340769D01*
X15883Y340742D01*
X16020Y340710D01*
X16156Y340675D01*
X16290Y340636D01*
X16424Y340593D01*
X16556Y340546D01*
X16687Y340496D01*
X16816Y340442D01*
X16944Y340384D01*
X17070Y340323D01*
X17194Y340258D01*
X17317Y340189D01*
X17437Y340118D01*
X17555Y340042D01*
X17671Y339964D01*
X17785Y339882D01*
X17897Y339797D01*
X18006Y339709D01*
X18112Y339618D01*
X18216Y339524D01*
X18317Y339427D01*
X18416Y339327D01*
X18511Y339225D01*
X18604Y339119D01*
X18694Y339012D01*
X18780Y338901D01*
X18863Y338789D01*
X18944Y338674D01*
X19020Y338556D01*
X19094Y338437D01*
X19164Y338316D01*
X19231Y338192D01*
X19294Y338067D01*
X19353Y337940D01*
X19409Y337812D01*
X19462Y337682D01*
X19510Y337550D01*
X19555Y337417D01*
X19596Y337283D01*
X19633Y337148D01*
X19667Y337012D01*
X19696Y336875D01*
X19722Y336737D01*
X19743Y336599D01*
X19761Y336460D01*
X19775Y336320D01*
X19785Y336180D01*
X19791Y336040D01*
X19793Y335900D01*
X19791Y335760D01*
X19785Y335620D01*
X19775Y335480D01*
X19761Y335340D01*
X19743Y335201D01*
X19722Y335063D01*
X19696Y334925D01*
X19667Y334788D01*
X19633Y334652D01*
X19596Y334517D01*
X19555Y334383D01*
X19510Y334250D01*
X19462Y334118D01*
X19409Y333988D01*
X19353Y333860D01*
X19294Y333733D01*
X19231Y333608D01*
X19164Y333484D01*
X19094Y333363D01*
X19020Y333244D01*
X18944Y333126D01*
X18863Y333011D01*
X18780Y332899D01*
X18694Y332788D01*
X18604Y332681D01*
X18511Y332575D01*
X18416Y332473D01*
X18317Y332373D01*
X18216Y332276D01*
X18112Y332182D01*
X18006Y332091D01*
X17897Y332003D01*
X17785Y331918D01*
X17671Y331836D01*
X17555Y331758D01*
X17437Y331682D01*
X17316Y331611D01*
X17194Y331542D01*
X17070Y331477D01*
X16944Y331416D01*
X16816Y331358D01*
X16687Y331304D01*
X16556Y331254D01*
X16424Y331207D01*
X16290Y331164D01*
X16156Y331125D01*
X16020Y331090D01*
X15883Y331058D01*
X15746Y331031D01*
X15608Y331007D01*
X15469Y330987D01*
X15330Y330971D01*
X15190Y330959D01*
X15050Y330951D01*
X14910Y330947D01*
X14770Y330947D01*
X14630Y330951D01*
X14490Y330959D01*
X14350Y330971D01*
X14211Y330987D01*
X14072Y331007D01*
X13934Y331031D01*
X13797Y331058D01*
X13660Y331090D01*
X13524Y331125D01*
X13390Y331164D01*
X13256Y331207D01*
X13124Y331254D01*
X12993Y331304D01*
X12864Y331358D01*
X12736Y331416D01*
X12610Y331477D01*
X12486Y331542D01*
X12363Y331611D01*
X12243Y331682D01*
X12125Y331758D01*
X12009Y331836D01*
X11895Y331918D01*
X11783Y332003D01*
X11674Y332091D01*
X11568Y332182D01*
X11464Y332276D01*
X11363Y332373D01*
X11264Y332473D01*
X11169Y332575D01*
X11076Y332681D01*
X10986Y332788D01*
X10900Y332899D01*
X10817Y333011D01*
X10736Y333126D01*
X10660Y333244D01*
X10586Y333363D01*
X10516Y333484D01*
X10449Y333608D01*
X10386Y333733D01*
X10327Y333860D01*
X10271Y333988D01*
X10218Y334118D01*
X10170Y334250D01*
X10125Y334383D01*
X10084Y334517D01*
X10047Y334652D01*
X10013Y334788D01*
X9984Y334925D01*
X9958Y335063D01*
X9937Y335201D01*
X9919Y335340D01*
X9905Y335480D01*
X9895Y335620D01*
X9889Y335760D01*
X9887Y335900D01*
D17*
X282000Y268500D03*
X282000Y293900D03*
X282000Y319300D03*
X282000Y344700D03*
X282000Y370100D03*
X282000Y395500D03*
X18000Y172500D03*
X18000Y197900D03*
X18000Y223300D03*
X18000Y248700D03*
X18000Y274100D03*
X18000Y299500D03*
D14*
X142000Y22000D03*
X167400Y22000D03*
X121000Y102000D03*
X121000Y127400D03*
X121000Y152800D03*
D10*
X279250Y200500D02*
X279252Y200638D01*
X279258Y200775D01*
X279268Y200912D01*
X279282Y201049D01*
X279300Y201185D01*
X279322Y201321D01*
X279347Y201456D01*
X279377Y201590D01*
X279410Y201724D01*
X279448Y201856D01*
X279489Y201987D01*
X279534Y202117D01*
X279583Y202246D01*
X279635Y202373D01*
X279691Y202499D01*
X279751Y202623D01*
X279814Y202745D01*
X279881Y202865D01*
X279951Y202983D01*
X280024Y203100D01*
X280101Y203214D01*
X280182Y203325D01*
X280265Y203435D01*
X280351Y203542D01*
X280441Y203646D01*
X280534Y203748D01*
X280629Y203847D01*
X280727Y203943D01*
X280828Y204036D01*
X280932Y204126D01*
X281038Y204214D01*
X281147Y204298D01*
X281258Y204379D01*
X281372Y204457D01*
X281487Y204531D01*
X281605Y204602D01*
X281725Y204670D01*
X281847Y204734D01*
X281970Y204794D01*
X282095Y204851D01*
X282222Y204905D01*
X282350Y204954D01*
X282480Y205000D01*
X282611Y205042D01*
X282743Y205081D01*
X282876Y205115D01*
X283010Y205146D01*
X283145Y205172D01*
X283281Y205195D01*
X283417Y205214D01*
X283554Y205229D01*
X283691Y205240D01*
X283828Y205247D01*
X283966Y205250D01*
X284103Y205249D01*
X284241Y205244D01*
X284378Y205235D01*
X284515Y205222D01*
X284651Y205205D01*
X284787Y205184D01*
X284922Y205160D01*
X285057Y205131D01*
X285191Y205098D01*
X285323Y205062D01*
X285455Y205022D01*
X285585Y204978D01*
X285714Y204930D01*
X285842Y204878D01*
X285968Y204823D01*
X286092Y204765D01*
X286214Y204702D01*
X286335Y204636D01*
X286454Y204567D01*
X286571Y204494D01*
X286685Y204418D01*
X286798Y204339D01*
X286908Y204256D01*
X287015Y204170D01*
X287120Y204082D01*
X287222Y203990D01*
X287322Y203895D01*
X287419Y203797D01*
X287513Y203697D01*
X287604Y203594D01*
X287692Y203488D01*
X287777Y203380D01*
X287859Y203270D01*
X287938Y203157D01*
X288013Y203042D01*
X288085Y202924D01*
X288153Y202805D01*
X288218Y202684D01*
X288280Y202561D01*
X288337Y202436D01*
X288392Y202310D01*
X288442Y202182D01*
X288489Y202053D01*
X288532Y201922D01*
X288571Y201790D01*
X288607Y201657D01*
X288638Y201523D01*
X288666Y201389D01*
X288690Y201253D01*
X288710Y201117D01*
X288726Y200981D01*
X288738Y200844D01*
X288746Y200706D01*
X288750Y200569D01*
X288750Y200431D01*
X288746Y200294D01*
X288738Y200156D01*
X288726Y200019D01*
X288710Y199883D01*
X288690Y199747D01*
X288666Y199611D01*
X288638Y199477D01*
X288607Y199343D01*
X288571Y199210D01*
X288532Y199078D01*
X288489Y198947D01*
X288442Y198818D01*
X288392Y198690D01*
X288337Y198564D01*
X288280Y198439D01*
X288218Y198316D01*
X288153Y198195D01*
X288085Y198076D01*
X288013Y197958D01*
X287938Y197843D01*
X287859Y197730D01*
X287777Y197620D01*
X287692Y197512D01*
X287604Y197406D01*
X287513Y197303D01*
X287419Y197203D01*
X287322Y197105D01*
X287222Y197010D01*
X287120Y196918D01*
X287015Y196830D01*
X286908Y196744D01*
X286798Y196661D01*
X286685Y196582D01*
X286571Y196506D01*
X286454Y196433D01*
X286335Y196364D01*
X286214Y196298D01*
X286092Y196235D01*
X285968Y196177D01*
X285842Y196122D01*
X285714Y196070D01*
X285585Y196022D01*
X285455Y195978D01*
X285323Y195938D01*
X285191Y195902D01*
X285057Y195869D01*
X284922Y195840D01*
X284787Y195816D01*
X284651Y195795D01*
X284515Y195778D01*
X284378Y195765D01*
X284241Y195756D01*
X284103Y195751D01*
X283966Y195750D01*
X283828Y195753D01*
X283691Y195760D01*
X283554Y195771D01*
X283417Y195786D01*
X283281Y195805D01*
X283145Y195828D01*
X283010Y195854D01*
X282876Y195885D01*
X282743Y195919D01*
X282611Y195958D01*
X282480Y196000D01*
X282350Y196046D01*
X282222Y196095D01*
X282095Y196149D01*
X281970Y196206D01*
X281847Y196266D01*
X281725Y196330D01*
X281605Y196398D01*
X281487Y196469D01*
X281372Y196543D01*
X281258Y196621D01*
X281147Y196702D01*
X281038Y196786D01*
X280932Y196874D01*
X280828Y196964D01*
X280727Y197057D01*
X280629Y197153D01*
X280534Y197252D01*
X280441Y197354D01*
X280351Y197458D01*
X280265Y197565D01*
X280182Y197675D01*
X280101Y197786D01*
X280024Y197900D01*
X279951Y198017D01*
X279881Y198135D01*
X279814Y198255D01*
X279751Y198377D01*
X279691Y198501D01*
X279635Y198627D01*
X279583Y198754D01*
X279534Y198883D01*
X279489Y199013D01*
X279448Y199144D01*
X279410Y199276D01*
X279377Y199410D01*
X279347Y199544D01*
X279322Y199679D01*
X279300Y199815D01*
X279282Y199951D01*
X279268Y200088D01*
X279258Y200225D01*
X279252Y200362D01*
X279250Y200500D01*
X279250Y223500D02*
X279252Y223638D01*
X279258Y223775D01*
X279268Y223912D01*
X279282Y224049D01*
X279300Y224185D01*
X279322Y224321D01*
X279347Y224456D01*
X279377Y224590D01*
X279410Y224724D01*
X279448Y224856D01*
X279489Y224987D01*
X279534Y225117D01*
X279583Y225246D01*
X279635Y225373D01*
X279691Y225499D01*
X279751Y225623D01*
X279814Y225745D01*
X279881Y225865D01*
X279951Y225983D01*
X280024Y226100D01*
X280101Y226214D01*
X280182Y226325D01*
X280265Y226435D01*
X280351Y226542D01*
X280441Y226646D01*
X280534Y226748D01*
X280629Y226847D01*
X280727Y226943D01*
X280828Y227036D01*
X280932Y227126D01*
X281038Y227214D01*
X281147Y227298D01*
X281258Y227379D01*
X281372Y227457D01*
X281487Y227531D01*
X281605Y227602D01*
X281725Y227670D01*
X281847Y227734D01*
X281970Y227794D01*
X282095Y227851D01*
X282222Y227905D01*
X282350Y227954D01*
X282480Y228000D01*
X282611Y228042D01*
X282743Y228081D01*
X282876Y228115D01*
X283010Y228146D01*
X283145Y228172D01*
X283281Y228195D01*
X283417Y228214D01*
X283554Y228229D01*
X283691Y228240D01*
X283828Y228247D01*
X283966Y228250D01*
X284103Y228249D01*
X284241Y228244D01*
X284378Y228235D01*
X284515Y228222D01*
X284651Y228205D01*
X284787Y228184D01*
X284922Y228160D01*
X285057Y228131D01*
X285191Y228098D01*
X285323Y228062D01*
X285455Y228022D01*
X285585Y227978D01*
X285714Y227930D01*
X285842Y227878D01*
X285968Y227823D01*
X286092Y227765D01*
X286214Y227702D01*
X286335Y227636D01*
X286454Y227567D01*
X286571Y227494D01*
X286685Y227418D01*
X286798Y227339D01*
X286908Y227256D01*
X287015Y227170D01*
X287120Y227082D01*
X287222Y226990D01*
X287322Y226895D01*
X287419Y226797D01*
X287513Y226697D01*
X287604Y226594D01*
X287692Y226488D01*
X287777Y226380D01*
X287859Y226270D01*
X287938Y226157D01*
X288013Y226042D01*
X288085Y225924D01*
X288153Y225805D01*
X288218Y225684D01*
X288280Y225561D01*
X288337Y225436D01*
X288392Y225310D01*
X288442Y225182D01*
X288489Y225053D01*
X288532Y224922D01*
X288571Y224790D01*
X288607Y224657D01*
X288638Y224523D01*
X288666Y224389D01*
X288690Y224253D01*
X288710Y224117D01*
X288726Y223981D01*
X288738Y223844D01*
X288746Y223706D01*
X288750Y223569D01*
X288750Y223431D01*
X288746Y223294D01*
X288738Y223156D01*
X288726Y223019D01*
X288710Y222883D01*
X288690Y222747D01*
X288666Y222611D01*
X288638Y222477D01*
X288607Y222343D01*
X288571Y222210D01*
X288532Y222078D01*
X288489Y221947D01*
X288442Y221818D01*
X288392Y221690D01*
X288337Y221564D01*
X288280Y221439D01*
X288218Y221316D01*
X288153Y221195D01*
X288085Y221076D01*
X288013Y220958D01*
X287938Y220843D01*
X287859Y220730D01*
X287777Y220620D01*
X287692Y220512D01*
X287604Y220406D01*
X287513Y220303D01*
X287419Y220203D01*
X287322Y220105D01*
X287222Y220010D01*
X287120Y219918D01*
X287015Y219830D01*
X286908Y219744D01*
X286798Y219661D01*
X286685Y219582D01*
X286571Y219506D01*
X286454Y219433D01*
X286335Y219364D01*
X286214Y219298D01*
X286092Y219235D01*
X285968Y219177D01*
X285842Y219122D01*
X285714Y219070D01*
X285585Y219022D01*
X285455Y218978D01*
X285323Y218938D01*
X285191Y218902D01*
X285057Y218869D01*
X284922Y218840D01*
X284787Y218816D01*
X284651Y218795D01*
X284515Y218778D01*
X284378Y218765D01*
X284241Y218756D01*
X284103Y218751D01*
X283966Y218750D01*
X283828Y218753D01*
X283691Y218760D01*
X283554Y218771D01*
X283417Y218786D01*
X283281Y218805D01*
X283145Y218828D01*
X283010Y218854D01*
X282876Y218885D01*
X282743Y218919D01*
X282611Y218958D01*
X282480Y219000D01*
X282350Y219046D01*
X282222Y219095D01*
X282095Y219149D01*
X281970Y219206D01*
X281847Y219266D01*
X281725Y219330D01*
X281605Y219398D01*
X281487Y219469D01*
X281372Y219543D01*
X281258Y219621D01*
X281147Y219702D01*
X281038Y219786D01*
X280932Y219874D01*
X280828Y219964D01*
X280727Y220057D01*
X280629Y220153D01*
X280534Y220252D01*
X280441Y220354D01*
X280351Y220458D01*
X280265Y220565D01*
X280182Y220675D01*
X280101Y220786D01*
X280024Y220900D01*
X279951Y221017D01*
X279881Y221135D01*
X279814Y221255D01*
X279751Y221377D01*
X279691Y221501D01*
X279635Y221627D01*
X279583Y221754D01*
X279534Y221883D01*
X279489Y222013D01*
X279448Y222144D01*
X279410Y222276D01*
X279377Y222410D01*
X279347Y222544D01*
X279322Y222679D01*
X279300Y222815D01*
X279282Y222951D01*
X279268Y223088D01*
X279258Y223225D01*
X279252Y223362D01*
X279250Y223500D01*
D18*
X249000Y7000D03*
X182000Y320000D03*
X187000Y307000D03*
X18000Y487000D03*
X90000Y334000D03*
X44000Y420000D03*
X11000Y422000D03*
X244000Y372000D03*
X277000Y419000D03*
X247000Y183000D03*
X261000Y205000D03*
X156000Y116000D03*
X179000Y61000D03*
X14000Y138000D03*
X14000Y88000D03*
X156000Y47000D03*
X219000Y66000D03*
X288000Y37000D03*
X251000Y474000D03*
X251000Y457000D03*
X69000Y489000D03*
X226000Y275000D03*
X193000Y133000D03*
X221000Y131000D03*
X89000Y297000D03*
D19*
X46000Y371000D03*
X185000Y294000D03*
D20*
X158000Y321000D01*
X46000Y363000D02*
X46000Y371000D01*
X46000Y363000D02*
X88000Y321000D01*
X158000Y321000D01*
D21*
X126000Y280000D03*
D20*
X72000Y226000D01*
X72000Y207000D01*
D21*
X72000Y207000D03*
D20*
X95000Y29370D02*
X81530Y15900D01*
X95000Y29370D02*
X95000Y66000D01*
D21*
X95000Y66000D03*
X56000Y111000D03*
D22*
X98000Y153000D01*
D21*
X157000Y307000D03*
D22*
X98000Y242000D02*
X98000Y153000D01*
X157000Y301000D02*
X157000Y307000D01*
X157000Y301000D02*
X98000Y242000D01*
D21*
X77000Y121000D03*
D22*
X59000Y103000D01*
X59000Y102928D01*
D21*
X59000Y102928D03*
X134000Y298000D03*
D22*
X66202Y230202D02*
X66202Y204598D01*
X91000Y179800D02*
X91000Y161000D01*
X91000Y179800D02*
X66202Y204598D01*
X66202Y230202D02*
X134000Y298000D01*
D21*
X91000Y161000D03*
X74000Y97000D03*
D22*
X83000Y97000D01*
X91000Y105000D01*
D21*
X91000Y105000D03*
D19*
X163000Y273000D03*
X142000Y152000D03*
D23*
X142000Y181000D01*
X152000Y191000D01*
D19*
X152000Y191000D03*
D23*
X163000Y273000D02*
X174000Y284000D01*
X250000Y284000D01*
X258000Y292000D01*
X258000Y305000D01*
D21*
X258000Y305000D03*
D19*
X201000Y26000D03*
D22*
X201000Y12000D01*
X207000Y6000D01*
D19*
X207000Y6000D03*
X45000Y393000D03*
X8000Y395000D03*
D22*
X10000Y393000D01*
X45000Y393000D01*
D19*
X153000Y143000D03*
D22*
X153000Y171000D01*
D19*
X153000Y171000D03*
D18*
X215000Y87000D03*
D23*
X206000Y96000D01*
X167000Y135000D01*
X167000Y162000D01*
D18*
X167000Y162000D03*
D23*
X206000Y96000D02*
X196000Y86000D01*
X196000Y51000D02*
X228000Y19000D01*
D18*
X228000Y19000D03*
D23*
X196000Y51000D02*
X196000Y86000D01*
D21*
X125000Y260000D03*
D23*
X214000Y260000D01*
X227000Y247000D01*
X240000Y201000D02*
X240000Y195000D01*
X235000Y190000D01*
D21*
X235000Y190000D03*
D23*
X240000Y201000D02*
X227000Y214000D01*
X227000Y247000D01*
D21*
X100000Y18000D03*
D22*
X102000Y16000D01*
X119970Y16000D01*
X120070Y15900D01*
D21*
X82000Y51000D03*
D22*
X82000Y34370D01*
X81530Y33900D01*
D23*
X104000Y177000D02*
X170000Y243000D01*
X177000Y243000D01*
D21*
X177000Y243000D03*
D23*
X104000Y177000D02*
X104000Y138000D01*
X22000Y56000D01*
X22000Y49000D01*
D21*
X22000Y49000D03*
D23*
X114600Y127400D02*
X121000Y127400D01*
X114600Y127400D02*
X104000Y138000D01*
D21*
X156000Y289000D03*
D20*
X121000Y178000D02*
X121000Y152800D01*
D21*
X149000Y206000D03*
X143000Y272000D03*
D20*
X156000Y285000D01*
X156000Y289000D01*
X149000Y206000D02*
X121000Y178000D01*
D21*
X165000Y184000D03*
D23*
X165000Y191000D01*
D21*
X209000Y226000D03*
D23*
X200000Y226000D02*
X165000Y191000D01*
X200000Y226000D02*
X209000Y226000D01*
M02*
